<?xml version="1.0" encoding="utf-8"?>
<!-- Generator: Adobe Illustrator 24.3.0, SVG Export Plug-In . SVG Version: 6.00 Build 0)  -->
<svg version="1.1" id="Layer_1" xmlns="http://www.w3.org/2000/svg" xmlns:xlink="http://www.w3.org/1999/xlink" x="0px" y="0px"
	 viewBox="0 0 1000 1000" style="enable-background:new 0 0 1000 1000;" xml:space="preserve">
<style type="text/css">
	.st0{fill:#8B9EAA;}
	.st1{fill:none;stroke:#5D6F7A;stroke-width:26.7151;stroke-miterlimit:10;}
	.st2{fill:#F7901E;}
	.st3{fill:#FFFFFF;}
	.st4{enable-background:new    ;}
	.st5{fill:#28373E;}
	.st6{fill:url(#SVGID_1_);}
	.st7{fill:url(#SVGID_2_);}
	.st8{fill:url(#SVGID_3_);}
	.st9{fill:#5A6163;}
</style>
<g>
	<path class="st0" d="M76,622.7h848v165c0,20.2-12.3,38.4-31.1,45.8L526.5,979.1c-14.7,5.8-31.1,5.9-45.9,0.1L107.4,833.4
		C88.4,826.1,76,807.8,76,787.5V622.7z"/>
	<path class="st1" d="M892.9,833.5L526.5,979.1c-14.7,5.8-31.1,5.9-45.9,0.1L107.4,833.4C88.4,826.1,76,807.8,76,787.5V110.3
		c0-51.8,42-93.8,93.8-93.8h660.4c51.8,0,93.8,42,93.8,93.8v677.4C924,807.9,911.7,826.1,892.9,833.5z"/>
	<g>
		<g>
			<path class="st2" d="M662.6,887.5c-1.2,0-2.3-0.3-3.3-0.8l-20.1-10.6L619,886.7c-1,0.5-2.2,0.8-3.3,0.8c-2.1,0-4.1-0.9-5.5-2.6
				c-1.4-1.6-1.9-3.8-1.6-5.8l3.8-22.4l-16.3-15.9c-2-1.9-2.7-4.8-1.8-7.4c0.8-2.6,3.1-4.5,5.8-4.9l22.5-3.3l10.1-20.4
				c1.2-2.5,3.7-4,6.5-4s5.2,1.5,6.5,4l10.1,20.4l22.5,3.3c2.7,0.4,5,2.3,5.8,4.9c0.8,2.6,0.2,5.5-1.8,7.4l-16.3,15.9l3.8,22.4
				c0.4,2.1-0.2,4.2-1.6,5.8C666.8,886.6,664.8,887.5,662.6,887.5z"/>
			<path class="st3" d="M639.1,805.6c0.9,0,1.8,0.5,2.2,1.4l11.2,22.6l25,3.6c2,0.3,2.8,2.8,1.4,4.2L660.8,855l4.3,24.9
				c0.3,1.6-1,2.9-2.4,2.9c-0.4,0-0.8-0.1-1.1-0.3l-22.3-11.8l-22.3,11.8c-0.4,0.2-0.8,0.3-1.1,0.3c-1.4,0-2.7-1.3-2.4-2.9l4.3-24.9
				l-18.1-17.6c-1.5-1.4-0.7-3.9,1.4-4.2l25-3.6l11.2-22.6C637.4,806,638.3,805.6,639.1,805.6 M639.1,796.1c-4.6,0-8.7,2.5-10.7,6.7
				l-9,18.2l-20,2.9c-4.5,0.7-8.2,3.8-9.7,8.1c-1.4,4.4-0.3,9.1,3,12.3l14.5,14.1l-3.4,20c-0.6,3.5,0.4,7,2.6,9.7
				c2.3,2.7,5.6,4.3,9.2,4.3c1.9,0,3.8-0.5,5.6-1.4l17.9-9.4l17.9,9.4c1.7,0.9,3.6,1.4,5.6,1.4c3.5,0,6.9-1.5,9.2-4.3
				c2.3-2.7,3.2-6.2,2.6-9.7l-3.4-20l14.5-14.1c3.3-3.2,4.4-7.9,3-12.3c-1.4-4.4-5.1-7.5-9.7-8.1l-20-2.9l-9-18.2
				C647.8,798.6,643.7,796.1,639.1,796.1L639.1,796.1z"/>
		</g>
		<g>
			<path class="st2" d="M384.3,887.5c-1.2,0-2.3-0.3-3.4-0.8l-20.1-10.6l-20.1,10.6c-1,0.5-2.2,0.8-3.4,0.8c-2.1,0-4.1-0.9-5.5-2.6
				c-1.4-1.6-1.9-3.8-1.6-5.8l3.9-22.4l-16.3-15.9c-2-1.9-2.7-4.8-1.8-7.4c0.9-2.6,3.1-4.5,5.8-4.9l22.5-3.3l10.1-20.4
				c1.2-2.5,3.7-4,6.5-4c2.8,0,5.2,1.5,6.5,4l10.1,20.4l22.5,3.3c2.7,0.4,5,2.3,5.8,4.9c0.9,2.6,0.1,5.5-1.8,7.4l-16.3,15.9
				l3.9,22.4c0.4,2.1-0.2,4.2-1.6,5.8C388.5,886.6,386.5,887.5,384.3,887.5z"/>
			<path class="st3" d="M360.9,805.6c0.9,0,1.8,0.5,2.2,1.4l11.2,22.6l25,3.6c2,0.3,2.8,2.8,1.4,4.2L382.5,855l4.3,24.9
				c0.3,1.6-1,2.9-2.4,2.9c-0.4,0-0.8-0.1-1.1-0.3l-22.3-11.8l-22.3,11.8c-0.4,0.2-0.8,0.3-1.1,0.3c-1.4,0-2.7-1.3-2.4-2.9l4.3-24.9
				l-18.1-17.6c-1.5-1.4-0.6-3.9,1.4-4.2l25-3.6l11.2-22.6C359.1,806,360,805.6,360.9,805.6 M360.9,796.1c-4.6,0-8.7,2.5-10.7,6.7
				l-9,18.2l-20,2.9c-4.5,0.7-8.2,3.8-9.6,8.1c-1.4,4.4-0.3,9.1,3,12.3l14.5,14.1l-3.4,20c-0.6,3.5,0.4,7,2.6,9.7
				c2.3,2.7,5.6,4.3,9.1,4.3c1.9,0,3.9-0.5,5.6-1.4l17.9-9.4l17.9,9.4c1.7,0.9,3.6,1.4,5.6,1.4c3.5,0,6.9-1.5,9.1-4.3
				c2.3-2.7,3.2-6.2,2.6-9.7l-3.4-20l14.5-14.1c3.3-3.2,4.4-7.9,3-12.3c-1.4-4.4-5.1-7.5-9.6-8.1l-20-2.9l-9-18.2
				C369.5,798.6,365.4,796.1,360.9,796.1L360.9,796.1z"/>
		</g>
		<g>
			<path class="st2" d="M608.2,903.3c-1.3,0-2.6-0.3-3.7-0.9l-27.6-14.5l-27.6,14.5c-1.2,0.6-2.5,0.9-3.7,0.9c-2.4,0-4.6-1-6.1-2.9
				c-1.5-1.8-2.2-4.2-1.8-6.5l5.3-30.7l-22.3-21.7c-2.2-2.2-3-5.3-2-8.2c1-2.9,3.4-5,6.5-5.5l30.8-4.5l13.8-27.9
				c1.4-2.8,4.1-4.5,7.2-4.5s5.8,1.7,7.2,4.5l13.8,27.9l30.8,4.5c3,0.4,5.5,2.5,6.5,5.5c1,2.9,0.2,6.1-2,8.2l-22.3,21.7l5.3,30.7
				c0.4,2.3-0.2,4.7-1.8,6.5C612.8,902.3,610.6,903.3,608.2,903.3z"/>
			<path class="st3" d="M576.9,795.7c1.2,0,2.3,0.6,2.9,1.8l14.9,30.2l33.3,4.8c2.7,0.4,3.8,3.7,1.8,5.6l-24.1,23.5l5.7,33.2
				c0.4,2.1-1.3,3.8-3.2,3.8c-0.5,0-1-0.1-1.5-0.4l-29.8-15.7l-29.8,15.7c-0.5,0.3-1,0.4-1.5,0.4c-1.9,0-3.6-1.7-3.2-3.8l5.7-33.2
				L524,838.1c-1.9-1.9-0.9-5.2,1.8-5.6l33.3-4.8l14.9-30.2C574.6,796.3,575.8,795.7,576.9,795.7 M576.9,786.2
				c-4.9,0-9.3,2.7-11.5,7.1L552.8,819l-28.3,4.1c-4.8,0.7-8.8,4-10.3,8.7c-1.5,4.7-0.3,9.7,3.2,13.1l20.5,20l-4.8,28.2
				c-0.6,3.7,0.4,7.5,2.8,10.4c2.4,2.9,6,4.6,9.8,4.6c2,0,4.1-0.5,5.9-1.5l25.4-13.3l25.4,13.3c1.8,1,3.9,1.5,5.9,1.5
				c3.8,0,7.3-1.7,9.8-4.6c2.4-2.9,3.5-6.7,2.8-10.4l-4.8-28.2l20.5-20c3.5-3.4,4.8-8.4,3.2-13.1s-5.5-8-10.3-8.7L601,819
				l-12.7-25.7C586.2,788.9,581.8,786.2,576.9,786.2L576.9,786.2z"/>
		</g>
		<g>
			<path class="st2" d="M454.5,903.3c-1.3,0-2.6-0.3-3.7-0.9l-27.6-14.5l-27.6,14.5c-1.1,0.6-2.5,0.9-3.7,0.9c-2.4,0-4.6-1-6.1-2.9
				c-1.5-1.8-2.2-4.2-1.8-6.5l5.3-30.7L367,841.5c-2.2-2.2-3-5.3-2-8.2s3.4-5,6.5-5.5l30.8-4.5l13.8-27.9c1.4-2.8,4.1-4.5,7.2-4.5
				s5.8,1.7,7.2,4.5l13.8,27.9l30.8,4.5c3,0.4,5.5,2.5,6.5,5.5c1,2.9,0.2,6.1-2,8.2l-22.3,21.7l5.3,30.7c0.4,2.3-0.2,4.7-1.8,6.5
				C459.1,902.3,456.9,903.3,454.5,903.3z"/>
			<path class="st3" d="M423.2,795.7c1.2,0,2.3,0.6,2.9,1.8l14.9,30.2l33.3,4.8c2.7,0.4,3.8,3.7,1.8,5.6l-24.1,23.5l5.7,33.2
				c0.4,2.1-1.3,3.8-3.2,3.8c-0.5,0-1-0.1-1.5-0.4l-29.8-15.7l-29.8,15.7c-0.5,0.3-1,0.4-1.5,0.4c-1.9,0-3.6-1.7-3.2-3.8l5.7-33.2
				l-24.1-23.5c-1.9-1.9-0.9-5.2,1.8-5.6l33.3-4.8l14.9-30.2C420.9,796.3,422,795.7,423.2,795.7 M423.2,786.2
				c-4.9,0-9.3,2.7-11.5,7.1L399.1,819l-28.4,4.1c-4.9,0.7-8.8,4-10.3,8.7c-1.5,4.7-0.3,9.7,3.2,13.1l20.5,20l-4.8,28.2
				c-0.6,3.7,0.4,7.5,2.8,10.4c2.4,2.9,6,4.6,9.8,4.6c2,0,4.1-0.5,5.9-1.5l25.4-13.3l25.4,13.3c1.8,1,3.9,1.5,5.9,1.5
				c3.8,0,7.3-1.7,9.8-4.6c2.4-2.9,3.5-6.7,2.8-10.4l-4.8-28.2l20.5-20c3.5-3.4,4.8-8.4,3.2-13.1c-1.5-4.7-5.5-8-10.3-8.7l-28.4-4.1
				l-12.7-25.7C432.5,788.9,428.1,786.2,423.2,786.2L423.2,786.2z"/>
		</g>
		<g>
			<path class="st2" d="M538.7,912.9c-1.4,0-2.9-0.4-4.2-1l-36.1-19l-36.1,19c-1.3,0.7-2.7,1-4.2,1c-2.6,0-5.1-1.2-6.9-3.2
				c-1.7-2-2.4-4.7-2-7.3l6.9-40.2L427,833.7c-2.5-2.4-3.3-5.9-2.3-9.2c1.1-3.3,3.8-5.6,7.2-6.1l40.4-5.9l18.1-36.6
				c1.5-3.1,4.6-5,8-5s6.5,1.9,8,5l18.1,36.6l40.4,5.9c3.4,0.5,6.2,2.8,7.2,6.1s0.2,6.8-2.3,9.2l-29.2,28.5l6.9,40.2
				c0.5,2.6-0.3,5.3-2,7.3C543.9,911.7,541.4,912.9,538.7,912.9z"/>
			<path class="st3" d="M498.5,775.7c1.5,0,3,0.8,3.8,2.3l19.2,38.8l42.8,6.2c3.5,0.5,4.8,4.7,2.3,7.2l-31,30.2l7.3,42.7
				c0.5,2.7-1.7,4.9-4.1,4.9c-0.7,0-1.3-0.2-2-0.5l-38.3-20.2l-38.3,20.2c-0.6,0.3-1.3,0.5-2,0.5c-2.5,0-4.6-2.2-4.1-4.9l7.3-42.7
				l-31-30.2c-2.5-2.4-1.1-6.7,2.3-7.2l42.9-6.2l19.2-38.8C495.5,776.5,497,775.7,498.5,775.7 M498.5,766.2c-5.3,0-10,2.9-12.3,7.6
				l-17,34.3l-37.9,5.5c-5.2,0.8-9.4,4.3-11.1,9.3c-1.6,5-0.3,10.4,3.5,14l27.4,26.7l-6.5,37.8c-0.7,4,0.4,8.1,3,11.1
				c2.6,3.1,6.5,4.9,10.5,4.9c2.2,0,4.4-0.5,6.4-1.6l33.9-17.8l33.9,17.8c2,1,4.2,1.6,6.4,1.6c4,0,7.9-1.8,10.5-4.9
				c2.6-3.1,3.7-7.2,3-11.1l-6.5-37.8l27.4-26.7c3.8-3.7,5.1-9,3.5-14c-1.6-5-5.9-8.6-11.1-9.3l-37.9-5.5l-17-34.3
				C508.4,769.1,503.7,766.2,498.5,766.2L498.5,766.2z"/>
		</g>
	</g>
	<g class="st4">
		<path class="st5" d="M322.3,151.2v-17.5H343v17.5H322.3z M322.8,228.3v-69.4h19.7v69.4H322.8z"/>
		<path class="st5" d="M411.2,228.3v-9.9c-2.4,3.3-5.3,5.9-8.7,8c-3.4,2.1-7.7,3.2-12.9,3.2c-4.1,0-8-0.8-11.8-2.3
			c-3.8-1.6-7.2-3.9-10.1-6.9c-2.9-3.1-5.3-6.8-7.1-11.3c-1.8-4.4-2.7-9.6-2.7-15.4v-0.3c0-5.8,0.9-10.9,2.7-15.4
			c1.8-4.4,4.1-8.2,7-11.3c2.9-3.1,6.2-5.4,10-6.9c3.8-1.6,7.8-2.3,11.9-2.3c5.3,0,9.6,1,13,3.1c3.4,2.1,6.3,4.5,8.6,7.2v-34.1h19.7
			v94.6H411.2z M411.4,193.4c0-2.9-0.5-5.5-1.4-7.9c-0.9-2.4-2.1-4.4-3.6-6.1c-1.5-1.7-3.3-3-5.3-3.9c-2-0.9-4.2-1.4-6.5-1.4
			s-4.5,0.5-6.5,1.4c-2,0.9-3.8,2.2-5.4,3.9c-1.6,1.7-2.8,3.7-3.7,6.1c-0.9,2.3-1.4,5-1.4,8v0.3c0,2.9,0.5,5.5,1.4,7.9
			c0.9,2.4,2.1,4.4,3.7,6.1c1.6,1.7,3.3,3,5.4,3.9c2,0.9,4.2,1.4,6.5,1.4s4.5-0.5,6.5-1.4c2-0.9,3.8-2.2,5.3-3.9
			c1.5-1.7,2.7-3.7,3.6-6.1c0.9-2.4,1.4-5,1.4-7.9V193.4z"/>
		<path class="st5" d="M489.2,228.3v-7.5c-2.4,2.7-5.3,4.8-8.7,6.4c-3.4,1.6-7.5,2.4-12.3,2.4c-3.3,0-6.4-0.5-9.3-1.4
			c-2.9-0.9-5.4-2.3-7.6-4.1c-2.2-1.8-3.9-4-5.1-6.7c-1.3-2.6-1.9-5.7-1.9-9.1v-0.3c0-3.8,0.7-7.1,2.1-9.8c1.4-2.8,3.3-5.1,5.8-6.9
			c2.5-1.8,5.4-3.2,8.8-4.1c3.4-0.9,7.2-1.4,11.3-1.4c3.5,0,6.6,0.3,9.3,0.8c2.6,0.5,5.2,1.2,7.7,2.1v-1.2c0-4.1-1.3-7.3-3.8-9.5
			c-2.5-2.2-6.2-3.2-11.1-3.2c-3.8,0-7.1,0.3-10,1c-2.9,0.6-5.9,1.6-9.1,2.8l-4.9-15c3.8-1.6,7.8-3,11.9-4s9.2-1.6,15-1.6
			c10.8,0,18.7,2.6,23.6,7.9c4.9,5.3,7.4,12.6,7.4,22v40.3H489.2z M489.5,200.3c-1.7-0.8-3.6-1.4-5.8-1.9c-2.1-0.5-4.4-0.7-6.8-0.7
			c-4.2,0-7.6,0.8-10,2.5c-2.4,1.6-3.6,4-3.6,7.1v0.3c0,2.7,1,4.8,3,6.2c2,1.5,4.6,2.2,7.8,2.2c4.7,0,8.4-1.1,11.2-3.4
			c2.8-2.2,4.2-5.2,4.2-8.8V200.3z"/>
		<path class="st5" d="M569.1,228.3v-38.6c0-4.7-1-8.2-3.1-10.5c-2.1-2.4-5-3.6-8.8-3.6c-3.8,0-6.8,1.2-9,3.6
			c-2.2,2.4-3.3,5.9-3.3,10.5v38.6h-19.7v-94.6h19.7v35.1c1.1-1.5,2.4-2.9,3.7-4.2c1.3-1.3,2.8-2.5,4.5-3.6c1.6-1,3.5-1.9,5.4-2.5
			c2-0.6,4.2-0.9,6.7-0.9c7.5,0,13.3,2.3,17.4,6.9c4.1,4.6,6.2,10.9,6.2,18.9v45H569.1z"/>
		<path class="st5" d="M674.8,207.7c-1.9,4.4-4.5,8.2-7.9,11.5c-3.4,3.3-7.3,5.9-11.9,7.8c-4.6,1.9-9.6,2.9-15,2.9
			c-5.4,0-10.3-0.9-14.9-2.8c-4.6-1.9-8.5-4.4-11.9-7.6c-3.3-3.2-5.9-7-7.8-11.4c-1.9-4.4-2.9-9-2.9-14.1v-0.3c0-5,0.9-9.7,2.9-14.1
			c1.9-4.4,4.5-8.2,7.9-11.5c3.4-3.3,7.3-5.9,11.9-7.8c4.6-1.9,9.6-2.9,15-2.9c5.4,0,10.3,0.9,14.9,2.8c4.6,1.9,8.5,4.4,11.9,7.6
			c3.3,3.2,5.9,7,7.8,11.4c1.9,4.4,2.8,9,2.8,14.1v0.3C677.7,198.7,676.7,203.4,674.8,207.7z M658.2,193.7c0-2.6-0.4-5-1.3-7.3
			c-0.9-2.3-2.1-4.3-3.8-6.1c-1.6-1.8-3.6-3.2-5.8-4.2c-2.2-1-4.7-1.6-7.4-1.6c-2.9,0-5.4,0.5-7.6,1.5c-2.2,1-4.1,2.4-5.6,4.1
			c-1.6,1.7-2.7,3.7-3.6,6c-0.8,2.3-1.2,4.7-1.2,7.3v0.3c0,2.6,0.4,5,1.3,7.3c0.9,2.3,2.1,4.3,3.8,6.1c1.6,1.8,3.6,3.2,5.8,4.2
			c2.2,1,4.7,1.6,7.4,1.6c2.9,0,5.4-0.5,7.6-1.5c2.2-1,4.1-2.4,5.6-4.1c1.6-1.7,2.7-3.7,3.6-6c0.8-2.3,1.2-4.7,1.2-7.3V193.7z"/>
	</g>
	<g class="st4">
		<path class="st5" d="M337.6,262.6l-6.1-8.1h-6v8.1h-2.4v-20.9h9c1.2,0,2.2,0.2,3.1,0.4c0.9,0.3,1.7,0.7,2.4,1.3s1.2,1.2,1.5,2
			s0.5,1.6,0.5,2.6c0,0.9-0.1,1.7-0.4,2.3c-0.3,0.7-0.7,1.3-1.2,1.8s-1.1,0.9-1.8,1.3c-0.7,0.3-1.5,0.6-2.3,0.7l6.4,8.5H337.6z
			 M336,245c-0.9-0.7-2.3-1.1-4-1.1h-6.5v8.5h6.4c0.8,0,1.5-0.1,2.2-0.3c0.7-0.2,1.2-0.5,1.7-0.9c0.5-0.4,0.9-0.8,1.1-1.4
			c0.3-0.5,0.4-1.1,0.4-1.8C337.4,246.7,336.9,245.7,336,245z"/>
		<path class="st5" d="M374.4,256.3c-0.5,1.3-1.2,2.5-2.2,3.4c-0.9,1-2.1,1.8-3.4,2.4s-2.8,0.9-4.4,0.9c-1.6,0-3-0.3-4.3-0.9
			c-1.3-0.6-2.4-1.4-3.4-2.3c-0.9-1-1.7-2.1-2.2-3.4c-0.5-1.3-0.8-2.7-0.8-4.1c0-1.5,0.3-2.8,0.8-4.1c0.5-1.3,1.2-2.5,2.2-3.4
			c0.9-1,2.1-1.8,3.4-2.4c1.3-0.6,2.8-0.9,4.4-0.9s3,0.3,4.3,0.9c1.3,0.6,2.4,1.4,3.4,2.3c0.9,1,1.7,2.1,2.2,3.4
			c0.5,1.3,0.8,2.7,0.8,4.1S374.9,255,374.4,256.3z M372.1,248.8c-0.4-1.1-1-2-1.7-2.7c-0.7-0.8-1.6-1.4-2.6-1.9
			c-1-0.5-2.1-0.7-3.3-0.7s-2.3,0.2-3.3,0.7c-1,0.4-1.9,1.1-2.6,1.8c-0.7,0.8-1.3,1.7-1.7,2.7c-0.4,1-0.6,2.2-0.6,3.4
			s0.2,2.3,0.6,3.4c0.4,1.1,1,2,1.7,2.7c0.7,0.8,1.6,1.4,2.6,1.9c1,0.5,2.1,0.7,3.3,0.7c1.2,0,2.3-0.2,3.3-0.7
			c1-0.4,1.9-1.1,2.6-1.8s1.3-1.7,1.7-2.7c0.4-1,0.6-2.2,0.6-3.4S372.5,249.9,372.1,248.8z"/>
		<path class="st5" d="M409.7,256.3c-0.5,1.3-1.2,2.5-2.2,3.4c-0.9,1-2.1,1.8-3.4,2.4s-2.8,0.9-4.4,0.9c-1.6,0-3-0.3-4.3-0.9
			c-1.3-0.6-2.4-1.4-3.4-2.3c-0.9-1-1.7-2.1-2.2-3.4c-0.5-1.3-0.8-2.7-0.8-4.1c0-1.5,0.3-2.8,0.8-4.1c0.5-1.3,1.2-2.5,2.2-3.4
			c0.9-1,2.1-1.8,3.4-2.4c1.3-0.6,2.8-0.9,4.4-0.9s3,0.3,4.3,0.9c1.3,0.6,2.4,1.4,3.4,2.3c0.9,1,1.7,2.1,2.2,3.4
			c0.5,1.3,0.8,2.7,0.8,4.1S410.2,255,409.7,256.3z M407.4,248.8c-0.4-1.1-1-2-1.7-2.7c-0.7-0.8-1.6-1.4-2.6-1.9
			c-1-0.5-2.1-0.7-3.3-0.7s-2.3,0.2-3.3,0.7c-1,0.4-1.9,1.1-2.6,1.8c-0.7,0.8-1.3,1.7-1.7,2.7c-0.4,1-0.6,2.2-0.6,3.4
			s0.2,2.3,0.6,3.4c0.4,1.1,1,2,1.7,2.7c0.7,0.8,1.6,1.4,2.6,1.9c1,0.5,2.1,0.7,3.3,0.7c1.2,0,2.3-0.2,3.3-0.7
			c1-0.4,1.9-1.1,2.6-1.8s1.3-1.7,1.7-2.7c0.4-1,0.6-2.2,0.6-3.4S407.8,249.9,407.4,248.8z"/>
		<path class="st5" d="M440.5,243.9h-12.7v7.5h11.3v2.2h-11.3v9.1h-2.4v-20.9h15V243.9z"/>
		<path class="st5" d="M457.6,241.7v20.9h-2.4v-20.9H457.6z"/>
		<path class="st5" d="M489.1,241.7h2.3v20.9h-1.9L476,245.5v17.1h-2.3v-20.9h2.2l13.2,16.8V241.7z"/>
		<path class="st5" d="M521.7,262c-1.4,0.6-3,0.9-4.8,0.9c-1.7,0-3.1-0.3-4.4-0.8c-1.3-0.6-2.4-1.3-3.3-2.3c-0.9-1-1.6-2.1-2.1-3.4
			c-0.5-1.3-0.7-2.7-0.7-4.2c0-1.4,0.3-2.8,0.8-4.1c0.5-1.3,1.2-2.5,2.1-3.5c0.9-1,2-1.8,3.3-2.4c1.3-0.6,2.7-0.9,4.3-0.9
			c0.9,0,1.7,0.1,2.4,0.2s1.4,0.3,2,0.5c0.6,0.2,1.2,0.5,1.8,0.9c0.5,0.3,1.1,0.7,1.6,1.2l-1.5,1.8c-0.4-0.4-0.8-0.7-1.3-1
			c-0.4-0.3-0.9-0.5-1.4-0.7s-1.1-0.4-1.7-0.5c-0.6-0.1-1.3-0.2-2-0.2c-1.2,0-2.2,0.2-3.2,0.7c-1,0.5-1.8,1.1-2.5,1.9
			c-0.7,0.8-1.2,1.7-1.6,2.7s-0.6,2.2-0.6,3.3c0,1.3,0.2,2.4,0.6,3.5c0.4,1.1,0.9,2,1.7,2.8c0.7,0.8,1.6,1.4,2.6,1.8
			c1,0.4,2.2,0.7,3.4,0.7c1.2,0,2.3-0.2,3.4-0.6c1.1-0.4,1.9-0.9,2.7-1.5v-5.2h-6.4v-2.1h8.6v8.3C524.4,260.6,523.2,261.4,521.7,262
			z"/>
		<path class="st5" d="M575.8,260.8c-0.6,0.4-1.2,0.8-1.9,1.1c-0.7,0.3-1.4,0.6-2.2,0.7c-0.8,0.2-1.6,0.3-2.6,0.3
			c-1.5,0-2.9-0.3-4.2-0.8c-1.3-0.6-2.4-1.3-3.3-2.3s-1.7-2.1-2.2-3.4c-0.5-1.3-0.8-2.7-0.8-4.2c0-1.5,0.3-2.9,0.8-4.2
			c0.5-1.3,1.3-2.5,2.2-3.4s2.1-1.8,3.3-2.3s2.7-0.9,4.2-0.9c1,0,1.8,0.1,2.6,0.2c0.8,0.2,1.5,0.4,2.1,0.7c0.7,0.3,1.3,0.6,1.8,1
			c0.6,0.4,1.1,0.9,1.6,1.4l-1.6,1.7c-0.9-0.8-1.9-1.5-2.9-2.1c-1-0.5-2.3-0.8-3.7-0.8c-1.2,0-2.2,0.2-3.2,0.7c-1,0.4-1.8,1-2.6,1.8
			c-0.7,0.8-1.3,1.7-1.7,2.7c-0.4,1-0.6,2.2-0.6,3.4c0,1.2,0.2,2.3,0.6,3.4c0.4,1.1,1,2,1.7,2.7c0.7,0.8,1.6,1.4,2.6,1.8
			c1,0.4,2.1,0.7,3.2,0.7c1.4,0,2.7-0.3,3.7-0.8c1-0.5,2.1-1.3,3-2.2l1.6,1.5C576.9,259.8,576.4,260.3,575.8,260.8z"/>
		<path class="st5" d="M610.6,256.3c-0.5,1.3-1.2,2.5-2.2,3.4c-0.9,1-2.1,1.8-3.4,2.4c-1.3,0.6-2.8,0.9-4.4,0.9s-3-0.3-4.3-0.9
			s-2.4-1.4-3.4-2.3s-1.7-2.1-2.2-3.4c-0.5-1.3-0.8-2.7-0.8-4.1c0-1.5,0.3-2.8,0.8-4.1c0.5-1.3,1.2-2.5,2.2-3.4
			c0.9-1,2.1-1.8,3.4-2.4s2.8-0.9,4.4-0.9s3,0.3,4.3,0.9c1.3,0.6,2.4,1.4,3.4,2.3c0.9,1,1.7,2.1,2.2,3.4c0.5,1.3,0.8,2.7,0.8,4.1
			S611.1,255,610.6,256.3z M608.3,248.8c-0.4-1.1-1-2-1.7-2.7c-0.7-0.8-1.6-1.4-2.6-1.9s-2.1-0.7-3.3-0.7s-2.3,0.2-3.3,0.7
			c-1,0.4-1.9,1.1-2.6,1.8c-0.7,0.8-1.3,1.7-1.7,2.7c-0.4,1-0.6,2.2-0.6,3.4s0.2,2.3,0.6,3.4c0.4,1.1,1,2,1.7,2.7s1.6,1.4,2.6,1.9
			c1,0.5,2.1,0.7,3.3,0.7c1.2,0,2.3-0.2,3.3-0.7c1-0.4,1.9-1.1,2.6-1.8s1.3-1.7,1.7-2.7c0.4-1,0.6-2.2,0.6-3.4
			S608.7,249.9,608.3,248.8z"/>
		<path class="st5" d="M628.2,248.2c0.2,0.4,0.4,0.8,0.9,1.1s1,0.6,1.7,0.9c0.7,0.3,1.7,0.5,2.8,0.8c2.3,0.5,4,1.2,5.2,2.2
			c1.1,0.9,1.7,2.2,1.7,3.8c0,0.9-0.2,1.7-0.5,2.5s-0.8,1.4-1.5,1.9c-0.6,0.5-1.4,0.9-2.2,1.2c-0.9,0.3-1.8,0.4-2.9,0.4
			c-1.7,0-3.2-0.3-4.6-0.8c-1.4-0.5-2.7-1.4-4-2.5l1.5-1.7c1.1,1,2.2,1.7,3.3,2.2c1.1,0.5,2.4,0.7,3.9,0.7c1.4,0,2.5-0.3,3.4-1
			c0.8-0.7,1.3-1.5,1.3-2.6c0-0.5-0.1-0.9-0.2-1.3c-0.2-0.4-0.4-0.7-0.8-1.1c-0.4-0.3-1-0.6-1.7-0.9c-0.7-0.3-1.6-0.5-2.7-0.7
			c-1.2-0.3-2.2-0.6-3.1-0.9c-0.9-0.3-1.6-0.7-2.2-1.2c-0.6-0.5-1-1-1.3-1.7c-0.3-0.6-0.4-1.4-0.4-2.3c0-0.8,0.2-1.6,0.5-2.3
			c0.3-0.7,0.8-1.3,1.4-1.8s1.3-0.9,2.2-1.2s1.8-0.4,2.7-0.4c1.5,0,2.9,0.2,4,0.6s2.3,1.1,3.3,1.9l-1.4,1.8c-1-0.8-2-1.4-2.9-1.7
			s-2-0.5-3.1-0.5c-0.7,0-1.3,0.1-1.8,0.3c-0.5,0.2-1,0.4-1.4,0.7c-0.4,0.3-0.7,0.7-0.9,1.1c-0.2,0.4-0.3,0.9-0.3,1.3
			C628,247.4,628.1,247.8,628.2,248.2z"/>
		<path class="st5" d="M662.7,262.6h-2.4v-18.7h-7v-2.2h16.4v2.2h-7V262.6z"/>
	</g>
	<g>
		<polygon class="st5" points="513.7,89.2 509.8,85.6 535.9,57.4 565,81.7 561.6,85.8 536.3,64.8 		"/>
		
			<linearGradient id="SVGID_1_" gradientUnits="userSpaceOnUse" x1="491.85" y1="931.3514" x2="536.1" y2="931.3514" gradientTransform="matrix(1 0 0 -1 0 1002)">
			<stop  offset="0" style="stop-color:#4E73D1"/>
			<stop  offset="1" style="stop-color:#269BD6"/>
		</linearGradient>
		<polygon class="st6" points="536.1,57.5 491.9,66.5 511.7,83.8 		"/>
		
			<linearGradient id="SVGID_2_" gradientUnits="userSpaceOnUse" x1="595.3" y1="905.0364" x2="510.98" y2="905.0364" gradientTransform="matrix(1 0 0 -1 0 1002)">
			<stop  offset="0" style="stop-color:#4E73D1"/>
			<stop  offset="1" style="stop-color:#269BD6"/>
		</linearGradient>
		<polygon class="st7" points="511,88 595.3,75.4 549.1,118.5 		"/>
		
			<linearGradient id="SVGID_3_" gradientUnits="userSpaceOnUse" x1="413.52" y1="915.2014" x2="549.25" y2="915.2014" gradientTransform="matrix(1 0 0 -1 0 1002)">
			<stop  offset="0" style="stop-color:#4E73D1"/>
			<stop  offset="0.3209" style="stop-color:#467BD2"/>
			<stop  offset="0.8232" style="stop-color:#3091D5"/>
			<stop  offset="1" style="stop-color:#269BD6"/>
		</linearGradient>
		<polygon class="st8" points="413.5,55.1 493.6,67.1 549.2,118.5 481.4,118.5 		"/>
		<polygon class="st5" points="675.2,124.8 638.4,124.8 595.2,82.7 550.3,123.6 480.3,123.6 413.5,62.4 347.9,124.8 321.2,124.8 
			321.2,119.4 345.8,119.4 413.5,55 482.4,118.2 548.2,118.2 595.4,75.3 640.6,119.4 675.2,119.4 		"/>
		<g>
			<path class="st5" d="M412.6,96.7v-10c-5,0.2-9,4.4-9,9.4v0.6L412.6,96.7L412.6,96.7z"/>
			<path class="st5" d="M413.5,96.7h9v-0.6c0-5.1-4-9.2-9-9.4V96.7z"/>
			<rect x="403.6" y="97.6" class="st5" width="9" height="8"/>
			<rect x="413.5" y="97.6" class="st5" width="9" height="8"/>
		</g>
		<g>
			<path class="st5" d="M595,102.4v-7.3c-3.7,0.2-6.6,3.2-6.6,6.9v0.4L595,102.4L595,102.4z"/>
			<path class="st5" d="M595.6,102.4h6.6V102c0-3.7-2.9-6.8-6.6-6.9V102.4z"/>
			<rect x="588.4" y="103" class="st5" width="6.6" height="5.9"/>
			<rect x="595.6" y="103" class="st5" width="6.6" height="5.9"/>
		</g>
		<g>
			<path class="st5" d="M536.5,73.8V70c-1.9,0.1-3.5,1.7-3.5,3.6v0.2H536.5z"/>
			<path class="st5" d="M536.8,73.8h3.5v-0.2c0-1.9-1.5-3.5-3.5-3.6V73.8z"/>
			<rect x="533" y="74.1" class="st5" width="3.5" height="3.1"/>
			<rect x="536.8" y="74.1" class="st5" width="3.5" height="3.1"/>
		</g>
		<polygon class="st9" points="350.5,124.8 412.6,64.4 354.5,124.8 		"/>
		<polygon class="st9" points="477.9,123.7 414.4,65.1 473.8,123.8 		"/>
		<polygon class="st9" points="553.1,123.7 595,83.8 555.7,123.7 		"/>
		<polygon class="st9" points="635.5,124.6 595.1,83.7 633,124.5 		"/>
	</g>
	<g class="st4">
		<path class="st2" d="M350,384c-7.2,5.2-15.2,13.3-24,24.2l-36.8-29.7c5.9-8,11.9-15.1,17.9-21.3c6-6.2,12.5-11.4,19.4-15.6
			c6.9-4.2,14.6-7.4,23-9.6c8.4-2.2,17.9-3.3,28.6-3.3c12.7,0,24.1,1.8,34.3,5.3c10.1,3.5,18.7,8.5,25.9,15
			c7.2,6.5,12.6,14.3,16.4,23.3c3.7,9.1,5.6,19.2,5.6,30.3c0,10-1.3,18.9-3.9,26.8c-2.6,7.8-6.5,15.3-11.6,22.3
			c-5.1,7-11.6,14-19.6,21c-8,6.9-17.2,14.5-27.6,22.7l-38.9,30h104v45.3H286.1v-41.5l79.4-65c7.5-6.1,13.9-11.6,19.1-16.5
			c5.2-4.9,9.5-9.5,12.8-14c3.3-4.4,5.7-8.7,7.2-12.9c1.5-4.2,2.2-8.8,2.2-13.8c0-10.2-3-17.9-8.9-23.1c-5.9-5.2-13.6-7.8-23.2-7.8
			C365.4,376.2,357.2,378.8,350,384z"/>
		<path class="st2" d="M704.5,499.9c-5.1,15-12.3,28.1-21.6,39.2c-9.3,11.1-20.5,19.9-33.6,26.2c-13.1,6.4-27.6,9.5-43.5,9.5
			c-15.9,0-30.4-3.1-43.5-9.4c-13.1-6.2-24.2-14.9-33.4-26.1c-9.2-11.1-16.3-24.1-21.3-39c-5-14.9-7.5-31.1-7.5-48.6
			c0-17.3,2.6-33.5,7.7-48.6c5.1-15.1,12.3-28.2,21.6-39.4c9.3-11.1,20.5-19.9,33.6-26.2c13.1-6.4,27.5-9.5,43.5-9.5
			c15.9,0,30.4,3.1,43.5,9.4c13.1,6.3,24.2,14.9,33.4,26.1c9.2,11.1,16.3,24.2,21.3,39.2c5,15,7.5,31.1,7.5,48.4
			C712.2,468.6,709.6,484.9,704.5,499.9z M654.6,421.5c-2.5-9.3-6-17.4-10.6-24.2c-4.5-6.8-10.1-12.2-16.5-16
			c-6.5-3.9-13.7-5.8-21.6-5.8c-8,0-15.1,1.9-21.5,5.6c-6.4,3.7-11.8,9-16.4,15.7c-4.5,6.7-8,14.7-10.4,24
			c-2.4,9.3-3.6,19.4-3.6,30.3s1.2,21,3.7,30.3c2.5,9.3,6,17.4,10.6,24.2c4.5,6.8,10.1,12.2,16.5,16c6.5,3.9,13.7,5.8,21.6,5.8
			c8,0,15.1-1.9,21.5-5.6c6.4-3.7,11.8-9,16.4-15.8c4.5-6.8,8-14.8,10.4-24c2.4-9.2,3.6-19.3,3.6-30.2S657.1,430.8,654.6,421.5z"/>
	</g>
	<g class="st4">
		<path class="st3" d="M238.7,755.6l-20.1-30.1h-16.2v30.1h-20.7v-94h43c11.2,0,19.9,2.7,26.1,8.2c6.2,5.5,9.3,13.1,9.3,22.8v0.3
			c0,7.6-1.9,13.8-5.6,18.6c-3.7,4.8-8.6,8.3-14.6,10.5l23,33.6H238.7z M239.1,693.7c0-4.5-1.4-7.8-4.3-10.1
			c-2.9-2.2-6.8-3.4-11.9-3.4h-20.5v27h20.9c5.1,0,9-1.2,11.7-3.6c2.7-2.4,4.1-5.6,4.1-9.7V693.7z"/>
		<path class="st3" d="M278.7,755.6v-94h70.7V680h-50.3v19.1h44.3v18.4h-44.3v19.7h51v18.4H278.7z"/>
		<path class="st3" d="M416.8,756.2h-18.3l-38-94.6h22.8l24.6,66.2l24.6-66.2h22.3L416.8,756.2z"/>
		<path class="st3" d="M470.3,755.6v-94h20.7v94H470.3z"/>
		<path class="st3" d="M514.4,755.6v-94h70.7V680h-50.3v19.1h44.3v18.4h-44.3v19.7h51v18.4H514.4z"/>
		<path class="st3" d="M707.6,756.2h-18l-21.2-61.5l-21.2,61.5h-18l-32.1-94.6h22.1l19.5,63.6l21.1-63.9h17.7l21.1,63.9l19.5-63.6
			h21.6L707.6,756.2z"/>
		<path class="st3" d="M820.4,740.2c-1.7,3.6-4,6.7-7.1,9.1c-3,2.5-6.6,4.3-10.8,5.6c-4.2,1.3-8.8,1.9-13.9,1.9
			c-7.2,0-14.2-1.2-21.1-3.7c-6.9-2.5-13.2-6.2-18.8-11.3l12.2-14.6c4.3,3.5,8.7,6.3,13.2,8.3c4.5,2.1,9.5,3.1,14.8,3.1
			c4.3,0,7.6-0.8,10-2.3c2.4-1.6,3.6-3.7,3.6-6.5v-0.3c0-1.3-0.2-2.5-0.7-3.6c-0.5-1-1.4-2-2.8-2.9c-1.4-0.9-3.3-1.8-5.8-2.7
			c-2.5-0.9-5.7-1.8-9.6-2.8c-4.8-1.2-9.1-2.5-12.9-3.9c-3.9-1.4-7.1-3.2-9.8-5.3c-2.7-2.1-4.8-4.7-6.3-7.9c-1.5-3.1-2.2-7-2.2-11.7
			v-0.3c0-4.3,0.8-8.2,2.4-11.6c1.6-3.4,3.8-6.4,6.7-8.9c2.9-2.5,6.3-4.4,10.4-5.8c4-1.3,8.4-2,13.3-2c6.9,0,13.2,1,19,3.1
			c5.8,2.1,11.1,5,15.9,8.9l-10.7,15.6c-4.2-2.9-8.3-5.1-12.3-6.8c-4-1.7-8.1-2.5-12.1-2.5c-4,0-7,0.8-9.1,2.3c-2,1.6-3,3.5-3,5.8
			v0.3c0,1.5,0.3,2.8,0.9,4c0.6,1.1,1.6,2.1,3.2,3c1.5,0.9,3.6,1.7,6.3,2.6c2.6,0.8,6,1.7,10,2.8c4.8,1.3,9,2.7,12.7,4.2
			c3.7,1.6,6.9,3.4,9.4,5.6c2.6,2.2,4.5,4.8,5.8,7.7c1.3,3,2,6.5,2,10.6v0.3C822.9,732.4,822,736.6,820.4,740.2z"/>
	</g>
</g>
</svg>
