<?xml version="1.0" encoding="utf-8"?>
<!-- Generator: Adobe Illustrator 24.3.0, SVG Export Plug-In . SVG Version: 6.00 Build 0)  -->
<svg version="1.1" id="Layer_1" xmlns="http://www.w3.org/2000/svg" xmlns:xlink="http://www.w3.org/1999/xlink" x="0px" y="0px"
	 viewBox="0 0 1000 1000" style="enable-background:new 0 0 1000 1000;" xml:space="preserve">
<style type="text/css">
	.st0{fill:#5D6F7A;}
	.st1{fill:#FFFFFF;}
	.st2{fill:none;}
	.st3{enable-background:new    ;}
	.st4{font-family:'ArialMT';}
	.st5{font-size:12px;}
	.st6{fill:#28373E;}
	.st7{fill:url(#SVGID_1_);}
	.st8{fill:url(#SVGID_2_);}
	.st9{fill:url(#SVGID_3_);}
	.st10{fill:#5A6163;}
</style>
<g>
	<g>
		<path class="st0" d="M997.4,510.6c0,49.7-73.9,87.2-88.5,132c-15.1,46.5,22.2,120.2-6,158.9c-28.5,39.1-110.2,26.3-149.3,54.7
			c-38.7,28.2-51.6,110-98.1,125.1c-44.9,14.6-103.2-43.6-153-43.6s-108.1,58.2-153,43.6c-46.5-15.1-59.4-97-98.1-125.1
			c-39.1-28.5-120.8-15.6-149.3-54.7c-28.2-38.7,9.1-112.3-6-158.9c-14.6-44.9-88.5-82.3-88.5-132c0-49.7,73.9-87.2,88.5-132
			c15.1-46.5-22.2-120.1,6-158.9c28.4-39.1,110.2-26.3,149.3-54.7c38.7-28.2,51.6-110,98.1-125.1c44.9-14.6,103.2,43.6,153,43.6
			s108.1-58.2,153-43.6c46.5,15.1,59.4,97,98.1,125.1c39.1,28.4,120.8,15.6,149.3,54.7c28.2,38.7-9.1,112.4,6,158.9
			C923.5,423.4,997.4,460.9,997.4,510.6z"/>
	</g>
	<circle class="st1" cx="502.6" cy="510.6" r="384.7"/>
	<path id="SVGID_x5F_1_x5F_" class="st2" d="M227.1,374.1c0,0,102.3-141.9,275.9-141.9s275.2,152.7,275.2,152.7"/>
	<g class="st3">
		<path class="st0" d="M386.3,204.2c3.5,1.1,6,3.4,7.3,7.1c0.5,1.4,0.8,2.7,0.9,4c0,1.2-0.1,2.4-0.3,3.4c-0.3,1-0.7,2-1.3,2.9
			c-0.6,0.9-1.2,1.8-1.8,2.5c1.5,0,3,0.1,4.3,0.3c1.4,0.2,2.6,0.6,3.7,1.2c1.1,0.6,2.2,1.4,3,2.4c0.9,1,1.6,2.3,2.2,3.9
			c0.8,2.1,1.1,4,0.9,5.9c-0.2,1.9-0.9,3.6-1.9,5.3s-2.6,3.1-4.5,4.5c-1.9,1.3-4.1,2.5-6.7,3.5l-21.3,8.1L353.4,213l20.6-7.8
			C378.7,203.5,382.8,203.1,386.3,204.2z M385.6,221.4c1.2-1.6,1.4-3.5,0.5-5.7c-0.7-1.9-2-3.1-3.7-3.6s-4-0.3-6.6,0.7l-11.6,4.4
			l4.7,12.3l11-4.2C382.5,224.3,384.4,223,385.6,221.4z M395.5,239.7c1.2-1.7,1.4-3.6,0.6-5.7c-0.7-2-2.1-3.2-4.1-3.7
			c-2-0.5-4.5-0.2-7.7,1.1l-12.8,4.8l4.8,12.6l13.4-5.1C392.3,242.8,394.3,241.4,395.5,239.7z"/>
	</g>
	<g class="st3">
		<path class="st0" d="M426,232c2.2,1.2,4.7,1.5,7.4,0.9c2.1-0.4,3.8-1.2,5.1-2.3c1.4-1.1,2.6-2.5,3.8-4.2l5.8,3.3
			c-1.3,2.4-3,4.5-5.1,6.3c-2.1,1.8-4.9,3-8.2,3.7c-2.6,0.6-5.2,0.6-7.6,0.2c-2.5-0.4-4.7-1.3-6.8-2.6c-2-1.3-3.8-3-5.2-5.1
			c-1.5-2.1-2.5-4.6-3.1-7.4c-0.6-2.6-0.7-5.2-0.3-7.6c0.4-2.5,1.2-4.8,2.4-6.8c1.2-2.1,2.8-3.8,4.7-5.3c1.9-1.5,4.2-2.5,6.8-3.1
			c2.9-0.6,5.5-0.6,7.9-0.1c2.4,0.6,4.5,1.6,6.4,3.1c1.8,1.5,3.4,3.3,4.6,5.5c1.2,2.2,2.2,4.6,2.7,7.3c0.1,0.4,0.1,0.7,0.2,1.1
			c0.1,0.4,0.1,0.8,0.2,1.2l-26.7,5.8C422.1,228.8,423.8,230.8,426,232z M438.3,216.4c-0.4-1.3-1-2.5-1.7-3.6
			c-0.7-1.1-1.5-1.9-2.5-2.6c-1-0.7-2-1.2-3.2-1.4c-1.2-0.3-2.5-0.3-3.8,0c-2.6,0.6-4.5,1.9-5.8,4c-1.3,2.1-1.8,4.7-1.6,7.6
			L438.3,216.4z"/>
	</g>
	<g class="st3">
		<path class="st0" d="M484.5,226.3c-0.6,1.5-1.4,2.8-2.6,3.9c-1.2,1.1-2.6,1.9-4.2,2.5c-1.6,0.6-3.4,1-5.3,1.2
			c-2.7,0.2-5.4,0-8.2-0.7c-2.8-0.7-5.5-1.9-8-3.5l3.3-6.1c2.1,1.3,4.3,2.3,6.4,2.9c2.1,0.6,4.2,0.8,6.1,0.6
			c1.8-0.2,3.2-0.6,4.1-1.5c0.9-0.8,1.4-1.8,1.3-3l0-0.1c-0.1-0.7-0.3-1.3-0.8-1.8c-0.5-0.5-1.1-0.9-1.9-1.2
			c-0.8-0.3-1.7-0.6-2.8-0.8c-1-0.2-2.1-0.4-3.2-0.7c-1.4-0.3-2.8-0.7-4.2-1s-2.7-1-3.9-1.7c-1.2-0.7-2.2-1.7-3-2.8
			c-0.8-1.1-1.3-2.6-1.4-4.4l0-0.1c-0.1-1.7,0.1-3.3,0.6-4.8c0.6-1.5,1.4-2.7,2.5-3.8c1.1-1.1,2.4-2,4-2.6c1.6-0.7,3.3-1.1,5.1-1.2
			c2.3-0.2,4.7,0,7.2,0.5c2.4,0.5,4.7,1.4,6.8,2.5l-2.8,6.3c-1.9-0.9-3.7-1.6-5.6-2.1c-1.9-0.5-3.6-0.6-5.1-0.5
			c-1.6,0.1-2.9,0.6-3.7,1.4c-0.9,0.8-1.2,1.7-1.1,2.8l0,0.1c0.1,0.7,0.3,1.2,0.8,1.7c0.5,0.5,1.2,0.8,2,1.2s1.7,0.6,2.8,0.9
			c1,0.3,2.1,0.5,3.2,0.7c1.4,0.3,2.8,0.7,4.2,1.1c1.4,0.4,2.7,1,3.9,1.8c1.2,0.7,2.2,1.6,3,2.7c0.8,1.1,1.3,2.5,1.4,4.2l0,0.1
			C485.3,223.1,485.1,224.8,484.5,226.3z"/>
	</g>
	<g class="st3">
		<path class="st0" d="M505.4,220.7c0,1.6,0.3,2.8,1.1,3.6c0.8,0.7,1.9,1.1,3.4,1.2c1.8,0,3.6-0.3,5.3-1.1l-0.2,7
			c-1.1,0.6-2.3,1-3.5,1.3c-1.2,0.3-2.6,0.4-4.2,0.4c-1.5,0-3-0.3-4.3-0.7c-1.3-0.4-2.4-1-3.4-1.9c-0.9-0.9-1.7-2-2.2-3.4
			c-0.5-1.4-0.7-3.1-0.7-5.2l0.5-19.6l-4.7-0.1l0.2-7.2l4.7,0.1l0.2-10.2l8.6,0.2l-0.2,10.2l10,0.2l-0.2,7.2l-10-0.2L505.4,220.7z"
			/>
	</g>
	<g class="st3">
		<path class="st0" d="M595.3,232.2c-2,2.7-4.3,4.9-7.1,6.6c-2.8,1.7-5.9,2.9-9.2,3.4c-3.4,0.6-6.9,0.4-10.6-0.5
			c-3.7-0.9-6.9-2.4-9.6-4.4c-2.7-2-4.9-4.4-6.6-7.2c-1.6-2.8-2.7-5.8-3.2-9.1c-0.5-3.3-0.3-6.6,0.5-10c0.8-3.4,2.2-6.4,4.2-9.1
			c2-2.7,4.3-4.9,7.1-6.6c2.8-1.7,5.9-2.9,9.2-3.4c3.4-0.6,6.9-0.4,10.6,0.5c3.7,0.9,6.9,2.4,9.6,4.4c2.7,2,4.9,4.4,6.6,7.2
			c1.6,2.8,2.7,5.8,3.2,9.1c0.5,3.3,0.3,6.6-0.5,10C598.6,226.4,597.2,229.5,595.3,232.2z M591,214.1c-0.3-2.3-1-4.4-2-6.3
			c-1.1-1.9-2.5-3.5-4.3-4.9c-1.8-1.4-3.9-2.4-6.2-3s-4.7-0.7-6.9-0.3c-2.2,0.4-4.2,1.2-6,2.4s-3.3,2.7-4.6,4.6
			c-1.3,1.9-2.2,4-2.8,6.3c-0.6,2.3-0.7,4.6-0.4,6.9c0.3,2.3,1,4.4,2,6.3s2.5,3.5,4.3,4.9c1.8,1.4,3.9,2.4,6.2,3
			c2.4,0.6,4.7,0.7,6.9,0.3c2.2-0.4,4.2-1.2,6-2.4c1.8-1.2,3.3-2.7,4.6-4.6c1.3-1.9,2.2-4,2.8-6.3
			C591.1,218.7,591.3,216.4,591,214.1z"/>
	</g>
	<g class="st3">
		<path class="st0" d="M634.4,223.8l-2.5,6.6l-9.1-3.5l-10.7,27.9l-8-3.1l10.7-27.9l-4.4-1.7l2.5-6.6l4.4,1.7l1-2.5
			c1.5-3.9,3.5-6.4,6.1-7.5s5.6-1.1,9,0.3c1.4,0.5,2.6,1.1,3.5,1.7c0.9,0.6,1.8,1.1,2.6,1.7l-2.6,6.7c-0.7-0.6-1.4-1.1-2-1.5
			c-0.7-0.4-1.4-0.8-2.3-1.2c-3.1-1.2-5.3,0-6.6,3.5l-0.7,1.9L634.4,223.8z"/>
	</g>
	<text transform="matrix(0.842 0.5394 -0.5394 0.842 669.3995 282.4662)" class="st4 st5"> </text>
	<text transform="matrix(1 0 0 1 2.575 10.6021)" class="st4 st5"> </text>
	<path id="SVGID_x5F_2_x5F_" class="st2" d="M195.8,696.8c0,0,95,161.2,286.8,161.2s325.9-161.2,325.9-161.2"/>
	<g class="st3">
		<path class="st0" d="M273.1,767.6l17.3-22.4l6.3,4.9l-17.3,22.4L273.1,767.6z M292.2,742.6l4.4-5.6l6.7,5.2l-4.4,5.6L292.2,742.6z
			"/>
	</g>
	<g class="st3">
		<path class="st0" d="M302.4,788.5l2.2-3.4c-1.6,0.6-3.1,0.8-4.8,0.8c-1.6,0-3.3-0.7-5.1-1.8c-1.4-0.9-2.5-2.1-3.5-3.4
			c-0.9-1.4-1.6-2.9-1.9-4.6c-0.3-1.7-0.3-3.5,0.1-5.4c0.4-1.9,1.2-3.9,2.5-5.8l0.1-0.1c1.3-2,2.7-3.5,4.3-4.6
			c1.6-1.1,3.2-1.9,4.9-2.3c1.7-0.4,3.3-0.4,5-0.1c1.6,0.3,3.2,0.9,4.6,1.9c1.8,1.2,3,2.5,3.7,4c0.7,1.5,1.1,2.9,1.3,4.4l7.6-11.6
			l6.7,4.4l-21.2,32.2L302.4,788.5z M310.3,776.6c0.6-1,1.1-2,1.3-3c0.2-1,0.3-2,0.1-2.9c-0.1-0.9-0.4-1.8-0.9-2.5
			c-0.5-0.8-1.1-1.4-1.9-1.9c-0.8-0.5-1.6-0.9-2.5-1c-0.9-0.1-1.8-0.1-2.7,0.1c-0.9,0.2-1.8,0.6-2.6,1.2c-0.8,0.6-1.6,1.4-2.2,2.4
			l-0.1,0.1c-0.6,1-1.1,2-1.3,3c-0.2,1-0.3,2-0.1,2.9s0.5,1.8,1,2.5c0.5,0.8,1.1,1.4,1.9,1.9c0.8,0.5,1.6,0.9,2.5,1
			c0.9,0.1,1.8,0.1,2.7-0.1c0.9-0.2,1.8-0.7,2.6-1.3C308.9,778.5,309.6,777.7,310.3,776.6L310.3,776.6z"/>
	</g>
	<g class="st3">
		<path class="st0" d="M330.1,804l1.4-2.7c-1.4,0.5-2.8,0.7-4.3,0.7c-1.5-0.1-3.2-0.5-4.9-1.4c-1.2-0.6-2.2-1.4-3.1-2.2
			c-0.9-0.9-1.5-1.8-2-2.9c-0.4-1.1-0.6-2.2-0.6-3.4s0.4-2.4,1-3.7l0-0.1c0.7-1.4,1.6-2.4,2.6-3.2c1-0.7,2.1-1.2,3.4-1.4
			c1.2-0.2,2.5-0.1,4,0.2s2.9,0.9,4.4,1.6c1.3,0.7,2.3,1.3,3.2,2c0.9,0.7,1.7,1.4,2.4,2.2l0.2-0.4c0.8-1.5,0.9-2.9,0.4-4.1
			c-0.5-1.2-1.6-2.3-3.4-3.3c-1.4-0.7-2.6-1.2-3.8-1.5c-1.2-0.3-2.4-0.5-3.8-0.7l1-6.4c1.7,0.1,3.4,0.4,5.1,0.8
			c1.7,0.4,3.6,1.2,5.7,2.2c3.9,2,6.3,4.4,7.1,7.3c0.8,2.8,0.3,5.9-1.5,9.4l-7.5,14.6L330.1,804z M335.5,794
			c-0.5-0.6-1.1-1.2-1.7-1.8c-0.7-0.6-1.5-1.1-2.3-1.5c-1.5-0.8-2.9-1.1-4.1-1c-1.2,0.1-2.1,0.8-2.6,1.9l0,0.1
			c-0.5,1-0.5,1.9-0.1,2.8c0.4,0.9,1.2,1.7,2.4,2.3c1.7,0.9,3.2,1.2,4.7,0.9c1.4-0.3,2.5-1.1,3.2-2.4L335.5,794z"/>
	</g>
	<g class="st3">
		<path class="st0" d="M359.9,817.1l5.8-14.6c0.7-1.8,0.8-3.2,0.4-4.5c-0.4-1.2-1.4-2.1-2.8-2.7c-1.4-0.6-2.8-0.6-3.9,0
			c-1.2,0.6-2.1,1.7-2.8,3.5l-5.8,14.6l-7.5-3l14.2-35.8l7.5,3l-5.3,13.3c0.6-0.4,1.3-0.7,2-1.1c0.7-0.3,1.5-0.5,2.2-0.7
			c0.8-0.1,1.6-0.2,2.4-0.1c0.8,0.1,1.7,0.3,2.7,0.7c2.8,1.1,4.7,2.9,5.6,5.2c0.9,2.3,0.7,5-0.5,8.1l-6.7,17L359.9,817.1z"/>
	</g>
	<g class="st3">
		<path class="st0" d="M403.3,821.7c-1.2,1.5-2.7,2.7-4.4,3.6c-1.7,0.9-3.5,1.5-5.5,1.8c-2,0.2-4.1,0.1-6.2-0.5
			c-2.1-0.6-4-1.5-5.5-2.7c-1.6-1.2-2.9-2.7-3.8-4.3c-1-1.6-1.6-3.4-1.8-5.3c-0.3-1.9-0.1-3.9,0.4-5.8l0-0.1c0.5-2,1.4-3.7,2.7-5.2
			c1.2-1.5,2.7-2.7,4.4-3.6c1.7-0.9,3.5-1.5,5.5-1.8c2-0.2,4.1-0.1,6.2,0.5c2.1,0.6,3.9,1.5,5.5,2.7c1.6,1.2,2.9,2.7,3.8,4.3
			c1,1.6,1.6,3.4,1.8,5.3c0.3,1.9,0.1,3.9-0.4,5.8l0,0.1C405.4,818.5,404.5,820.2,403.3,821.7z M398.3,814.4c0.3-1,0.4-2,0.3-3
			c-0.1-1-0.4-1.9-0.8-2.8c-0.5-0.9-1.1-1.6-1.8-2.3s-1.7-1.1-2.7-1.4c-1.1-0.3-2.2-0.4-3.1-0.2c-1,0.1-1.9,0.5-2.7,1
			s-1.5,1.2-2.1,2c-0.6,0.8-1,1.7-1.3,2.7l0,0.1c-0.3,1-0.4,2-0.3,3c0.1,1,0.4,1.9,0.8,2.8c0.5,0.9,1.1,1.6,1.8,2.3
			c0.8,0.6,1.7,1.1,2.8,1.4c1.1,0.3,2.2,0.4,3.1,0.2c1-0.1,1.9-0.5,2.7-1c0.8-0.5,1.5-1.2,2.1-2c0.6-0.8,1-1.7,1.3-2.7L398.3,814.4z
			"/>
	</g>
	<g class="st3">
		<path class="st0" d="M442.8,816.1c-2.6-0.4-4.8,0.1-6.6,1.5s-2.8,3.8-3.3,7.2l-1.5,10.4l-7.9-1.1l3.9-28l7.9,1.1l-0.8,5.6
			c1.1-1.8,2.4-3.2,3.9-4.1c1.6-1,3.5-1.2,5.9-0.8l-1.2,8.3L442.8,816.1z"/>
	</g>
	<g class="st3">
		<path class="st0" d="M473.9,830.3c-0.9,1.7-2,3.2-3.5,4.5c-1.4,1.3-3.1,2.2-5,2.9c-1.9,0.7-4,0.9-6.2,0.8c-2.2-0.1-4.2-0.6-6-1.5
			c-1.8-0.9-3.4-2-4.6-3.4c-1.3-1.4-2.3-3-2.9-4.8c-0.7-1.8-0.9-3.7-0.8-5.8l0-0.1c0.1-2,0.6-3.9,1.5-5.7c0.9-1.7,2-3.2,3.5-4.5
			c1.4-1.3,3.1-2.2,5-2.9c1.9-0.7,4-0.9,6.2-0.8c2.2,0.1,4.2,0.6,6,1.5c1.8,0.9,3.4,2,4.6,3.4c1.3,1.4,2.3,3,2.9,4.8
			c0.7,1.8,0.9,3.7,0.8,5.8l0,0.1C475.3,826.7,474.8,828.6,473.9,830.3z M467.5,824.2c0.1-1.1-0.1-2.1-0.4-3s-0.8-1.8-1.4-2.6
			c-0.6-0.8-1.4-1.4-2.3-1.8c-0.9-0.5-1.9-0.7-3-0.8c-1.2-0.1-2.2,0.1-3.1,0.4c-0.9,0.4-1.7,0.9-2.4,1.5c-0.7,0.7-1.2,1.5-1.6,2.4
			c-0.4,0.9-0.6,1.9-0.7,2.9l0,0.1c-0.1,1.1,0.1,2.1,0.4,3s0.8,1.8,1.4,2.6c0.6,0.8,1.4,1.4,2.2,1.8c0.9,0.5,1.9,0.7,3,0.8
			c1.2,0.1,2.2-0.1,3.1-0.4c0.9-0.4,1.7-0.9,2.4-1.5c0.7-0.7,1.2-1.5,1.6-2.4c0.4-0.9,0.6-1.9,0.7-2.9L467.5,824.2z"/>
	</g>
	<g class="st3">
		<path class="st0" d="M508.1,829.2c-0.7,1.8-1.7,3.4-3,4.8c-1.3,1.4-2.9,2.5-4.7,3.4c-1.8,0.8-3.9,1.3-6.1,1.4
			c-2.2,0.1-4.2-0.2-6.1-0.9c-1.9-0.7-3.5-1.7-4.9-2.9c-1.4-1.3-2.5-2.8-3.4-4.5c-0.8-1.7-1.3-3.6-1.4-5.7l0-0.1
			c-0.1-2,0.2-4,0.9-5.8c0.7-1.8,1.7-3.4,3-4.8c1.3-1.4,2.9-2.5,4.7-3.4c1.8-0.8,3.9-1.3,6.1-1.4c2.2-0.1,4.2,0.2,6.1,0.9
			c1.9,0.7,3.5,1.7,4.9,2.9c1.4,1.3,2.5,2.8,3.4,4.5c0.8,1.7,1.3,3.6,1.4,5.7l0,0.1C509.1,825.5,508.8,827.4,508.1,829.2z
			 M501.1,823.8c0-1.1-0.3-2-0.6-3c-0.4-0.9-0.9-1.7-1.6-2.4c-0.7-0.7-1.5-1.2-2.4-1.6c-0.9-0.4-1.9-0.6-3-0.5
			c-1.2,0-2.2,0.3-3.1,0.7s-1.6,1-2.2,1.8c-0.6,0.7-1.1,1.6-1.4,2.5c-0.3,0.9-0.4,1.9-0.4,3l0,0.1c0,1.1,0.3,2,0.6,3
			c0.4,0.9,0.9,1.7,1.6,2.4c0.7,0.7,1.5,1.2,2.4,1.6c0.9,0.4,1.9,0.6,3.1,0.5c1.2,0,2.2-0.3,3.1-0.7c0.9-0.4,1.6-1,2.2-1.8
			c0.6-0.7,1.1-1.6,1.4-2.5c0.3-0.9,0.4-1.9,0.4-3L501.1,823.8z"/>
	</g>
	<g class="st3">
		<path class="st0" d="M525.8,803.4c-0.6-0.1-1.2,0-1.9,0c-1.9,0.2-2.8,1.3-2.5,3.4l0.1,1.1l6.5-0.7l0.7,6.5l-6.3,0.7l2.4,21.3
			l-8,0.9l-2.4-21.3l-3.3,0.4l-0.7-6.6l3.3-0.4l-0.2-1.8c-0.3-3.1,0.1-5.5,1.5-7.1c1.3-1.6,3.4-2.6,6.2-2.9c1.3-0.1,2.3-0.2,3.2-0.2
			c0.9,0,1.7,0.1,2.5,0.3l0.7,6.6C527,803.6,526.4,803.5,525.8,803.4z"/>
	</g>
	<g class="st3">
		<path class="st0" d="M530.6,803.3l-1.1-7l8.3-1.3l1.1,7L530.6,803.3z M535.8,834.3l-4.4-27.9l7.9-1.3l4.4,27.9L535.8,834.3z"/>
	</g>
	<g class="st3">
		<path class="st0" d="M568.6,828l-3.4-15.4c-0.4-1.9-1.1-3.2-2.2-3.9c-1-0.8-2.3-1-3.8-0.6c-1.5,0.3-2.6,1.1-3.3,2.2
			c-0.7,1.1-0.8,2.6-0.4,4.5l3.4,15.4l-7.8,1.7l-6-27.6l7.8-1.7l0.9,4c0.3-0.7,0.7-1.4,1.1-2c0.4-0.7,0.9-1.3,1.5-1.8
			c0.6-0.6,1.2-1,2-1.5c0.7-0.4,1.6-0.7,2.6-1c3-0.7,5.5-0.2,7.5,1.2c2,1.5,3.4,3.8,4.1,7l3.9,17.9L568.6,828z"/>
	</g>
	<g class="st3">
		<path class="st0" d="M609.7,817.1c-0.1,2-0.6,3.7-1.5,5.3s-2.2,2.8-4,3.9c-1.7,1.1-3.9,2-6.4,2.8c-2.2,0.7-4.4,1.1-6.6,1.2
			c-2.2,0.1-4.2,0-6.2-0.4l0.9-6.6c1.6,0.3,3.3,0.5,4.8,0.5c1.6,0,3.3-0.3,5.1-0.8c2.6-0.8,4.4-2,5.3-3.6c0.9-1.6,1-3.7,0.2-6.1
			l-0.4-1.3c-0.7,1.7-1.7,3.2-2.8,4.4c-1.1,1.2-2.7,2.1-4.8,2.7c-1.6,0.5-3.2,0.7-4.8,0.5c-1.6-0.1-3.1-0.6-4.6-1.3
			c-1.4-0.7-2.7-1.8-3.8-3.2c-1.1-1.4-2-3.1-2.6-5.1l0-0.1c-0.6-2-0.8-3.9-0.6-5.7c0.2-1.8,0.7-3.4,1.5-4.8c0.8-1.4,1.8-2.6,3.1-3.6
			c1.3-1,2.7-1.7,4.2-2.2c2.1-0.6,3.9-0.8,5.5-0.4c1.6,0.4,3.1,1,4.5,1.8l-1.1-3.5l7.7-2.3l6.3,21
			C609.4,812.9,609.8,815.1,609.7,817.1z M598.4,803.7c-0.3-0.9-0.7-1.7-1.3-2.4c-0.6-0.7-1.2-1.2-2-1.6c-0.8-0.4-1.6-0.6-2.5-0.7
			c-0.9-0.1-1.8,0.1-2.8,0.3c-0.9,0.3-1.8,0.7-2.5,1.2c-0.7,0.5-1.3,1.2-1.7,1.9c-0.4,0.7-0.7,1.5-0.8,2.4c-0.1,0.9,0,1.8,0.3,2.7
			l0,0.1c0.6,1.9,1.6,3.2,3.2,4c1.6,0.8,3.3,0.9,5.2,0.3c0.9-0.3,1.8-0.7,2.5-1.2c0.7-0.5,1.3-1.2,1.7-1.9c0.4-0.7,0.7-1.5,0.8-2.4
			c0.1-0.9,0-1.8-0.3-2.7L598.4,803.7z"/>
	</g>
	<g class="st3">
		<path class="st0" d="M650.5,800.1c-1.3,1.6-3.2,2.9-5.8,4c-2,0.8-3.9,1.2-5.9,1.2c-2,0-3.8-0.4-5.5-1.1c-1.7-0.7-3.2-1.8-4.6-3.1
			c-1.4-1.4-2.4-3-3.2-4.8l0-0.1c-0.8-1.9-1.1-3.8-1.1-5.7s0.3-3.8,1-5.5c0.7-1.7,1.7-3.3,3.1-4.7c1.4-1.4,3.1-2.5,5.1-3.4
			c2.5-1,4.7-1.5,6.6-1.4c1.9,0.1,3.8,0.6,5.6,1.5l-2.5,6.8c-1.2-0.5-2.4-0.9-3.5-1c-1.1-0.2-2.3,0-3.7,0.6
			c-0.9,0.4-1.7,0.9-2.3,1.6c-0.6,0.7-1.1,1.5-1.4,2.4c-0.3,0.9-0.4,1.8-0.4,2.8c0,1,0.3,2,0.7,2.9l0,0.1c0.4,1,1,1.9,1.6,2.6
			c0.7,0.8,1.4,1.3,2.3,1.7c0.9,0.4,1.8,0.6,2.7,0.7c1,0,2-0.1,3-0.6c1.2-0.5,2.2-1.2,2.9-2.1s1.4-1.9,1.9-3.2l6.2,2.6
			C652.7,796.8,651.8,798.5,650.5,800.1z"/>
	</g>
	<g class="st3">
		<path class="st0" d="M681.5,777.1c0.1,1.9-0.2,3.8-0.9,5.6c-0.6,1.8-1.6,3.5-3,5c-1.3,1.5-3,2.8-5,3.7c-2,1-3.9,1.5-6,1.6
			c-2,0.1-3.9-0.1-5.7-0.7c-1.8-0.6-3.4-1.5-4.9-2.8c-1.5-1.3-2.7-2.8-3.5-4.6l0-0.1c-0.9-1.8-1.4-3.7-1.5-5.7
			c-0.1-1.9,0.2-3.8,0.9-5.6c0.7-1.8,1.6-3.5,3-5c1.3-1.5,3-2.8,5-3.7c2-1,3.9-1.5,6-1.6c2-0.1,3.9,0.1,5.7,0.7
			c1.8,0.6,3.4,1.5,4.9,2.8c1.5,1.3,2.7,2.8,3.5,4.6l0,0.1C681,773.3,681.5,775.2,681.5,777.1z M673,774.9c-0.5-1-1.1-1.8-1.8-2.5
			c-0.7-0.7-1.5-1.2-2.5-1.6c-0.9-0.4-1.9-0.5-2.9-0.5c-1,0-2,0.3-3,0.7c-1,0.5-1.9,1.1-2.5,1.9s-1.1,1.6-1.3,2.5
			c-0.3,0.9-0.3,1.9-0.2,2.8s0.4,2,0.9,2.9l0,0.1c0.5,0.9,1.1,1.8,1.8,2.5s1.5,1.2,2.5,1.6c0.9,0.4,1.9,0.5,2.9,0.5c1,0,2-0.3,3-0.8
			c1-0.5,1.9-1.1,2.5-1.9c0.6-0.8,1.1-1.6,1.3-2.5c0.3-0.9,0.3-1.9,0.2-2.8C673.8,776.9,673.5,776,673,774.9L673,774.9z"/>
	</g>
	<g class="st3">
		<path class="st0" d="M706.5,767.7c0.1,1.3-0.1,2.5-0.6,3.6c-0.5,1.1-1.2,2.2-2.2,3.1c-1,1-2.1,1.8-3.4,2.6c-1.8,1-3.7,1.7-5.9,2.1
			c-2.2,0.4-4.4,0.4-6.8,0.1l0.4-6.3c1.9,0.2,3.7,0.2,5.3,0c1.6-0.3,3-0.7,4.2-1.4c1-0.6,1.7-1.1,2-1.8c0.3-0.6,0.3-1.2,0-1.7
			l-0.1-0.1c-0.2-0.4-0.5-0.6-1-0.7c-0.4-0.1-0.9-0.2-1.5-0.1c-0.6,0.1-1.2,0.2-2,0.3s-1.5,0.3-2.3,0.5c-1,0.2-2,0.4-3.1,0.6
			c-1.1,0.1-2.1,0.1-3.1-0.1c-1-0.2-2-0.6-2.9-1.1s-1.7-1.5-2.4-2.7l-0.1-0.1c-0.7-1.3-1.1-2.5-1.1-3.7c-0.1-1.2,0.1-2.4,0.6-3.5
			c0.4-1.1,1.1-2.2,2-3.1c0.9-0.9,2-1.8,3.2-2.5c1.6-0.9,3.3-1.5,5.2-1.9c1.9-0.4,3.8-0.5,5.6-0.4l0,6.3c-1.6,0-3.1,0.1-4.5,0.3
			c-1.4,0.2-2.5,0.6-3.4,1.1c-0.9,0.5-1.4,1-1.7,1.6c-0.3,0.6-0.2,1.1,0,1.6l0.1,0.1c0.2,0.3,0.5,0.6,0.9,0.7
			c0.4,0.1,0.9,0.1,1.5,0.1c0.6,0,1.2-0.1,2-0.2c0.7-0.1,1.5-0.3,2.3-0.4c1-0.2,2.1-0.4,3.2-0.5c1.1-0.1,2.2-0.1,3.2,0.1
			c1,0.2,2,0.5,2.9,1.1c0.9,0.5,1.7,1.4,2.3,2.5l0.1,0.1C706,765.1,706.5,766.4,706.5,767.7z"/>
	</g>
	<g class="st3">
		<path class="st0" d="M726.7,760.7c-0.7,0.8-1.6,1.5-2.8,2.2c-1,0.6-2.1,1.1-3.1,1.4c-1,0.3-2,0.4-2.9,0.2c-1-0.2-1.9-0.6-2.8-1.3
			c-0.9-0.7-1.8-1.8-2.7-3.2l-7.1-11.4l-2.9,1.8l-3.6-5.8l2.9-1.8l-3.8-6.2l6.8-4.2l3.8,6.2l5.7-3.5l3.6,5.8l-5.7,3.5l6.4,10.3
			c1,1.6,2.2,1.9,3.6,1c1.2-0.7,2.1-1.7,2.8-2.9l3.4,5.5C728,759.1,727.4,759.9,726.7,760.7z"/>
	</g>
	<text transform="matrix(1 0 0 1 2.575 10.6021)" class="st4 st5"> </text>
	<path class="st0" d="M502.6,776c-68.2,0-132.4-26.6-180.6-74.8c-48.3-48.3-74.8-112.4-74.8-180.6c0-68.2,26.6-132.4,74.8-180.6
		S434.3,265,502.6,265c68.2,0,132.4,26.6,180.6,74.8c48.3,48.3,74.8,112.4,74.8,180.6c0,68.2-26.6,132.4-74.8,180.6
		C635,749.4,570.8,776,502.6,776z M502.6,273.3c-136.3,0-247.3,110.9-247.3,247.3c0,136.3,110.9,247.3,247.3,247.3
		c136.3,0,247.3-110.9,247.3-247.3C749.8,384.2,638.9,273.3,502.6,273.3z"/>
	<path class="st0" d="M208.6,407.8l-9.8-3.7c26.6-69.5,76.9-128.2,141.5-165.5l5.2,9.1C283,283.7,234.4,340.6,208.6,407.8z"/>
	<path class="st0" d="M267.4,745.2C230.9,707,204,660,189.6,609.3l10.1-2.9c13.9,49,39.9,94.5,75.3,131.5L267.4,745.2z"/>
	<path class="st0" d="M744.2,738.2l-7.8-7c33-36.7,57.3-81.1,70-128.5l10.1,2.7C803.4,654.4,778.4,700.3,744.2,738.2z"/>
	<path class="st0" d="M796.6,407.8c-28.8-75.1-84.7-135.8-157.2-170.9l4.6-9.4c37,17.9,70,42.3,97.9,72.7
		c28.1,30.5,49.8,65.4,64.5,103.9L796.6,407.8z"/>
	<path class="st0" d="M129.4,416.9c0,0,12.4,21.7,133.3,28.1c0,0-17.1,93.2-5.4,130.9c0,0-109.8,11.8-141.2,32
		C116.1,607.9,85.3,436.1,129.4,416.9z"/>
	<path class="st0" d="M877.4,416.9c0,0-12.4,21.7-133.3,28.1c0,0,17.1,93.2,5.4,130.9c0,0,109.8,11.8,141.2,32
		C890.7,607.9,921.5,436.1,877.4,416.9z"/>
	<g class="st3">
		<path class="st1" d="M153.5,489.9c-1.7,1.2-3.5,3.1-5.5,5.6l-6.1-4.8c1.2-1.6,2.4-3.1,3.6-4.4c1.2-1.3,2.5-2.4,4-3.3
			c1.4-0.9,3-1.5,4.7-2c1.7-0.5,3.7-0.7,5.9-0.7c2.4,0,4.7,0.4,6.7,1.1c2,0.7,3.7,1.7,5.1,3s2.5,2.9,3.3,4.7c0.8,1.8,1.2,3.8,1.2,6
			c0,2-0.3,3.7-0.8,5.3c-0.5,1.5-1.3,3.1-2.4,4.5c-1.1,1.5-2.4,2.9-4,4.4c-1.6,1.5-3.5,3.1-5.7,4.9l-10.1,8.4h23.4v7.6h-35.6v-6.8
			l17-14.4c1.7-1.4,3.1-2.7,4.3-3.8c1.2-1.1,2.1-2.2,2.9-3.3c0.7-1,1.3-2,1.6-3c0.3-1,0.5-2,0.5-3.2c0-2.4-0.8-4.3-2.3-5.7
			c-1.5-1.3-3.4-2-5.7-2C157.2,488,155.2,488.6,153.5,489.9z"/>
		<path class="st1" d="M226.3,515.4c-1,3.1-2.5,5.8-4.4,8.1c-1.9,2.3-4.1,4.1-6.8,5.5c-2.7,1.3-5.6,2-8.8,2c-3.2,0-6.2-0.7-8.8-2
			c-2.6-1.3-4.9-3.1-6.8-5.4c-1.9-2.3-3.3-5-4.3-8.1c-1-3.1-1.5-6.4-1.5-9.9c0-3.5,0.5-6.8,1.5-10c1-3.1,2.5-5.8,4.4-8.1
			c1.9-2.3,4.1-4.1,6.8-5.5c2.6-1.3,5.6-2,8.8-2c3.2,0,6.2,0.7,8.8,2c2.6,1.3,4.9,3.1,6.8,5.4c1.9,2.3,3.3,5,4.3,8.1
			c1,3.1,1.5,6.4,1.5,9.9C227.9,509,227.3,512.3,226.3,515.4z M218,498.7c-0.6-2.2-1.4-4-2.5-5.6c-1.1-1.6-2.4-2.9-4-3.8
			c-1.5-0.9-3.3-1.4-5.2-1.4c-1.9,0-3.6,0.5-5.2,1.4c-1.5,0.9-2.8,2.2-3.9,3.7c-1.1,1.6-1.9,3.4-2.5,5.6c-0.6,2.2-0.9,4.5-0.9,6.9
			c0,2.5,0.3,4.8,0.9,6.9c0.6,2.1,1.4,4,2.5,5.6c1.1,1.6,2.4,2.9,4,3.8s3.3,1.4,5.2,1.4c1.9,0,3.6-0.5,5.2-1.4
			c1.5-0.9,2.8-2.2,3.9-3.8c1.1-1.6,1.9-3.5,2.5-5.6c0.6-2.1,0.9-4.4,0.9-6.9C218.9,503.2,218.6,500.9,218,498.7z"/>
	</g>
	<g class="st3">
		<path class="st1" d="M793.8,489.9c-1.7,1.2-3.5,3.1-5.5,5.6l-6.1-4.8c1.2-1.6,2.4-3.1,3.6-4.4c1.2-1.3,2.5-2.4,4-3.3
			c1.4-0.9,3-1.5,4.7-2c1.7-0.5,3.7-0.7,5.9-0.7c2.4,0,4.7,0.4,6.7,1.1c2,0.7,3.7,1.7,5.1,3c1.4,1.3,2.5,2.9,3.3,4.7
			c0.8,1.8,1.2,3.8,1.2,6c0,2-0.3,3.7-0.8,5.3c-0.5,1.5-1.3,3.1-2.4,4.5c-1.1,1.5-2.4,2.9-4,4.4c-1.6,1.5-3.5,3.1-5.7,4.9l-10.1,8.4
			h23.4v7.6h-35.6v-6.8l17-14.4c1.7-1.4,3.1-2.7,4.3-3.8s2.1-2.2,2.9-3.3c0.7-1,1.3-2,1.6-3c0.3-1,0.5-2,0.5-3.2
			c0-2.4-0.8-4.3-2.3-5.7c-1.5-1.3-3.4-2-5.7-2S795.5,488.6,793.8,489.9z"/>
		<path class="st1" d="M836.3,480.6h6.1v49.6h-8.6v-40.8l-8.9,2.5l-1.8-7L836.3,480.6z"/>
	</g>
	<g class="st3">
		<path class="st6" d="M346.7,501.7v-15.3h18.2v15.3H346.7z M347.1,569.3v-60.9h17.3v60.9H347.1z"/>
		<path class="st6" d="M424.7,569.3v-8.7c-2.1,2.9-4.7,5.2-7.7,7c-3,1.8-6.8,2.8-11.3,2.8c-3.6,0-7-0.7-10.3-2
			c-3.3-1.4-6.3-3.4-8.9-6.1c-2.6-2.7-4.6-6-6.2-9.9c-1.6-3.9-2.3-8.4-2.3-13.5v-0.2c0-5.1,0.8-9.6,2.3-13.5
			c1.6-3.9,3.6-7.2,6.1-9.9c2.5-2.7,5.5-4.7,8.8-6.1c3.3-1.4,6.8-2,10.5-2c4.6,0,8.4,0.9,11.4,2.7c3,1.8,5.5,3.9,7.6,6.3v-29.9h17.3
			v83H424.7z M424.9,538.7c0-2.5-0.4-4.8-1.2-6.9c-0.8-2.1-1.9-3.9-3.2-5.4c-1.3-1.5-2.9-2.6-4.7-3.4c-1.8-0.8-3.7-1.2-5.7-1.2
			c-2,0-4,0.4-5.7,1.2c-1.8,0.8-3.4,1.9-4.7,3.4s-2.4,3.3-3.2,5.3c-0.8,2.1-1.2,4.4-1.2,7v0.2c0,2.5,0.4,4.8,1.2,6.9
			c0.8,2.1,1.9,3.9,3.2,5.4c1.4,1.5,2.9,2.6,4.7,3.4c1.8,0.8,3.7,1.2,5.7,1.2c2,0,4-0.4,5.7-1.2c1.8-0.8,3.3-1.9,4.7-3.4
			c1.3-1.5,2.4-3.3,3.2-5.4c0.8-2.1,1.2-4.4,1.2-6.9V538.7z"/>
		<path class="st6" d="M493.1,569.3v-6.6c-2.1,2.3-4.7,4.2-7.6,5.6c-3,1.4-6.6,2.1-10.8,2.1c-2.9,0-5.6-0.4-8.1-1.2
			c-2.5-0.8-4.8-2-6.6-3.6c-1.9-1.6-3.4-3.5-4.5-5.9c-1.1-2.3-1.6-5-1.6-8v-0.2c0-3.3,0.6-6.2,1.8-8.6c1.2-2.4,2.9-4.4,5.1-6
			c2.2-1.6,4.7-2.8,7.7-3.6c3-0.8,6.3-1.2,9.9-1.2c3.1,0,5.8,0.2,8.1,0.7c2.3,0.5,4.6,1.1,6.8,1.8v-1c0-3.6-1.1-6.4-3.3-8.3
			c-2.2-1.9-5.5-2.8-9.8-2.8c-3.3,0-6.3,0.3-8.8,0.9c-2.5,0.6-5.2,1.4-8,2.4l-4.3-13.2c3.3-1.4,6.8-2.6,10.5-3.5
			c3.6-0.9,8-1.4,13.2-1.4c9.5,0,16.4,2.3,20.7,6.9c4.3,4.6,6.5,11.1,6.5,19.3v35.3H493.1z M493.4,544.8c-1.5-0.7-3.2-1.2-5.1-1.6
			c-1.9-0.4-3.8-0.6-6-0.6c-3.7,0-6.6,0.7-8.8,2.2c-2.1,1.4-3.2,3.5-3.2,6.2v0.2c0,2.3,0.9,4.2,2.6,5.5c1.7,1.3,4,1.9,6.8,1.9
			c4.1,0,7.4-1,9.8-3c2.5-2,3.7-4.5,3.7-7.7V544.8z"/>
		<path class="st6" d="M563.2,569.3v-33.9c0-4.1-0.9-7.2-2.7-9.2c-1.8-2.1-4.4-3.1-7.7-3.1c-3.3,0-6,1-7.9,3.1
			c-1.9,2.1-2.9,5.2-2.9,9.2v33.9h-17.3v-83h17.3v30.8c1-1.3,2.1-2.5,3.2-3.7c1.2-1.2,2.5-2.2,3.9-3.1c1.4-0.9,3-1.6,4.8-2.2
			c1.7-0.5,3.7-0.8,5.9-0.8c6.6,0,11.7,2,15.3,6c3.6,4,5.4,9.5,5.4,16.6v39.4H563.2z"/>
		<path class="st6" d="M655.9,551.3c-1.7,3.8-4,7.2-6.9,10.1c-3,2.9-6.4,5.2-10.5,6.8c-4,1.7-8.4,2.5-13.2,2.5
			c-4.7,0-9.1-0.8-13.1-2.4c-4-1.6-7.5-3.9-10.4-6.7c-2.9-2.8-5.2-6.2-6.9-10c-1.7-3.8-2.5-7.9-2.5-12.3V539c0-4.4,0.8-8.5,2.5-12.3
			c1.7-3.8,4-7.2,6.9-10.1s6.4-5.2,10.5-6.8c4-1.7,8.4-2.5,13.2-2.5c4.7,0,9.1,0.8,13.1,2.4c4,1.6,7.5,3.9,10.4,6.7
			c2.9,2.8,5.2,6.2,6.9,10c1.7,3.8,2.5,7.9,2.5,12.3v0.2C658.4,543.4,657.6,547.5,655.9,551.3z M641.4,539c0-2.3-0.4-4.4-1.1-6.4
			c-0.8-2-1.9-3.8-3.3-5.3c-1.4-1.6-3.1-2.8-5.1-3.7c-2-0.9-4.1-1.4-6.5-1.4c-2.5,0-4.7,0.4-6.6,1.3c-1.9,0.9-3.6,2.1-4.9,3.6
			c-1.4,1.5-2.4,3.3-3.1,5.3c-0.7,2-1.1,4.1-1.1,6.4v0.2c0,2.3,0.4,4.4,1.1,6.4c0.8,2,1.9,3.8,3.3,5.3c1.4,1.6,3.1,2.8,5.1,3.7
			c1.9,0.9,4.1,1.4,6.5,1.4c2.5,0,4.7-0.4,6.6-1.3c1.9-0.9,3.6-2.1,4.9-3.6c1.4-1.5,2.4-3.3,3.1-5.3c0.7-2,1.1-4.1,1.1-6.4V539z"/>
	</g>
	<g class="st3">
		<path class="st6" d="M360.1,599.4l-5.3-7.1h-5.2v7.1h-2.1v-18.3h7.9c1,0,1.9,0.1,2.7,0.4c0.8,0.3,1.5,0.6,2.1,1.1
			c0.6,0.5,1,1.1,1.3,1.7s0.5,1.4,0.5,2.2c0,0.8-0.1,1.5-0.4,2.1c-0.2,0.6-0.6,1.1-1,1.6c-0.4,0.4-1,0.8-1.6,1.1
			c-0.6,0.3-1.3,0.5-2,0.6l5.6,7.5H360.1z M358.7,584c-0.8-0.6-2-1-3.5-1h-5.7v7.5h5.6c0.7,0,1.3-0.1,1.9-0.3
			c0.6-0.2,1.1-0.4,1.5-0.7c0.4-0.3,0.7-0.7,1-1.2c0.2-0.5,0.4-1,0.4-1.6C359.9,585.5,359.5,584.6,358.7,584z"/>
		<path class="st6" d="M392.6,593.9c-0.5,1.1-1.1,2.2-1.9,3c-0.8,0.9-1.8,1.6-3,2.1c-1.2,0.5-2.4,0.8-3.8,0.8
			c-1.4,0-2.7-0.3-3.8-0.8c-1.1-0.5-2.1-1.2-2.9-2.1s-1.5-1.9-1.9-3c-0.4-1.1-0.7-2.4-0.7-3.6s0.2-2.5,0.7-3.6s1.1-2.2,1.9-3
			s1.8-1.6,3-2.1c1.2-0.5,2.4-0.8,3.8-0.8s2.7,0.3,3.8,0.8c1.1,0.5,2.1,1.2,2.9,2.1c0.8,0.9,1.5,1.9,1.9,3c0.4,1.1,0.7,2.4,0.7,3.6
			S393.1,592.7,392.6,593.9z M390.6,587.3c-0.4-0.9-0.9-1.7-1.5-2.4c-0.6-0.7-1.4-1.2-2.3-1.6c-0.9-0.4-1.8-0.6-2.9-0.6
			s-2,0.2-2.9,0.6c-0.9,0.4-1.6,0.9-2.3,1.6c-0.6,0.7-1.1,1.5-1.5,2.4c-0.4,0.9-0.5,1.9-0.5,2.9s0.2,2,0.5,3
			c0.4,0.9,0.9,1.7,1.5,2.4c0.6,0.7,1.4,1.2,2.3,1.6c0.9,0.4,1.8,0.6,2.9,0.6c1,0,2-0.2,2.9-0.6c0.9-0.4,1.6-0.9,2.3-1.6
			c0.6-0.7,1.1-1.5,1.5-2.4s0.5-1.9,0.5-2.9C391.1,589.2,391,588.3,390.6,587.3z"/>
		<path class="st6" d="M423.9,593.9c-0.5,1.1-1.1,2.2-1.9,3c-0.8,0.9-1.8,1.6-3,2.1c-1.2,0.5-2.4,0.8-3.8,0.8
			c-1.4,0-2.7-0.3-3.8-0.8c-1.1-0.5-2.1-1.2-2.9-2.1s-1.5-1.9-1.9-3c-0.4-1.1-0.7-2.4-0.7-3.6s0.2-2.5,0.7-3.6s1.1-2.2,1.9-3
			s1.8-1.6,3-2.1c1.2-0.5,2.4-0.8,3.8-0.8s2.7,0.3,3.8,0.8c1.1,0.5,2.1,1.2,2.9,2.1c0.8,0.9,1.5,1.9,1.9,3c0.4,1.1,0.7,2.4,0.7,3.6
			S424.3,592.7,423.9,593.9z M421.8,587.3c-0.4-0.9-0.9-1.7-1.5-2.4c-0.6-0.7-1.4-1.2-2.3-1.6c-0.9-0.4-1.8-0.6-2.9-0.6
			s-2,0.2-2.9,0.6c-0.9,0.4-1.6,0.9-2.3,1.6c-0.6,0.7-1.1,1.5-1.5,2.4c-0.4,0.9-0.5,1.9-0.5,2.9s0.2,2,0.5,3
			c0.4,0.9,0.9,1.7,1.5,2.4c0.6,0.7,1.4,1.2,2.3,1.6c0.9,0.4,1.8,0.6,2.9,0.6c1,0,2-0.2,2.9-0.6c0.9-0.4,1.6-0.9,2.3-1.6
			c0.6-0.7,1.1-1.5,1.5-2.4s0.5-1.9,0.5-2.9C422.4,589.2,422.2,588.3,421.8,587.3z"/>
		<path class="st6" d="M451.1,583H440v6.5h9.9v1.9H440v8h-2.1v-18.3h13.2V583z"/>
		<path class="st6" d="M466.3,581.1v18.3h-2.1v-18.3H466.3z"/>
		<path class="st6" d="M494.1,581.1h2v18.3h-1.6l-11.8-15v15h-2v-18.3h1.9l11.6,14.7V581.1z"/>
		<path class="st6" d="M523.1,598.9c-1.2,0.5-2.7,0.8-4.2,0.8c-1.4,0-2.7-0.2-3.9-0.7c-1.1-0.5-2.1-1.2-2.9-2
			c-0.8-0.9-1.4-1.9-1.9-3s-0.6-2.4-0.6-3.7c0-1.3,0.2-2.5,0.7-3.6s1.1-2.2,1.9-3c0.8-0.9,1.8-1.6,2.9-2.1c1.1-0.5,2.4-0.8,3.8-0.8
			c0.8,0,1.5,0.1,2.1,0.2c0.6,0.1,1.2,0.3,1.8,0.5c0.5,0.2,1.1,0.5,1.5,0.8s0.9,0.7,1.4,1l-1.3,1.6c-0.3-0.3-0.7-0.6-1.1-0.9
			c-0.4-0.3-0.8-0.5-1.2-0.7s-0.9-0.3-1.5-0.4c-0.5-0.1-1.1-0.2-1.8-0.2c-1,0-1.9,0.2-2.8,0.6s-1.6,0.9-2.2,1.6
			c-0.6,0.7-1.1,1.5-1.4,2.4c-0.3,0.9-0.5,1.9-0.5,2.9c0,1.1,0.2,2.1,0.5,3.1c0.3,0.9,0.8,1.7,1.5,2.4c0.6,0.7,1.4,1.2,2.3,1.6
			c0.9,0.4,1.9,0.6,3,0.6c1,0,2-0.2,3-0.5c0.9-0.4,1.7-0.8,2.3-1.3v-4.6h-5.6v-1.8h7.6v7.3C525.4,597.7,524.3,598.4,523.1,598.9z"/>
		<path class="st6" d="M570.9,597.8c-0.5,0.4-1.1,0.7-1.7,1s-1.2,0.5-1.9,0.7c-0.7,0.2-1.4,0.2-2.3,0.2c-1.3,0-2.5-0.2-3.7-0.7
			c-1.1-0.5-2.1-1.2-2.9-2c-0.8-0.8-1.5-1.8-1.9-3c-0.5-1.2-0.7-2.4-0.7-3.7c0-1.3,0.2-2.5,0.7-3.7c0.5-1.2,1.1-2.2,1.9-3
			c0.8-0.9,1.8-1.5,2.9-2c1.1-0.5,2.4-0.7,3.7-0.7c0.8,0,1.6,0.1,2.3,0.2c0.7,0.1,1.3,0.3,1.9,0.6s1.1,0.6,1.6,0.9
			c0.5,0.4,1,0.8,1.4,1.2l-1.4,1.5c-0.8-0.7-1.6-1.3-2.5-1.8s-2-0.7-3.2-0.7c-1,0-2,0.2-2.8,0.6c-0.9,0.4-1.6,0.9-2.3,1.6
			c-0.6,0.7-1.1,1.5-1.5,2.4c-0.4,0.9-0.5,1.9-0.5,3c0,1.1,0.2,2.1,0.5,3c0.4,0.9,0.9,1.7,1.5,2.4c0.6,0.7,1.4,1.2,2.3,1.6
			c0.9,0.4,1.8,0.6,2.8,0.6c1.3,0,2.3-0.2,3.2-0.7c0.9-0.5,1.8-1.1,2.7-2l1.4,1.3C571.9,597,571.4,597.5,570.9,597.8z"/>
		<path class="st6" d="M601.7,593.9c-0.5,1.1-1.1,2.2-1.9,3c-0.8,0.9-1.8,1.6-3,2.1c-1.2,0.5-2.4,0.8-3.8,0.8
			c-1.4,0-2.7-0.3-3.8-0.8c-1.1-0.5-2.1-1.2-2.9-2.1c-0.8-0.9-1.5-1.9-1.9-3c-0.4-1.1-0.7-2.4-0.7-3.6s0.2-2.5,0.7-3.6
			s1.1-2.2,1.9-3c0.8-0.9,1.8-1.6,3-2.1c1.2-0.5,2.4-0.8,3.8-0.8c1.4,0,2.7,0.3,3.8,0.8c1.1,0.5,2.1,1.2,2.9,2.1
			c0.8,0.9,1.5,1.9,1.9,3c0.4,1.1,0.7,2.4,0.7,3.6S602.1,592.7,601.7,593.9z M599.7,587.3c-0.4-0.9-0.9-1.7-1.5-2.4
			c-0.6-0.7-1.4-1.2-2.3-1.6c-0.9-0.4-1.8-0.6-2.9-0.6s-2,0.2-2.9,0.6c-0.9,0.4-1.6,0.9-2.3,1.6c-0.6,0.7-1.1,1.5-1.5,2.4
			c-0.4,0.9-0.5,1.9-0.5,2.9s0.2,2,0.5,3c0.4,0.9,0.9,1.7,1.5,2.4c0.6,0.7,1.4,1.2,2.3,1.6c0.9,0.4,1.8,0.6,2.9,0.6s2-0.2,2.9-0.6
			c0.9-0.4,1.6-0.9,2.3-1.6c0.6-0.7,1.1-1.5,1.5-2.4c0.4-0.9,0.5-1.9,0.5-2.9C600.2,589.2,600,588.3,599.7,587.3z"/>
		<path class="st6" d="M617.4,586.8c0.1,0.3,0.4,0.7,0.8,1c0.4,0.3,0.9,0.6,1.5,0.8c0.6,0.2,1.5,0.5,2.5,0.7c2,0.5,3.5,1.1,4.5,1.9
			c1,0.8,1.5,1.9,1.5,3.3c0,0.8-0.2,1.5-0.5,2.2c-0.3,0.6-0.7,1.2-1.3,1.7c-0.5,0.5-1.2,0.8-2,1c-0.8,0.2-1.6,0.4-2.5,0.4
			c-1.5,0-2.8-0.2-4-0.7c-1.2-0.5-2.4-1.2-3.5-2.2l1.3-1.5c1,0.9,1.9,1.5,2.9,2c1,0.4,2.1,0.6,3.4,0.6c1.2,0,2.2-0.3,3-0.9
			c0.7-0.6,1.1-1.3,1.1-2.3c0-0.4-0.1-0.8-0.2-1.2c-0.1-0.3-0.4-0.7-0.7-0.9c-0.4-0.3-0.8-0.5-1.5-0.8s-1.4-0.4-2.4-0.7
			c-1-0.2-2-0.5-2.7-0.8c-0.8-0.3-1.4-0.7-1.9-1.1c-0.5-0.4-0.9-0.9-1.1-1.5c-0.2-0.6-0.4-1.2-0.4-2c0-0.7,0.1-1.4,0.4-2
			s0.7-1.1,1.3-1.6c0.5-0.4,1.2-0.8,1.9-1s1.5-0.4,2.4-0.4c1.3,0,2.5,0.2,3.5,0.6s2,0.9,2.9,1.7l-1.2,1.6c-0.9-0.7-1.7-1.2-2.6-1.5
			c-0.9-0.3-1.8-0.5-2.7-0.5c-0.6,0-1.1,0.1-1.6,0.2c-0.5,0.2-0.9,0.4-1.2,0.6c-0.3,0.3-0.6,0.6-0.8,0.9c-0.2,0.4-0.3,0.8-0.3,1.2
			C617.2,586.1,617.3,586.5,617.4,586.8z"/>
		<path class="st6" d="M647.9,599.4h-2.1V583h-6.2v-1.9H654v1.9h-6.2V599.4z"/>
	</g>
	<g>
		<polygon class="st6" points="514.6,447.3 511.1,444.1 534,419.4 559.6,440.8 556.6,444.4 534.4,425.9 		"/>
		
			<linearGradient id="SVGID_1_" gradientUnits="userSpaceOnUse" x1="495.425" y1="570.9425" x2="534.235" y2="570.9425" gradientTransform="matrix(1 0 0 -1 0 1002)">
			<stop  offset="0" style="stop-color:#4E73D1"/>
			<stop  offset="1" style="stop-color:#269BD6"/>
		</linearGradient>
		<polygon class="st7" points="534.2,419.5 495.4,427.4 512.9,442.6 		"/>
		
			<linearGradient id="SVGID_2_" gradientUnits="userSpaceOnUse" x1="586.165" y1="547.8575" x2="512.215" y2="547.8575" gradientTransform="matrix(1 0 0 -1 0 1002)">
			<stop  offset="0" style="stop-color:#4E73D1"/>
			<stop  offset="1" style="stop-color:#269BD6"/>
		</linearGradient>
		<polygon class="st8" points="512.2,446.3 586.2,435.3 545.6,473 		"/>
		
			<linearGradient id="SVGID_3_" gradientUnits="userSpaceOnUse" x1="426.715" y1="556.7725" x2="545.775" y2="556.7725" gradientTransform="matrix(1 0 0 -1 0 1002)">
			<stop  offset="0" style="stop-color:#4E73D1"/>
			<stop  offset="0.3209" style="stop-color:#467BD2"/>
			<stop  offset="0.8232" style="stop-color:#3091D5"/>
			<stop  offset="1" style="stop-color:#269BD6"/>
		</linearGradient>
		<polygon class="st9" points="426.7,417.4 497,427.9 545.8,473 486.2,473 		"/>
		<polygon class="st6" points="656.3,478.5 624,478.5 586.1,441.7 546.7,477.5 485.3,477.5 426.7,423.8 369.2,478.5 345.7,478.5 
			345.7,473.8 367.3,473.8 426.7,417.4 487.2,472.8 544.9,472.8 586.2,435.2 625.9,473.8 656.3,473.8 		"/>
		<g>
			<path class="st6" d="M425.9,453.9v-8.8c-4.4,0.2-7.9,3.8-7.9,8.3v0.5H425.9z"/>
			<path class="st6" d="M426.7,453.9h7.9v-0.5c0-4.5-3.5-8.1-7.9-8.3V453.9z"/>
			<rect x="418" y="454.7" class="st6" width="7.9" height="7"/>
			<rect x="426.7" y="454.7" class="st6" width="7.9" height="7"/>
		</g>
		<g>
			<path class="st6" d="M585.9,458.9v-6.4c-3.2,0.1-5.8,2.8-5.8,6.1v0.4L585.9,458.9L585.9,458.9z"/>
			<path class="st6" d="M586.4,458.9h5.8v-0.4c0-3.3-2.6-5.9-5.8-6.1V458.9z"/>
			<rect x="580.1" y="459.5" class="st6" width="5.8" height="5.2"/>
			<rect x="586.4" y="459.5" class="st6" width="5.8" height="5.2"/>
		</g>
		<g>
			<path class="st6" d="M534.6,433.8v-3.4c-1.7,0.1-3,1.5-3,3.2v0.2L534.6,433.8L534.6,433.8z"/>
			<path class="st6" d="M534.9,433.8h3v-0.2c0-1.7-1.3-3.1-3-3.2V433.8z"/>
			<rect x="531.6" y="434.1" class="st6" width="3" height="2.7"/>
			<rect x="534.9" y="434.1" class="st6" width="3" height="2.7"/>
		</g>
		<polygon class="st10" points="371.4,478.5 425.9,425.6 375,478.5 		"/>
		<polygon class="st10" points="483.2,477.6 427.5,426.2 479.6,477.7 		"/>
		<polygon class="st10" points="549.2,477.6 585.9,442.6 551.4,477.6 		"/>
		<polygon class="st10" points="621.5,478.4 586,442.5 619.2,478.3 		"/>
	</g>
</g>
</svg>
