<?xml version="1.0" encoding="utf-8"?>
<!-- Generator: Adobe Illustrator 24.3.0, SVG Export Plug-In . SVG Version: 6.00 Build 0)  -->
<svg version="1.1" id="Layer_1" xmlns="http://www.w3.org/2000/svg" xmlns:xlink="http://www.w3.org/1999/xlink" x="0px" y="0px"
	 viewBox="0 0 1000 1000" style="enable-background:new 0 0 1000 1000;" xml:space="preserve">
<style type="text/css">
	.st0{fill:#5D6F7A;}
	.st1{fill:#FFFFFF;}
	.st2{fill:#F7901E;}
	.st3{enable-background:new    ;}
	.st4{fill:#28373E;}
	.st5{fill:url(#SVGID_1_);}
	.st6{fill:url(#SVGID_2_);}
	.st7{fill:url(#SVGID_3_);}
	.st8{fill:#5A6163;}
</style>
<g>
	<g>
		<path class="st0" d="M119.3,64.6C225.8,38.9,550-24,881.6,64.1c20.9,5.6,35.5,24.5,35.5,46.1v822.4c0,30.5-28.3,53.2-58.1,46.4
			c-115.8-26.6-392.6-72-718.3,1c-29.7,6.7-57.9-16-57.9-46.4V110.9C82.9,88.9,97.9,69.8,119.3,64.6z"/>
		<path class="st0" d="M130.3,993.8c-13.5,0-26.6-4.6-37.4-13.2c-14.3-11.5-22.5-28.6-22.5-46.9V110.9c0-27.9,18.9-51.9,46-58.5v0
			c52.7-12.7,161.7-35.2,298.9-43.2C583.1-0.6,741,13.8,884.8,52c26.4,7,44.8,30.9,44.8,58.2v822.4c0,18.4-8.3,35.6-22.7,47.1
			c-14.4,11.4-32.8,15.6-50.7,11.5c-105.3-24.1-385.4-72.4-712.7,1.1C139.1,993.3,134.7,993.8,130.3,993.8z M516.3,31.6
			c-185.6,0-335.9,31.1-394.1,45.1l0,0c-15.8,3.8-26.9,17.8-26.9,34.1v822.8c0,10.7,4.8,20.7,13.1,27.3c8.3,6.7,19.1,9.2,29.5,6.8
			c142.7-32,291.1-44.9,441.1-38.2c123.9,5.5,222.1,23.3,282.7,37.1c10.4,2.4,21.1-0.1,29.5-6.7c8.4-6.7,13.2-16.7,13.2-27.5V110.2
			c0-15.9-10.8-29.9-26.2-34C753.2,43,628.3,31.6,516.3,31.6z"/>
	</g>
	<path class="st1" d="M39,358.7c110.2-13.7,537.7-59.6,922.7-0.4c13.1,2,21.3,15.3,17.3,28l-38.2,123.2L978,643.7
		c4.1,14.7-7.8,28.9-22.9,27.4c-115.2-11-527.3-44.3-900.7-0.7c-15.3,1.8-27.6-12.3-23.6-27.1l35.6-133.7L21.4,387.8
		C16.5,374.7,25.1,360.5,39,358.7z"/>
	<path class="st2" d="M39,383.8c110.2-13.7,537.7-59.6,922.7-0.4c13.1,2,21.3,15.3,17.3,28l-38.2,123.2L978,668.7
		c4.1,14.7-7.8,28.9-22.9,27.4c-115.2-11-527.3-44.3-900.7-0.7c-15.3,1.8-27.6-12.3-23.6-27.1l35.6-133.7L21.4,412.9
		C16.5,399.7,25.1,385.5,39,383.8z"/>
	<g>
		<path class="st1" d="M211,142.4l13.2,26.8l29.5,4.3c4.6,0.7,6.5,6.4,3.1,9.6l-21.4,20.8l5,29.4c0.8,4.6-4.1,8.1-8.2,6l-26.4-13.9
			l-26.4,13.9c-4.1,2.2-9-1.3-8.2-6l5-29.4L155,183c-3.4-3.3-1.5-9,3.1-9.6l29.5-4.3l13.2-26.8C202.9,138.2,208.9,138.2,211,142.4z"
			/>
		<path class="st1" d="M799.1,142.4l13.2,26.8l29.5,4.3c4.6,0.7,6.5,6.4,3.1,9.6l-21.4,20.8l5,29.4c0.8,4.6-4.1,8.1-8.2,6
			l-26.4-13.9l-26.4,13.9c-4.2,2.2-9-1.3-8.2-6l5-29.4l-21.4-20.8c-3.4-3.3-1.5-9,3.1-9.6l29.5-4.3l13.2-26.8
			C791.1,138.2,797.1,138.2,799.1,142.4z"/>
		<g class="st3">
			<path class="st1" d="M377.4,151h-62v34.7h55.5v10.5h-55.5v35.6h62.7v10.5h-74.2V140.5h73.5V151z"/>
			<path class="st1" d="M401.2,140.5h11.5v91.1h57.2v10.6h-68.7V140.5z"/>
			<path class="st1" d="M503.6,140.5v101.7h-11.5V140.5H503.6z"/>
			<path class="st1" d="M571.7,242.2h-11.5v-91.1h-34.1v-10.6h79.7v10.6h-34.1V242.2z"/>
			<path class="st1" d="M701,151h-62v34.7h55.5v10.5H639v35.6h62.7v10.5h-74.2V140.5H701V151z"/>
		</g>
	</g>
	<g class="st3">
		<path class="st1" d="M205.9,555.9c-2.2,4.7-5.2,8.6-9.1,11.8c-3.9,3.2-8.6,5.6-14,7.3c-5.4,1.7-11.4,2.5-18,2.5
			c-9.3,0-18.4-1.6-27.3-4.8c-8.9-3.2-17-8.1-24.3-14.7l15.8-18.9c5.6,4.5,11.3,8.1,17.1,10.8c5.8,2.7,12.2,4,19.2,4
			c5.6,0,9.9-1,12.9-3c3.1-2,4.6-4.8,4.6-8.4v-0.3c0-1.7-0.3-3.3-1-4.6c-0.6-1.3-1.9-2.6-3.7-3.7c-1.8-1.2-4.3-2.3-7.5-3.5
			c-3.2-1.2-7.3-2.4-12.5-3.6c-6.2-1.5-11.7-3.2-16.7-5c-5-1.9-9.2-4.1-12.7-6.9c-3.5-2.7-6.2-6.1-8.1-10.2
			c-1.9-4.1-2.9-9.1-2.9-15.1v-0.3c0-5.6,1-10.6,3.1-15c2.1-4.5,5-8.3,8.7-11.6c3.7-3.2,8.2-5.7,13.4-7.5c5.2-1.7,10.9-2.6,17.2-2.6
			c8.9,0,17.1,1.3,24.6,4c7.5,2.7,14.3,6.5,20.6,11.5L191.5,488c-5.4-3.7-10.8-6.6-16-8.8c-5.2-2.1-10.4-3.2-15.6-3.2
			c-5.2,0-9.1,1-11.7,3c-2.6,2-3.9,4.5-3.9,7.6v0.3c0,2,0.4,3.7,1.1,5.1c0.8,1.5,2.1,2.8,4.1,3.9c2,1.2,4.7,2.3,8.1,3.3
			c3.4,1,7.8,2.3,13,3.6c6.2,1.6,11.6,3.4,16.5,5.5c4.8,2,8.9,4.5,12.2,7.3c3.3,2.8,5.8,6.2,7.5,10c1.7,3.8,2.5,8.4,2.5,13.7v0.3
			C209.2,545.8,208.1,551.2,205.9,555.9z"/>
		<path class="st1" d="M232.5,575.8V454.1h91.6V478h-65.2v24.7h57.3v23.8h-57.3V552h66v23.8H232.5z"/>
		<path class="st1" d="M422.8,575.8l-26.1-38.9h-21v38.9h-26.8V454.1h55.6c14.5,0,25.7,3.5,33.8,10.6c8,7.1,12.1,16.9,12.1,29.5v0.3
			c0,9.8-2.4,17.9-7.2,24.1c-4.8,6.2-11.1,10.7-18.9,13.6l29.7,43.4H422.8z M423.3,495.7c0-5.8-1.9-10.1-5.6-13
			c-3.7-2.9-8.9-4.3-15.5-4.3h-26.6v34.9h27.1c6.6,0,11.7-1.6,15.2-4.7c3.5-3.1,5.3-7.3,5.3-12.5V495.7z"/>
		<path class="st1" d="M536.9,576.7h-23.6l-49.2-122.5h29.5l31.8,85.7l31.8-85.7h28.8L536.9,576.7z"/>
		<path class="st1" d="M606.1,575.8V454.1h26.8v121.6H606.1z"/>
		<path class="st1" d="M760.4,565.2c-3.4,2.7-7,5-11,6.9c-4,1.9-8.4,3.4-13.1,4.3c-4.8,1-10.1,1.5-16,1.5c-8.9,0-17.2-1.6-24.8-4.9
			c-7.6-3.2-14.2-7.7-19.8-13.3c-5.6-5.6-9.9-12.2-13-19.9c-3.1-7.6-4.7-15.8-4.7-24.5V515c0-8.7,1.6-16.8,4.7-24.4
			c3.1-7.6,7.5-14.2,13-20c5.6-5.7,12.2-10.3,20-13.6c7.8-3.3,16.3-5,25.7-5c5.7,0,10.9,0.5,15.6,1.4c4.7,0.9,8.9,2.2,12.8,3.8
			c3.8,1.6,7.4,3.6,10.6,5.9c3.2,2.3,6.3,4.9,9,7.6l-17,19.6c-4.8-4.3-9.6-7.6-14.5-10.1c-4.9-2.4-10.5-3.6-16.6-3.6
			c-5.1,0-9.8,1-14.2,3c-4.3,2-8.1,4.7-11.2,8.2c-3.1,3.5-5.6,7.5-7.3,12.1c-1.7,4.6-2.6,9.5-2.6,14.7v0.3c0,5.2,0.9,10.1,2.6,14.8
			c1.7,4.6,4.1,8.7,7.2,12.2c3.1,3.5,6.8,6.2,11.1,8.3c4.3,2,9.1,3,14.3,3c7,0,12.8-1.3,17.6-3.8c4.8-2.5,9.6-6,14.3-10.4l17,17.2
			C767,559.5,763.7,562.5,760.4,565.2z"/>
		<path class="st1" d="M791.5,575.8V454.1h91.6V478h-65.2v24.7h57.3v23.8h-57.3V552h66v23.8H791.5z"/>
	</g>
	<path class="st1" d="M115.5,688.3c0,0,423.9-68.1,768.2,0V916c0,23.8-22.5,41-45.5,34.8c-104.5-28.3-376.1-83.8-677.3,0.1
		c-22.9,6.4-45.4-11-45.4-34.8L115.5,688.3L115.5,688.3z"/>
	<g class="st3">
		<path class="st4" d="M322.4,770.9v-18.2H344v18.2H322.4z M323,851.1v-72.2h20.5v72.2H323z"/>
		<path class="st4" d="M414.9,851.1v-10.3c-2.5,3.4-5.5,6.2-9.1,8.4c-3.6,2.2-8,3.3-13.4,3.3c-4.2,0-8.3-0.8-12.3-2.4
			c-4-1.6-7.5-4-10.5-7.2c-3.1-3.2-5.5-7.1-7.3-11.7c-1.8-4.6-2.8-10-2.8-16v-0.3c0-6,0.9-11.3,2.8-16c1.8-4.6,4.3-8.5,7.3-11.7
			c3-3.2,6.5-5.6,10.4-7.2c4-1.6,8.1-2.4,12.4-2.4c5.5,0,10,1.1,13.5,3.2c3.5,2.1,6.5,4.6,9,7.5v-35.5h20.5v98.4H414.9z
			 M415.1,814.8c0-3-0.5-5.7-1.4-8.2c-0.9-2.5-2.2-4.6-3.8-6.4c-1.6-1.8-3.4-3.1-5.5-4.1c-2.1-0.9-4.4-1.4-6.8-1.4s-4.7,0.5-6.8,1.4
			c-2.1,1-4,2.3-5.6,4.1c-1.6,1.8-2.9,3.9-3.8,6.3s-1.4,5.2-1.4,8.3v0.3c0,3,0.5,5.7,1.4,8.2c0.9,2.5,2.2,4.6,3.8,6.4
			c1.6,1.8,3.5,3.1,5.6,4.1c2.1,0.9,4.4,1.4,6.8,1.4s4.7-0.5,6.8-1.4c2.1-1,4-2.3,5.5-4.1c1.6-1.8,2.8-3.9,3.8-6.4
			c0.9-2.5,1.4-5.2,1.4-8.2V814.8z"/>
		<path class="st4" d="M496,851.1v-7.8c-2.5,2.8-5.5,5-9,6.7s-7.8,2.5-12.8,2.5c-3.4,0-6.6-0.5-9.6-1.4c-3-0.9-5.6-2.4-7.9-4.2
			c-2.2-1.9-4-4.2-5.3-6.9c-1.3-2.7-2-5.9-2-9.5v-0.3c0-4,0.7-7.4,2.2-10.2c1.4-2.9,3.4-5.3,6-7.1c2.6-1.9,5.6-3.3,9.2-4.2
			c3.5-0.9,7.5-1.4,11.8-1.4c3.7,0,6.9,0.3,9.6,0.8c2.7,0.5,5.4,1.3,8,2.2v-1.2c0-4.3-1.3-7.6-3.9-9.8c-2.6-2.2-6.5-3.4-11.6-3.4
			c-4,0-7.4,0.3-10.4,1c-3,0.7-6.2,1.6-9.5,2.9l-5.1-15.6c4-1.7,8.1-3.1,12.4-4.2s9.5-1.6,15.6-1.6c11.2,0,19.4,2.7,24.5,8.2
			c5.1,5.5,7.7,13.1,7.7,22.9v41.9H496z M496.4,822c-1.8-0.8-3.8-1.5-6-2c-2.2-0.5-4.6-0.7-7.1-0.7c-4.4,0-7.9,0.9-10.4,2.6
			c-2.5,1.7-3.8,4.2-3.8,7.4v0.3c0,2.8,1,4.9,3.1,6.5c2.1,1.5,4.8,2.3,8.1,2.3c4.9,0,8.7-1.2,11.7-3.5c2.9-2.3,4.4-5.4,4.4-9.2V822z
			"/>
		<path class="st4" d="M579.2,851.1v-40.2c0-4.8-1.1-8.5-3.2-11c-2.2-2.5-5.2-3.7-9.2-3.7c-4,0-7.1,1.2-9.4,3.7s-3.4,6.1-3.4,11
			v40.2h-20.5v-98.4H554v36.5c1.2-1.5,2.4-3,3.8-4.4c1.4-1.4,2.9-2.6,4.6-3.7c1.7-1.1,3.6-1.9,5.7-2.6c2.1-0.6,4.4-1,7-1
			c7.8,0,13.9,2.4,18.1,7.1c4.3,4.8,6.4,11.3,6.4,19.7v46.8H579.2z"/>
		<path class="st4" d="M689.1,829.7c-2,4.5-4.7,8.5-8.2,11.9c-3.5,3.4-7.6,6.1-12.4,8.1c-4.8,2-10,3-15.6,3c-5.6,0-10.7-1-15.5-2.9
			c-4.8-1.9-8.9-4.6-12.3-8c-3.5-3.4-6.2-7.3-8.2-11.9c-2-4.5-3-9.4-3-14.6v-0.3c0-5.2,1-10.1,3-14.6c2-4.5,4.7-8.5,8.2-11.9
			c3.5-3.4,7.6-6.1,12.4-8.1c4.8-2,10-3,15.6-3c5.6,0,10.7,1,15.5,2.9c4.8,1.9,8.9,4.6,12.3,8c3.5,3.4,6.2,7.3,8.2,11.9
			c2,4.5,3,9.4,3,14.6v0.3C692.1,820.3,691.1,825.2,689.1,829.7z M671.9,815.1c0-2.7-0.5-5.2-1.3-7.6c-0.9-2.4-2.2-4.5-3.9-6.3
			c-1.7-1.8-3.7-3.3-6.1-4.4c-2.3-1.1-4.9-1.6-7.7-1.6c-3,0-5.6,0.5-7.9,1.5c-2.3,1-4.2,2.4-5.9,4.2c-1.6,1.8-2.9,3.9-3.7,6.3
			c-0.9,2.4-1.3,4.9-1.3,7.6v0.3c0,2.7,0.4,5.2,1.3,7.6c0.9,2.4,2.2,4.5,3.9,6.3c1.7,1.8,3.7,3.3,6,4.4s4.9,1.6,7.7,1.6
			c3,0,5.6-0.5,7.9-1.5c2.3-1,4.2-2.4,5.9-4.2c1.6-1.8,2.9-3.9,3.7-6.3c0.9-2.4,1.3-4.9,1.3-7.6V815.1z"/>
	</g>
	<g class="st3">
		<path class="st4" d="M338.3,886.8l-6.3-8.4h-6.2v8.4h-2.5V865h9.3c1.2,0,2.3,0.2,3.2,0.5s1.8,0.8,2.5,1.3c0.7,0.6,1.2,1.3,1.6,2.1
			c0.4,0.8,0.6,1.7,0.6,2.7c0,0.9-0.1,1.7-0.4,2.4c-0.3,0.7-0.7,1.3-1.2,1.9c-0.5,0.5-1.2,1-1.9,1.3c-0.7,0.4-1.5,0.6-2.4,0.7
			l6.7,8.9H338.3z M336.6,868.5c-1-0.8-2.3-1.1-4.1-1.1h-6.7v8.9h6.7c0.8,0,1.6-0.1,2.2-0.3c0.7-0.2,1.3-0.5,1.8-0.9
			c0.5-0.4,0.9-0.9,1.2-1.4c0.3-0.6,0.4-1.2,0.4-1.9C338.1,870.3,337.6,869.2,336.6,868.5z"/>
		<path class="st4" d="M376.2,880.2c-0.5,1.4-1.3,2.6-2.3,3.6c-1,1-2.1,1.9-3.5,2.5c-1.4,0.6-2.9,0.9-4.5,0.9
			c-1.7,0-3.2-0.3-4.5-0.9c-1.4-0.6-2.5-1.4-3.5-2.4c-1-1-1.7-2.2-2.3-3.6c-0.5-1.4-0.8-2.8-0.8-4.3c0-1.5,0.3-2.9,0.8-4.3
			c0.5-1.4,1.3-2.6,2.3-3.6s2.1-1.9,3.5-2.5c1.4-0.6,2.9-0.9,4.5-0.9s3.2,0.3,4.5,0.9c1.4,0.6,2.5,1.4,3.5,2.4c1,1,1.7,2.2,2.3,3.6
			c0.5,1.4,0.8,2.8,0.8,4.3S376.7,878.8,376.2,880.2z M373.8,872.4c-0.4-1.1-1-2-1.8-2.9s-1.7-1.4-2.7-1.9c-1-0.5-2.2-0.7-3.4-0.7
			c-1.2,0-2.4,0.2-3.4,0.7c-1,0.5-1.9,1.1-2.7,1.9c-0.7,0.8-1.3,1.8-1.8,2.8c-0.4,1.1-0.6,2.3-0.6,3.5s0.2,2.4,0.6,3.5
			c0.4,1.1,1,2,1.8,2.9c0.8,0.8,1.7,1.5,2.7,1.9c1,0.5,2.2,0.7,3.4,0.7c1.2,0,2.4-0.2,3.4-0.7c1-0.5,1.9-1.1,2.7-1.9
			s1.3-1.8,1.8-2.8c0.4-1.1,0.6-2.3,0.6-3.5C374.5,874.7,374.2,873.5,373.8,872.4z"/>
		<path class="st4" d="M412.6,880.2c-0.5,1.4-1.3,2.6-2.3,3.6c-1,1-2.1,1.9-3.5,2.5c-1.4,0.6-2.9,0.9-4.5,0.9
			c-1.7,0-3.2-0.3-4.5-0.9c-1.4-0.6-2.5-1.4-3.5-2.4c-1-1-1.7-2.2-2.3-3.6c-0.5-1.4-0.8-2.8-0.8-4.3c0-1.5,0.3-2.9,0.8-4.3
			c0.5-1.4,1.3-2.6,2.3-3.6s2.1-1.9,3.5-2.5c1.4-0.6,2.9-0.9,4.5-0.9s3.2,0.3,4.5,0.9c1.4,0.6,2.5,1.4,3.5,2.4c1,1,1.7,2.2,2.3,3.6
			c0.5,1.4,0.8,2.8,0.8,4.3S413.1,878.8,412.6,880.2z M410.2,872.4c-0.4-1.1-1-2-1.8-2.9s-1.7-1.4-2.7-1.9c-1-0.5-2.2-0.7-3.4-0.7
			c-1.2,0-2.4,0.2-3.4,0.7c-1,0.5-1.9,1.1-2.7,1.9c-0.7,0.8-1.3,1.8-1.8,2.8c-0.4,1.1-0.6,2.3-0.6,3.5s0.2,2.4,0.6,3.5
			c0.4,1.1,1,2,1.8,2.9c0.8,0.8,1.7,1.5,2.7,1.9c1,0.5,2.2,0.7,3.4,0.7c1.2,0,2.4-0.2,3.4-0.7c1-0.5,1.9-1.1,2.7-1.9
			s1.3-1.8,1.8-2.8c0.4-1.1,0.6-2.3,0.6-3.5C410.8,874.7,410.6,873.5,410.2,872.4z"/>
		<path class="st4" d="M444.2,867.3H431v7.8h11.8v2.2H431v9.5h-2.5V865h15.6V867.3z"/>
		<path class="st4" d="M461.5,865v21.7h-2.5V865H461.5z"/>
		<path class="st4" d="M493.9,865h2.4v21.7h-2l-14-17.8v17.8h-2.4V865h2.3l13.7,17.4V865z"/>
		<path class="st4" d="M527.5,886.2c-1.5,0.7-3.1,1-5,1c-1.7,0-3.3-0.3-4.6-0.9s-2.5-1.4-3.5-2.4s-1.7-2.2-2.2-3.6
			c-0.5-1.4-0.8-2.8-0.8-4.4c0-1.5,0.3-2.9,0.8-4.3c0.5-1.4,1.3-2.6,2.2-3.6c1-1,2.1-1.9,3.4-2.5c1.3-0.6,2.8-0.9,4.5-0.9
			c0.9,0,1.7,0.1,2.5,0.2c0.8,0.1,1.5,0.3,2.1,0.6s1.3,0.6,1.8,0.9c0.6,0.4,1.1,0.8,1.7,1.2l-1.6,1.9c-0.4-0.4-0.8-0.7-1.3-1
			c-0.5-0.3-0.9-0.6-1.5-0.8c-0.5-0.2-1.1-0.4-1.7-0.5c-0.6-0.1-1.3-0.2-2.1-0.2c-1.2,0-2.3,0.2-3.3,0.7c-1,0.5-1.9,1.1-2.6,1.9
			c-0.7,0.8-1.3,1.8-1.7,2.8c-0.4,1.1-0.6,2.2-0.6,3.5c0,1.3,0.2,2.5,0.6,3.6c0.4,1.1,1,2.1,1.7,2.9c0.7,0.8,1.6,1.4,2.7,1.9
			c1.1,0.5,2.2,0.7,3.6,0.7c1.2,0,2.4-0.2,3.5-0.6c1.1-0.4,2-0.9,2.8-1.5v-5.4h-6.6v-2.2h9v8.6C530.2,884.8,529,885.5,527.5,886.2z"
			/>
		<path class="st4" d="M582.9,884.9c-0.6,0.5-1.3,0.9-2,1.2c-0.7,0.3-1.5,0.6-2.3,0.8c-0.8,0.2-1.7,0.3-2.7,0.3
			c-1.6,0-3-0.3-4.3-0.9s-2.5-1.4-3.4-2.4c-1-1-1.7-2.2-2.3-3.6c-0.5-1.4-0.8-2.8-0.8-4.4c0-1.6,0.3-3,0.8-4.4
			c0.5-1.4,1.3-2.6,2.3-3.6s2.1-1.8,3.5-2.4c1.3-0.6,2.8-0.9,4.4-0.9c1,0,1.9,0.1,2.7,0.2c0.8,0.2,1.5,0.4,2.2,0.7
			c0.7,0.3,1.3,0.7,1.9,1.1c0.6,0.4,1.1,0.9,1.7,1.4l-1.7,1.8c-0.9-0.9-1.9-1.6-3-2.1c-1.1-0.6-2.3-0.8-3.8-0.8
			c-1.2,0-2.3,0.2-3.3,0.7c-1,0.5-1.9,1.1-2.7,1.9c-0.8,0.8-1.3,1.8-1.8,2.8c-0.4,1.1-0.6,2.3-0.6,3.5s0.2,2.4,0.6,3.5
			c0.4,1.1,1,2,1.8,2.9c0.8,0.8,1.6,1.4,2.7,1.9c1,0.5,2.1,0.7,3.3,0.7c1.5,0,2.8-0.3,3.9-0.8c1.1-0.5,2.1-1.3,3.2-2.3l1.6,1.6
			C584.1,883.9,583.5,884.4,582.9,884.9z"/>
		<path class="st4" d="M618.7,880.2c-0.5,1.4-1.3,2.6-2.3,3.6c-1,1-2.1,1.9-3.5,2.5c-1.4,0.6-2.9,0.9-4.5,0.9
			c-1.7,0-3.2-0.3-4.5-0.9c-1.4-0.6-2.5-1.4-3.5-2.4c-1-1-1.7-2.2-2.3-3.6c-0.5-1.4-0.8-2.8-0.8-4.3c0-1.5,0.3-2.9,0.8-4.3
			c0.5-1.4,1.3-2.6,2.3-3.6c1-1,2.1-1.9,3.5-2.5c1.4-0.6,2.9-0.9,4.5-0.9c1.7,0,3.2,0.3,4.5,0.9s2.5,1.4,3.5,2.4
			c1,1,1.7,2.2,2.3,3.6c0.5,1.4,0.8,2.8,0.8,4.3S619.2,878.8,618.7,880.2z M616.3,872.4c-0.4-1.1-1-2-1.8-2.9
			c-0.8-0.8-1.7-1.4-2.7-1.9c-1-0.5-2.2-0.7-3.4-0.7s-2.4,0.2-3.4,0.7s-1.9,1.1-2.7,1.9s-1.3,1.8-1.8,2.8c-0.4,1.1-0.6,2.3-0.6,3.5
			s0.2,2.4,0.6,3.5c0.4,1.1,1,2,1.8,2.9c0.8,0.8,1.7,1.5,2.7,1.9c1,0.5,2.2,0.7,3.4,0.7c1.2,0,2.4-0.2,3.4-0.7s1.9-1.1,2.7-1.9
			c0.7-0.8,1.3-1.8,1.8-2.8c0.4-1.1,0.6-2.3,0.6-3.5C616.9,874.7,616.7,873.5,616.3,872.4z"/>
		<path class="st4" d="M636.6,871.9c0.2,0.4,0.5,0.8,0.9,1.1s1,0.7,1.8,0.9c0.8,0.3,1.8,0.5,3,0.8c2.4,0.5,4.2,1.3,5.4,2.2
			s1.7,2.3,1.7,4c0,0.9-0.2,1.8-0.6,2.6s-0.9,1.4-1.5,2s-1.4,1-2.3,1.2s-1.9,0.4-3,0.4c-1.7,0-3.3-0.3-4.8-0.8
			c-1.4-0.6-2.8-1.4-4.1-2.6l1.5-1.8c1.1,1,2.3,1.8,3.4,2.3c1.2,0.5,2.5,0.8,4,0.8c1.5,0,2.6-0.3,3.5-1c0.9-0.7,1.3-1.6,1.3-2.7
			c0-0.5-0.1-1-0.2-1.4c-0.2-0.4-0.5-0.8-0.9-1.1c-0.4-0.3-1-0.6-1.7-0.9c-0.7-0.3-1.7-0.5-2.8-0.8c-1.2-0.3-2.3-0.6-3.3-0.9
			s-1.7-0.8-2.3-1.3c-0.6-0.5-1-1.1-1.3-1.7c-0.3-0.7-0.4-1.5-0.4-2.4c0-0.9,0.2-1.7,0.5-2.4s0.8-1.4,1.5-1.9
			c0.6-0.5,1.4-0.9,2.3-1.2c0.9-0.3,1.8-0.5,2.9-0.5c1.6,0,3,0.2,4.2,0.7c1.2,0.4,2.3,1.1,3.5,2l-1.4,1.9c-1-0.8-2-1.4-3.1-1.8
			c-1-0.4-2.1-0.6-3.2-0.6c-0.7,0-1.3,0.1-1.9,0.3c-0.6,0.2-1.1,0.4-1.5,0.7c-0.4,0.3-0.7,0.7-0.9,1.1c-0.2,0.4-0.3,0.9-0.3,1.4
			C636.4,871,636.5,871.4,636.6,871.9z"/>
		<path class="st4" d="M672.1,886.8h-2.5v-19.5h-7.3V865h17.1v2.3h-7.3V886.8z"/>
	</g>
	<g>
		<polygon class="st4" points="521.5,706.4 517.4,702.6 544.6,673.3 574.9,698.6 571.4,702.9 545.1,681 		"/>
		
			<linearGradient id="SVGID_1_" gradientUnits="userSpaceOnUse" x1="498.8083" y1="314.8786" x2="544.8383" y2="314.8786" gradientTransform="matrix(1 0 0 -1 0 1002)">
			<stop  offset="0" style="stop-color:#4E73D1"/>
			<stop  offset="1" style="stop-color:#269BD6"/>
		</linearGradient>
		<polygon class="st5" points="544.8,673.4 498.8,682.8 519.5,700.8 		"/>
		
			<linearGradient id="SVGID_2_" gradientUnits="userSpaceOnUse" x1="606.4183" y1="287.5036" x2="518.7183" y2="287.5036" gradientTransform="matrix(1 0 0 -1 0 1002)">
			<stop  offset="0" style="stop-color:#4E73D1"/>
			<stop  offset="1" style="stop-color:#269BD6"/>
		</linearGradient>
		<polygon class="st6" points="518.7,705.2 606.4,692.1 558.4,736.9 		"/>
		
			<linearGradient id="SVGID_3_" gradientUnits="userSpaceOnUse" x1="417.3283" y1="298.0786" x2="558.5183" y2="298.0786" gradientTransform="matrix(1 0 0 -1 0 1002)">
			<stop  offset="0" style="stop-color:#4E73D1"/>
			<stop  offset="0.3209" style="stop-color:#467BD2"/>
			<stop  offset="0.8232" style="stop-color:#3091D5"/>
			<stop  offset="1" style="stop-color:#269BD6"/>
		</linearGradient>
		<polygon class="st7" points="417.3,671 500.7,683.4 558.5,736.9 487.9,736.9 		"/>
		<polygon class="st4" points="689.6,743.4 651.3,743.4 606.3,699.7 559.6,742.2 486.8,742.2 417.4,678.5 349.1,743.4 321.3,743.4 
			321.3,737.8 346.9,737.8 417.3,670.9 489,736.6 557.4,736.6 606.5,692 653.6,737.8 689.6,737.8 		"/>
		<g>
			<path class="st4" d="M416.4,714.3v-10.4c-5.2,0.2-9.4,4.5-9.4,9.8v0.6H416.4z"/>
			<path class="st4" d="M417.3,714.3h9.4v-0.6c0-5.3-4.2-9.6-9.4-9.8V714.3z"/>
			<rect x="407" y="715.1" class="st4" width="9.4" height="8.3"/>
			<rect x="417.3" y="715.1" class="st4" width="9.4" height="8.3"/>
		</g>
		<g>
			<path class="st4" d="M606.1,720.2v-7.6c-3.8,0.2-6.9,3.3-6.9,7.2v0.4H606.1z"/>
			<path class="st4" d="M606.7,720.2h6.9v-0.4c0-3.9-3-7-6.9-7.2V720.2z"/>
			<rect x="599.2" y="720.8" class="st4" width="6.9" height="6.1"/>
			<rect x="606.7" y="720.8" class="st4" width="6.9" height="6.1"/>
		</g>
		<g>
			<path class="st4" d="M545.3,690.4v-4c-2,0.1-3.6,1.7-3.6,3.8v0.2H545.3z"/>
			<path class="st4" d="M545.6,690.4h3.6v-0.2c0-2-1.6-3.7-3.6-3.8V690.4z"/>
			<rect x="541.7" y="690.8" class="st4" width="3.6" height="3.2"/>
			<rect x="545.6" y="690.8" class="st4" width="3.6" height="3.2"/>
		</g>
		<polygon class="st8" points="351.7,743.4 416.4,680.6 356,743.4 		"/>
		<polygon class="st8" points="484.3,742.3 418.2,681.4 480,742.4 		"/>
		<polygon class="st8" points="562.6,742.3 606.1,700.8 565.2,742.3 		"/>
		<polygon class="st8" points="648.3,743.2 606.2,700.7 645.6,743.2 		"/>
	</g>
</g>
</svg>
