<?xml version="1.0" encoding="utf-8"?>
<!-- Generator: Adobe Illustrator 24.3.0, SVG Export Plug-In . SVG Version: 6.00 Build 0)  -->
<svg version="1.1" id="Layer_1" xmlns="http://www.w3.org/2000/svg" xmlns:xlink="http://www.w3.org/1999/xlink" x="0px" y="0px"
	 viewBox="0 0 1000 1000" style="enable-background:new 0 0 1000 1000;" xml:space="preserve">
<style type="text/css">
	.st0{fill:#8C9EA9;}
	.st1{fill:#5D6F7A;}
	.st2{fill:#F7901E;}
	.st3{enable-background:new    ;}
	.st4{fill:#FFFFFF;}
	.st5{fill:#28373E;}
	.st6{fill:url(#SVGID_1_);}
	.st7{fill:url(#SVGID_2_);}
	.st8{fill:url(#SVGID_3_);}
	.st9{fill:#5A6163;}
	.st10{font-family:'Gotham-Medium';}
	.st11{font-size:79.5173px;}
	.st12{font-size:93.1202px;}
	.st13{fill:none;stroke:#FFFFFF;stroke-width:21.4893;stroke-linecap:round;stroke-miterlimit:10;}
</style>
<g>
	<path class="st0" d="M872,985.4H127.9c-25.3,0-45.8-20.5-45.8-45.8V711.1h835.8v228.5C917.9,964.9,897.4,985.4,872,985.4z"/>
	<path class="st1" d="M872,996.1H127.9c-31.2,0-56.6-25.4-56.6-56.6V304.7c0-25.5,17.2-47.9,41.8-54.6
		c27.7-7.5,72.6-18.6,129.3-28.9l3.8,21.1c-55.9,10.1-100.2,21.1-127.5,28.5c-15.3,4.1-25.9,18.1-25.9,33.9v634.8
		c0,19.4,15.7,35.1,35.1,35.1H872c19.4,0,35.1-15.7,35.1-35.1V302.7c0-15.1-9.5-28.5-23.8-33.3c-36.7-12.3-75.6-22.7-115.5-30.7
		l4.3-21.1c40.8,8.2,80.6,18.8,118.1,31.4c23,7.7,38.4,29.3,38.4,53.6v636.8C928.6,970.7,903.3,996.1,872,996.1z"/>
	<path class="st1" d="M288.1,320.8c-11.5-27.8-17.4-57.3-17.4-87.7c0-61.2,23.8-118.8,67.1-162.1C381.2,27.7,438.8,3.9,500,3.9
		c61.2,0,118.8,23.8,162.1,67.1s67.1,100.9,67.1,162.1c0,29.9-5.7,58.9-16.8,86.4l-23.2-9.5c9.9-24.4,15-50.3,15-76.9
		c0-112.6-91.6-204.2-204.2-204.2s-204.2,91.6-204.2,204.2c0,27.1,5.2,53.3,15.5,78.1L288.1,320.8z"/>
	<path class="st2" d="M280.5,346c0,0,235.3-34,438.9,0l-20.5,66.3l20.5,74.2l0,0c0,0-232.9-26-434.2,0c0,0,0,0,0,0l19.7-74.2
		L280.5,346z"/>
	<g class="st3">
		<path class="st1" d="M478.1,150l-36.2,8.3l-11.4-46.1l63-17.8h43.3v216.5h-58.7V150z"/>
	</g>
	<g class="st3">
		<path class="st4" d="M421.2,446.6H407v-31.7l-32-48.7h16.7l22.5,35.6l22.8-35.6h16.2l-32,48.4V446.6z"/>
		<path class="st4" d="M467.9,432.7c3.1,2.6,7,4,11.5,4c3.4,0,6.4-0.6,9-1.8c2.5-1.2,5-3,7.5-5.4l8.2,7.2c-2.9,3.4-6.4,6.2-10.4,8.3
			s-8.8,3.1-14.4,3.1c-4.4,0-8.5-0.8-12.2-2.3c-3.8-1.5-7.1-3.7-9.9-6.4c-2.8-2.8-5-6.1-6.6-9.9c-1.6-3.9-2.4-8.2-2.4-12.9
			c0-4.4,0.7-8.5,2.2-12.3c1.5-3.8,3.5-7.2,6.2-10.1c2.6-2.9,5.8-5.2,9.4-6.8c3.6-1.7,7.6-2.5,12-2.5c4.8,0,9.1,0.9,12.7,2.6
			c3.6,1.8,6.7,4.1,9.1,7.1s4.2,6.5,5.5,10.5c1.2,4,1.8,8.2,1.8,12.5c0,0.6,0,1.2-0.1,1.8c0,0.6-0.1,1.3-0.2,2h-44.6
			C462.8,426.2,464.8,430,467.9,432.7z M493,412c-0.2-2.2-0.7-4.3-1.5-6.3c-0.8-2-1.8-3.6-3.1-5.1c-1.3-1.4-2.9-2.5-4.7-3.4
			c-1.8-0.8-3.9-1.3-6.2-1.3c-4.3,0-7.8,1.5-10.6,4.4c-2.8,3-4.5,6.8-5.1,11.6H493z"/>
		<path class="st4" d="M557.9,446.6v-7.5c-2.1,2.5-4.7,4.5-7.9,6.2c-3.2,1.7-7.1,2.5-11.7,2.5c-2.9,0-5.7-0.4-8.3-1.2
			c-2.6-0.8-4.9-2-6.8-3.6c-2-1.6-3.5-3.5-4.7-5.9c-1.2-2.3-1.8-5-1.8-8.1v-0.2c0-3.3,0.6-6.2,1.8-8.6c1.2-2.5,2.9-4.5,5.1-6.1
			c2.2-1.6,4.8-2.8,7.8-3.6c3-0.8,6.3-1.2,9.8-1.2c3.7,0,6.8,0.2,9.4,0.7c2.6,0.5,5,1.1,7.4,1.8v-1.5c0-4.2-1.3-7.4-3.9-9.7
			c-2.6-2.2-6.3-3.3-11.1-3.3c-3.4,0-6.5,0.3-9.2,1c-2.7,0.7-5.4,1.6-8.2,2.8l-3.8-11.2c3.4-1.5,6.8-2.8,10.3-3.7
			c3.5-0.9,7.8-1.4,12.8-1.4c9,0,15.8,2.2,20.1,6.7c4.4,4.5,6.6,10.8,6.6,18.9v36H557.9z M558.3,420.9c-1.8-0.7-3.9-1.3-6.3-1.7
			c-2.4-0.5-5-0.7-7.6-0.7c-4.4,0-7.8,0.8-10.2,2.5c-2.5,1.7-3.7,4.1-3.7,7.2v0.2c0,2.9,1.1,5.1,3.4,6.7c2.3,1.5,5,2.3,8.3,2.3
			c2.3,0,4.4-0.3,6.4-0.9c2-0.6,3.7-1.5,5.1-2.6c1.5-1.1,2.6-2.5,3.4-4c0.8-1.6,1.2-3.3,1.2-5.2V420.9z"/>
		<path class="st4" d="M602.3,446.6h-14v-60.7h14v13.7c1.9-4.6,4.6-8.3,8.2-11c3.5-2.8,8-4,13.3-3.8v14.7H623
			c-3.1,0-5.9,0.5-8.4,1.5c-2.5,1-4.7,2.5-6.6,4.5c-1.8,2-3.3,4.5-4.3,7.5c-1,3-1.5,6.5-1.5,10.5V446.6z"/>
	</g>
	<g class="st3">
		<path class="st5" d="M332.9,578v-16.4h19.5V578H332.9z M333.4,650.5v-65.3h18.5v65.3H333.4z"/>
		<path class="st5" d="M416.5,650.5v-9.3c-2.3,3.1-5,5.6-8.2,7.6c-3.2,2-7.2,3-12.1,3c-3.8,0-7.5-0.7-11.1-2.2
			c-3.6-1.5-6.7-3.6-9.5-6.5c-2.8-2.9-5-6.4-6.6-10.6c-1.7-4.2-2.5-9-2.5-14.4v-0.2c0-5.4,0.8-10.3,2.5-14.4
			c1.7-4.2,3.9-7.7,6.6-10.6c2.7-2.9,5.9-5.1,9.4-6.5c3.6-1.5,7.3-2.2,11.2-2.2c5,0,9,1,12.2,2.9c3.2,1.9,5.9,4.2,8.1,6.8v-32.1H435
			v88.9H416.5z M416.7,617.7c0-2.7-0.4-5.2-1.3-7.4c-0.9-2.2-2-4.2-3.4-5.8c-1.4-1.6-3.1-2.8-5-3.7c-1.9-0.9-4-1.3-6.2-1.3
			c-2.2,0-4.2,0.4-6.2,1.3c-1.9,0.9-3.6,2.1-5.1,3.7c-1.5,1.6-2.6,3.5-3.5,5.7c-0.9,2.2-1.3,4.7-1.3,7.5v0.2c0,2.7,0.4,5.2,1.3,7.4
			s2,4.2,3.5,5.8c1.5,1.6,3.1,2.8,5.1,3.7c1.9,0.9,4,1.3,6.2,1.3c2.2,0,4.2-0.4,6.2-1.3c1.9-0.9,3.6-2.1,5-3.7
			c1.4-1.6,2.6-3.5,3.4-5.8s1.3-4.7,1.3-7.4V617.7z"/>
		<path class="st5" d="M489.8,650.5v-7.1c-2.3,2.5-5,4.5-8.2,6c-3.2,1.5-7,2.3-11.6,2.3c-3.1,0-6-0.4-8.7-1.3
			c-2.7-0.9-5.1-2.1-7.1-3.8c-2-1.7-3.6-3.8-4.8-6.3c-1.2-2.5-1.8-5.3-1.8-8.6v-0.2c0-3.6,0.6-6.7,1.9-9.3c1.3-2.6,3.1-4.8,5.4-6.5
			c2.3-1.7,5.1-3,8.3-3.8c3.2-0.9,6.8-1.3,10.7-1.3c3.3,0,6.2,0.2,8.7,0.7c2.5,0.5,4.9,1.1,7.2,1.9v-1.1c0-3.9-1.2-6.9-3.5-8.9
			c-2.4-2-5.8-3-10.5-3c-3.6,0-6.7,0.3-9.4,0.9c-2.7,0.6-5.6,1.5-8.6,2.6l-4.6-14.1c3.6-1.5,7.3-2.8,11.2-3.8
			c3.9-1,8.6-1.5,14.1-1.5c10.2,0,17.5,2.5,22.2,7.4c4.6,5,6.9,11.9,6.9,20.7v37.9H489.8z M490.2,624.2c-1.6-0.7-3.4-1.3-5.4-1.8
			c-2-0.4-4.1-0.7-6.4-0.7c-4,0-7.1,0.8-9.4,2.3c-2.3,1.5-3.4,3.8-3.4,6.7v0.2c0,2.5,0.9,4.5,2.8,5.8c1.9,1.4,4.3,2.1,7.3,2.1
			c4.4,0,7.9-1.1,10.5-3.2c2.6-2.1,4-4.9,4-8.3V624.2z"/>
		<path class="st5" d="M565,650.5v-36.3c0-4.4-1-7.7-2.9-9.9c-1.9-2.2-4.7-3.3-8.3-3.3c-3.6,0-6.4,1.1-8.5,3.3s-3.1,5.5-3.1,9.9
			v36.3h-18.5v-88.9h18.5v33c1.1-1.4,2.2-2.7,3.5-4c1.3-1.3,2.7-2.4,4.2-3.4c1.5-1,3.2-1.8,5.1-2.3c1.9-0.6,4-0.9,6.3-0.9
			c7.1,0,12.5,2.2,16.4,6.5c3.9,4.3,5.8,10.2,5.8,17.8v42.3H565z"/>
		<path class="st5" d="M664.4,631.2c-1.8,4.1-4.3,7.7-7.4,10.8c-3.2,3.1-6.9,5.5-11.2,7.3c-4.3,1.8-9,2.7-14.1,2.7
			c-5,0-9.7-0.9-14-2.6c-4.3-1.7-8-4.1-11.1-7.2c-3.1-3-5.6-6.6-7.4-10.7c-1.8-4.1-2.7-8.5-2.7-13.2V618c0-4.7,0.9-9.1,2.7-13.2
			c1.8-4.1,4.3-7.7,7.4-10.8c3.2-3.1,6.9-5.5,11.2-7.3c4.3-1.8,9-2.7,14.1-2.7c5,0,9.7,0.9,14,2.6c4.3,1.7,8,4.1,11.1,7.2
			c3.1,3,5.6,6.6,7.4,10.7c1.8,4.1,2.7,8.5,2.7,13.2v0.2C667.1,622.7,666.2,627.1,664.4,631.2z M648.8,618c0-2.4-0.4-4.7-1.2-6.9
			c-0.8-2.2-2-4.1-3.5-5.7c-1.5-1.7-3.4-3-5.5-4c-2.1-1-4.4-1.5-6.9-1.5c-2.7,0-5.1,0.5-7.1,1.4c-2.1,0.9-3.8,2.2-5.3,3.8
			c-1.5,1.6-2.6,3.5-3.4,5.7c-0.8,2.2-1.2,4.4-1.2,6.9v0.2c0,2.4,0.4,4.7,1.2,6.9c0.8,2.2,2,4.1,3.5,5.7c1.5,1.7,3.4,3,5.4,4
			s4.4,1.5,7,1.5c2.7,0,5.1-0.5,7.1-1.4c2.1-0.9,3.8-2.2,5.3-3.8c1.5-1.6,2.6-3.5,3.4-5.7c0.8-2.2,1.2-4.4,1.2-6.9V618z"/>
	</g>
	<g class="st3">
		<path class="st5" d="M347.2,682.8l-5.7-7.6h-5.6v7.6h-2.2v-19.7h8.5c1.1,0,2.1,0.1,2.9,0.4c0.9,0.3,1.6,0.7,2.2,1.2
			c0.6,0.5,1.1,1.1,1.4,1.9c0.3,0.7,0.5,1.5,0.5,2.4c0,0.8-0.1,1.6-0.4,2.2c-0.3,0.6-0.6,1.2-1.1,1.7c-0.5,0.5-1,0.9-1.7,1.2
			s-1.4,0.5-2.1,0.7l6,8H347.2z M345.7,666.2c-0.9-0.7-2.1-1-3.7-1h-6.1v8h6.1c0.7,0,1.4-0.1,2-0.3s1.2-0.5,1.6-0.8
			c0.5-0.3,0.8-0.8,1.1-1.3s0.4-1.1,0.4-1.7C347,667.9,346.6,666.9,345.7,666.2z"/>
		<path class="st5" d="M381.4,676.8c-0.5,1.2-1.2,2.3-2,3.2c-0.9,0.9-1.9,1.7-3.2,2.2c-1.2,0.6-2.6,0.8-4.1,0.8
			c-1.5,0-2.9-0.3-4.1-0.8c-1.2-0.5-2.3-1.3-3.2-2.2c-0.9-0.9-1.6-2-2-3.2c-0.5-1.2-0.7-2.5-0.7-3.9c0-1.4,0.2-2.7,0.7-3.9
			s1.2-2.3,2.1-3.2c0.9-0.9,1.9-1.7,3.2-2.2c1.2-0.6,2.6-0.8,4.1-0.8c1.5,0,2.9,0.3,4.1,0.8c1.2,0.5,2.3,1.3,3.2,2.2
			c0.9,0.9,1.6,2,2,3.2c0.5,1.2,0.7,2.5,0.7,3.9S381.9,675.6,381.4,676.8z M379.3,669.8c-0.4-1-0.9-1.9-1.6-2.6
			c-0.7-0.7-1.5-1.3-2.5-1.7c-0.9-0.4-2-0.6-3.1-0.6c-1.1,0-2.2,0.2-3.1,0.6c-0.9,0.4-1.8,1-2.4,1.7c-0.7,0.7-1.2,1.6-1.6,2.6
			s-0.6,2-0.6,3.2s0.2,2.2,0.6,3.2s0.9,1.9,1.6,2.6c0.7,0.7,1.5,1.3,2.5,1.7c0.9,0.4,2,0.6,3.1,0.6c1.1,0,2.2-0.2,3.1-0.6
			c0.9-0.4,1.8-1,2.4-1.7c0.7-0.7,1.2-1.6,1.6-2.6s0.6-2,0.6-3.2C379.9,671.9,379.7,670.8,379.3,669.8z"/>
		<path class="st5" d="M414.3,676.8c-0.5,1.2-1.2,2.3-2,3.2c-0.9,0.9-1.9,1.7-3.2,2.2c-1.2,0.6-2.6,0.8-4.1,0.8
			c-1.5,0-2.9-0.3-4.1-0.8c-1.2-0.5-2.3-1.3-3.2-2.2c-0.9-0.9-1.6-2-2-3.2c-0.5-1.2-0.7-2.5-0.7-3.9c0-1.4,0.2-2.7,0.7-3.9
			s1.2-2.3,2.1-3.2c0.9-0.9,1.9-1.7,3.2-2.2c1.2-0.6,2.6-0.8,4.1-0.8c1.5,0,2.9,0.3,4.1,0.8c1.2,0.5,2.3,1.3,3.2,2.2
			c0.9,0.9,1.6,2,2,3.2c0.5,1.2,0.7,2.5,0.7,3.9S414.8,675.6,414.3,676.8z M412.2,669.8c-0.4-1-0.9-1.9-1.6-2.6
			c-0.7-0.7-1.5-1.3-2.5-1.7c-0.9-0.4-2-0.6-3.1-0.6c-1.1,0-2.2,0.2-3.1,0.6c-0.9,0.4-1.8,1-2.4,1.7c-0.7,0.7-1.2,1.6-1.6,2.6
			s-0.6,2-0.6,3.2s0.2,2.2,0.6,3.2s0.9,1.9,1.6,2.6c0.7,0.7,1.5,1.3,2.5,1.7c0.9,0.4,2,0.6,3.1,0.6c1.1,0,2.2-0.2,3.1-0.6
			c0.9-0.4,1.8-1,2.4-1.7c0.7-0.7,1.2-1.6,1.6-2.6s0.6-2,0.6-3.2C412.7,671.9,412.5,670.8,412.2,669.8z"/>
		<path class="st5" d="M442.8,665.2h-11.9v7h10.6v2h-10.6v8.6h-2.2v-19.7h14.1V665.2z"/>
		<path class="st5" d="M458.5,663.2v19.7h-2.2v-19.7H458.5z"/>
		<path class="st5" d="M487.7,663.2h2.2v19.7h-1.8l-12.7-16.1v16.1h-2.2v-19.7h2.1l12.4,15.8V663.2z"/>
		<path class="st5" d="M518.1,682.3c-1.3,0.6-2.8,0.9-4.5,0.9c-1.6,0-2.9-0.3-4.2-0.8c-1.2-0.5-2.3-1.2-3.1-2.2
			c-0.9-0.9-1.5-2-2-3.2c-0.5-1.2-0.7-2.6-0.7-4c0-1.3,0.2-2.6,0.7-3.9c0.5-1.2,1.1-2.3,2-3.3c0.9-0.9,1.9-1.7,3.1-2.2
			c1.2-0.6,2.6-0.8,4-0.8c0.8,0,1.6,0.1,2.3,0.2c0.7,0.1,1.3,0.3,1.9,0.5c0.6,0.2,1.1,0.5,1.7,0.8c0.5,0.3,1,0.7,1.5,1.1l-1.4,1.7
			c-0.4-0.3-0.8-0.6-1.2-0.9s-0.9-0.5-1.3-0.7c-0.5-0.2-1-0.3-1.6-0.5c-0.6-0.1-1.2-0.2-1.9-0.2c-1.1,0-2.1,0.2-3,0.6
			c-0.9,0.4-1.7,1-2.4,1.7c-0.7,0.7-1.2,1.6-1.5,2.6c-0.4,1-0.6,2-0.6,3.1c0,1.2,0.2,2.3,0.5,3.3s0.9,1.9,1.6,2.6
			c0.7,0.7,1.5,1.3,2.4,1.7s2,0.6,3.2,0.6c1.1,0,2.2-0.2,3.2-0.6c1-0.4,1.8-0.9,2.5-1.4v-4.9h-6v-2h8.1v7.8
			C520.6,681,519.4,681.7,518.1,682.3z"/>
		<path class="st5" d="M568.1,681.1c-0.6,0.4-1.1,0.8-1.8,1.1c-0.6,0.3-1.3,0.5-2,0.7s-1.5,0.3-2.4,0.3c-1.4,0-2.7-0.3-3.9-0.8
			c-1.2-0.5-2.2-1.2-3.1-2.1s-1.6-2-2.1-3.2c-0.5-1.2-0.7-2.6-0.7-4c0-1.4,0.2-2.7,0.7-4c0.5-1.2,1.2-2.3,2.1-3.2
			c0.9-0.9,1.9-1.7,3.1-2.2c1.2-0.5,2.5-0.8,4-0.8c0.9,0,1.7,0.1,2.4,0.2c0.7,0.2,1.4,0.4,2,0.6s1.2,0.6,1.7,1
			c0.5,0.4,1,0.8,1.5,1.3l-1.5,1.6c-0.8-0.8-1.7-1.4-2.7-1.9s-2.1-0.8-3.5-0.8c-1.1,0-2.1,0.2-3,0.6s-1.7,1-2.4,1.7
			s-1.2,1.6-1.6,2.6s-0.6,2-0.6,3.2s0.2,2.2,0.6,3.2s0.9,1.9,1.6,2.6s1.5,1.3,2.4,1.7s1.9,0.6,3,0.6c1.3,0,2.5-0.2,3.5-0.7
			c1-0.5,1.9-1.2,2.9-2.1l1.5,1.4C569.2,680.2,568.7,680.7,568.1,681.1z"/>
		<path class="st5" d="M600.5,676.8c-0.5,1.2-1.2,2.3-2,3.2c-0.9,0.9-1.9,1.7-3.2,2.2s-2.6,0.8-4.1,0.8s-2.9-0.3-4.1-0.8
			s-2.3-1.3-3.2-2.2c-0.9-0.9-1.6-2-2-3.2s-0.7-2.5-0.7-3.9c0-1.4,0.2-2.7,0.7-3.9c0.5-1.2,1.2-2.3,2.1-3.2c0.9-0.9,1.9-1.7,3.2-2.2
			c1.2-0.6,2.6-0.8,4.1-0.8c1.5,0,2.9,0.3,4.1,0.8s2.3,1.3,3.2,2.2c0.9,0.9,1.6,2,2,3.2c0.5,1.2,0.7,2.5,0.7,3.9
			S601,675.6,600.5,676.8z M598.3,669.8c-0.4-1-0.9-1.9-1.6-2.6s-1.5-1.3-2.5-1.7c-0.9-0.4-2-0.6-3.1-0.6c-1.1,0-2.2,0.2-3.1,0.6
			c-0.9,0.4-1.8,1-2.4,1.7c-0.7,0.7-1.2,1.6-1.6,2.6s-0.6,2-0.6,3.2s0.2,2.2,0.6,3.2s0.9,1.9,1.6,2.6c0.7,0.7,1.5,1.3,2.5,1.7
			c0.9,0.4,2,0.6,3.1,0.6s2.2-0.2,3.1-0.6c0.9-0.4,1.8-1,2.4-1.7s1.2-1.6,1.6-2.6s0.6-2,0.6-3.2
			C598.9,671.9,598.7,670.8,598.3,669.8z"/>
		<path class="st5" d="M616.7,669.3c0.1,0.4,0.4,0.7,0.8,1s0.9,0.6,1.6,0.8c0.7,0.3,1.6,0.5,2.7,0.7c2.2,0.5,3.8,1.2,4.8,2
			c1,0.9,1.6,2.1,1.6,3.6c0,0.8-0.2,1.6-0.5,2.3c-0.3,0.7-0.8,1.3-1.4,1.8c-0.6,0.5-1.3,0.9-2.1,1.1c-0.8,0.3-1.7,0.4-2.7,0.4
			c-1.6,0-3-0.3-4.3-0.8c-1.3-0.5-2.5-1.3-3.7-2.4l1.4-1.6c1,0.9,2.1,1.6,3.1,2.1c1,0.5,2.3,0.7,3.6,0.7c1.3,0,2.4-0.3,3.2-0.9
			c0.8-0.6,1.2-1.4,1.2-2.4c0-0.5-0.1-0.9-0.2-1.3c-0.1-0.4-0.4-0.7-0.8-1c-0.4-0.3-0.9-0.6-1.6-0.8s-1.5-0.5-2.5-0.7
			c-1.1-0.2-2.1-0.5-2.9-0.8c-0.8-0.3-1.5-0.7-2.1-1.2c-0.5-0.5-0.9-1-1.2-1.6c-0.3-0.6-0.4-1.3-0.4-2.1c0-0.8,0.2-1.5,0.5-2.2
			s0.8-1.2,1.3-1.7s1.3-0.9,2.1-1.1c0.8-0.3,1.6-0.4,2.6-0.4c1.4,0,2.7,0.2,3.8,0.6s2.1,1,3.1,1.8l-1.3,1.7
			c-0.9-0.7-1.8-1.3-2.8-1.6c-0.9-0.3-1.9-0.5-2.9-0.5c-0.6,0-1.2,0.1-1.7,0.3c-0.5,0.2-1,0.4-1.3,0.7c-0.4,0.3-0.6,0.6-0.8,1
			c-0.2,0.4-0.3,0.8-0.3,1.3C616.4,668.5,616.5,668.9,616.7,669.3z"/>
		<path class="st5" d="M648.7,682.8h-2.2v-17.6h-6.6v-2h15.4v2h-6.6V682.8z"/>
	</g>
	<g>
		<polygon class="st5" points="512.9,519.8 509.2,516.3 533.7,489.8 561.2,512.7 557.9,516.6 534.2,496.8 		"/>
		
			<linearGradient id="SVGID_1_" gradientUnits="userSpaceOnUse" x1="492.3395" y1="499.7048" x2="533.9495" y2="499.7048" gradientTransform="matrix(1 0 0 -1 0 1002)">
			<stop  offset="0" style="stop-color:#4E73D1"/>
			<stop  offset="1" style="stop-color:#269BD6"/>
		</linearGradient>
		<polygon class="st6" points="533.9,489.9 492.3,498.4 511,514.7 		"/>
		
			<linearGradient id="SVGID_2_" gradientUnits="userSpaceOnUse" x1="589.6295" y1="474.9548" x2="510.3295" y2="474.9548" gradientTransform="matrix(1 0 0 -1 0 1002)">
			<stop  offset="0" style="stop-color:#4E73D1"/>
			<stop  offset="1" style="stop-color:#269BD6"/>
		</linearGradient>
		<polygon class="st7" points="510.3,518.6 589.6,506.8 546.2,547.3 		"/>
		
			<linearGradient id="SVGID_3_" gradientUnits="userSpaceOnUse" x1="418.6695" y1="484.5148" x2="546.3195" y2="484.5148" gradientTransform="matrix(1 0 0 -1 0 1002)">
			<stop  offset="0" style="stop-color:#4E73D1"/>
			<stop  offset="0.3209" style="stop-color:#467BD2"/>
			<stop  offset="0.8232" style="stop-color:#3091D5"/>
			<stop  offset="1" style="stop-color:#269BD6"/>
		</linearGradient>
		<polygon class="st8" points="418.7,487.7 494,498.9 546.3,547.3 482.5,547.3 		"/>
		<polygon class="st5" points="664.8,553.2 630.2,553.2 589.6,513.7 547.3,552.1 481.5,552.1 418.7,494.5 357,553.2 331.8,553.2 
			331.8,548.1 355,548.1 418.6,487.6 483.5,547 545.3,547 589.7,506.7 632.2,548.1 664.8,548.1 		"/>
		<g>
			<path class="st5" d="M417.8,526.8v-9.4c-4.7,0.2-8.5,4.1-8.5,8.9v0.5H417.8z"/>
			<path class="st5" d="M418.6,526.8h8.5v-0.5c0-4.8-3.8-8.7-8.5-8.9V526.8z"/>
			<rect x="409.3" y="527.6" class="st5" width="8.5" height="7.5"/>
			<rect x="418.6" y="527.6" class="st5" width="8.5" height="7.5"/>
		</g>
		<g>
			<path class="st5" d="M589.3,532.2v-6.9c-3.5,0.2-6.2,3-6.2,6.5v0.4H589.3z"/>
			<path class="st5" d="M589.9,532.2h6.2v-0.4c0-3.5-2.8-6.3-6.2-6.5V532.2z"/>
			<rect x="583.1" y="532.8" class="st5" width="6.2" height="5.5"/>
			<rect x="589.9" y="532.8" class="st5" width="6.2" height="5.5"/>
		</g>
		<g>
			<path class="st5" d="M534.3,505.3v-3.6c-1.8,0.1-3.3,1.6-3.3,3.4v0.2H534.3z"/>
			<path class="st5" d="M534.6,505.3h3.3v-0.2c0-1.8-1.5-3.3-3.3-3.4V505.3z"/>
			<rect x="531.1" y="505.6" class="st5" width="3.3" height="2.9"/>
			<rect x="534.6" y="505.6" class="st5" width="3.3" height="2.9"/>
		</g>
		<polygon class="st9" points="359.4,553.2 417.8,496.4 363.2,553.2 		"/>
		<polygon class="st9" points="479.2,552.2 419.4,497.1 475.4,552.3 		"/>
		<polygon class="st9" points="550,552.2 589.3,514.7 552.4,552.2 		"/>
		<polygon class="st9" points="627.5,553 589.4,514.6 625.1,553 		"/>
	</g>
	<text transform="matrix(1 0 0 1 307.1343 840.595)" class="st4 st10 st11">SCREENED &amp;</text>
	<text transform="matrix(1 0 0 1 307.1343 919.385)" class="st4 st10 st12">APPROVED</text>
	<path class="st13" d="M161.8,871.7l28.6,27.2c4.1,3.9,10.8,3.1,13.9-1.7l59.9-93.2"/>
</g>
</svg>
