<?xml version="1.0" encoding="utf-8"?>
<!-- Generator: Adobe Illustrator 24.3.0, SVG Export Plug-In . SVG Version: 6.00 Build 0)  -->
<svg version="1.1" id="Layer_1" xmlns="http://www.w3.org/2000/svg" xmlns:xlink="http://www.w3.org/1999/xlink" x="0px" y="0px"
	 viewBox="0 0 1000 1000" style="enable-background:new 0 0 1000 1000;" xml:space="preserve">
<style type="text/css">
	.st0{fill:#5D6F7A;}
	.st1{fill:#FFFFFF;}
	.st2{fill:#28373E;}
	.st3{fill:url(#SVGID_1_);}
	.st4{fill:url(#SVGID_2_);}
	.st5{fill:url(#SVGID_3_);}
	.st6{fill:#5A6163;}
	.st7{enable-background:new    ;}
	.st8{fill:none;}
	.st9{font-family:'ArialMT';}
	.st10{font-size:12px;}
	.st11{font-family:'Gotham-Medium';}
	.st12{font-size:93.296px;}
</style>
<g>
	<g>
		<path class="st0" d="M981.1,505.4c0,47.7-70.9,83.5-84.8,126.6c-14.5,44.6,21.3,115.2-5.8,152.3c-27.3,37.5-105.6,25.2-143.1,52.4
			c-37.1,27-49.5,105.5-94,120c-43,14-98.9-41.8-146.6-41.8s-103.6,55.8-146.6,41.8c-44.6-14.5-56.9-93-94-120
			c-37.5-27.3-115.8-15-143.1-52.4c-27-37.1,8.7-107.7-5.8-152.3c-14-43-84.8-78.9-84.8-126.6s70.9-83.5,84.8-126.6
			c14.5-44.6-21.3-115.2,5.8-152.3c27.3-37.5,105.6-25.2,143.1-52.4c37.1-27,49.5-105.5,94-119.9c43-14,98.9,41.8,146.6,41.8
			s103.6-55.8,146.6-41.8c44.6,14.5,56.9,92.9,94,119.9c37.5,27.3,115.8,15,143.1,52.4c27,37.1-8.7,107.7,5.8,152.3
			C910.2,421.9,981.1,457.7,981.1,505.4z"/>
	</g>
	<circle class="st1" cx="506.8" cy="505.4" r="368.7"/>
	<g>
		<path class="st1" d="M958.3,629.7H45.6c-15.2,0-27.6-12.4-27.6-27.6V422.6c0-15.2,12.4-27.6,27.6-27.6h912.8
			c15.2,0,27.6,12.4,27.6,27.6v179.5C985.9,617.3,973.6,629.7,958.3,629.7z"/>
		<path class="st0" d="M958.3,637.8H45.6c-19.7,0-35.7-16-35.7-35.7V422.6c0-19.7,16-35.7,35.7-35.7h912.8c19.7,0,35.7,16,35.7,35.7
			v179.5C994.1,621.8,978,637.8,958.3,637.8z M45.6,403.1c-10.8,0-19.5,8.8-19.5,19.5v179.5c0,10.8,8.8,19.5,19.5,19.5h912.8
			c10.8,0,19.5-8.8,19.5-19.5V422.6c0-10.8-8.8-19.5-19.5-19.5H45.6z"/>
	</g>
	<g>
		<polygon class="st2" points="284.2,509 279.4,504.6 310.9,470.6 346.1,500 342,504.9 311.5,479.5 		"/>
		
			<linearGradient id="SVGID_1_" gradientUnits="userSpaceOnUse" x1="257.7737" y1="515.4155" x2="311.1837" y2="515.4155" gradientTransform="matrix(1 0 0 -1 0 1002)">
			<stop  offset="0" style="stop-color:#4E73D1"/>
			<stop  offset="1" style="stop-color:#269BD6"/>
		</linearGradient>
		<polygon class="st3" points="311.2,470.7 257.8,481.5 281.8,502.5 		"/>
		
			<linearGradient id="SVGID_2_" gradientUnits="userSpaceOnUse" x1="382.6537" y1="483.6505" x2="280.8737" y2="483.6505" gradientTransform="matrix(1 0 0 -1 0 1002)">
			<stop  offset="0" style="stop-color:#4E73D1"/>
			<stop  offset="1" style="stop-color:#269BD6"/>
		</linearGradient>
		<polygon class="st4" points="280.9,507.5 382.7,492.4 326.9,544.3 		"/>
		
			<linearGradient id="SVGID_3_" gradientUnits="userSpaceOnUse" x1="163.2137" y1="495.9205" x2="327.0637" y2="495.9205" gradientTransform="matrix(1 0 0 -1 0 1002)">
			<stop  offset="0" style="stop-color:#4E73D1"/>
			<stop  offset="0.3209" style="stop-color:#467BD2"/>
			<stop  offset="0.8232" style="stop-color:#3091D5"/>
			<stop  offset="1" style="stop-color:#269BD6"/>
		</linearGradient>
		<polygon class="st5" points="163.2,467.8 259.9,482.3 327.1,544.3 245.1,544.3 		"/>
		<polygon class="st2" points="479.2,551.9 434.7,551.9 382.6,501.2 328.3,550.5 243.9,550.5 163.3,476.6 84,551.9 51.8,551.9 
			51.8,545.4 81.4,545.4 163.2,467.7 246.4,544 325.8,544 382.7,492.2 437.4,545.4 479.2,545.4 		"/>
		<g>
			<path class="st2" d="M162.1,518.1V506c-6.1,0.3-10.9,5.3-10.9,11.4v0.7H162.1z"/>
			<path class="st2" d="M163.1,518.1H174v-0.7c0-6.1-4.8-11.1-10.9-11.4V518.1z"/>
			<rect x="151.2" y="519.1" class="st2" width="10.9" height="9.7"/>
			<rect x="163.1" y="519.1" class="st2" width="10.9" height="9.7"/>
		</g>
		<g>
			<path class="st2" d="M382.3,524.9v-8.9c-4.4,0.2-8,3.9-8,8.3v0.5H382.3z"/>
			<path class="st2" d="M383,524.9h8v-0.5c0-4.5-3.5-8.1-8-8.3V524.9z"/>
			<rect x="374.3" y="525.7" class="st2" width="8" height="7.1"/>
			<rect x="383" y="525.7" class="st2" width="8" height="7.1"/>
		</g>
		<g>
			<path class="st2" d="M311.7,490.4v-4.6c-2.3,0.1-4.2,2-4.2,4.4v0.3H311.7z"/>
			<path class="st2" d="M312.1,490.4h4.2v-0.3c0-2.4-1.9-4.3-4.2-4.4V490.4z"/>
			<rect x="307.5" y="490.8" class="st2" width="4.2" height="3.7"/>
			<rect x="312.1" y="490.8" class="st2" width="4.2" height="3.7"/>
		</g>
		<polygon class="st6" points="87.1,551.9 162.1,479.1 92,551.9 		"/>
		<polygon class="st6" points="240.9,550.7 164.2,479.9 236,550.8 		"/>
		<polygon class="st6" points="331.8,550.6 382.3,502.5 334.9,550.6 		"/>
		<polygon class="st6" points="431.2,551.7 382.4,502.3 428.1,551.6 		"/>
	</g>
	<g class="st7">
		<path class="st2" d="M493.7,466.5v-18.2h21.5v18.2H493.7z M494.3,546.5v-72.1h20.4v72.1H494.3z"/>
		<path class="st2" d="M586,546.5v-10.3c-2.5,3.4-5.5,6.2-9.1,8.3c-3.5,2.2-8,3.3-13.4,3.3c-4.2,0-8.3-0.8-12.2-2.4
			c-3.9-1.6-7.4-4-10.5-7.2c-3-3.2-5.5-7.1-7.3-11.7c-1.8-4.6-2.8-9.9-2.8-15.9v-0.3c0-6,0.9-11.3,2.8-15.9
			c1.8-4.6,4.3-8.5,7.3-11.7c3-3.2,6.5-5.6,10.4-7.2c3.9-1.6,8.1-2.4,12.4-2.4c5.5,0,10,1.1,13.5,3.2c3.5,2.1,6.5,4.6,8.9,7.5v-35.4
			h20.4v98.2H586z M586.3,510.4c0-3-0.5-5.7-1.4-8.2s-2.2-4.6-3.8-6.4c-1.6-1.8-3.4-3.1-5.5-4.1c-2.1-0.9-4.4-1.4-6.8-1.4
			c-2.4,0-4.7,0.5-6.8,1.4c-2.1,0.9-4,2.3-5.6,4.1c-1.6,1.8-2.9,3.9-3.8,6.3s-1.4,5.2-1.4,8.3v0.3c0,3,0.5,5.7,1.4,8.2
			s2.2,4.6,3.8,6.4c1.6,1.8,3.5,3.1,5.6,4.1c2.1,0.9,4.4,1.4,6.8,1.4c2.4,0,4.7-0.5,6.8-1.4c2.1-0.9,3.9-2.3,5.5-4.1
			c1.6-1.8,2.8-3.9,3.8-6.4s1.4-5.2,1.4-8.2V510.4z"/>
		<path class="st2" d="M666.9,546.5v-7.8c-2.5,2.8-5.5,5-9,6.7c-3.5,1.7-7.8,2.5-12.8,2.5c-3.4,0-6.6-0.5-9.6-1.4
			c-3-0.9-5.6-2.4-7.9-4.2c-2.2-1.9-4-4.2-5.3-6.9c-1.3-2.7-1.9-5.9-1.9-9.5v-0.3c0-3.9,0.7-7.4,2.2-10.2c1.4-2.9,3.4-5.2,6-7.1
			c2.6-1.9,5.6-3.3,9.1-4.2c3.5-0.9,7.5-1.4,11.8-1.4c3.7,0,6.9,0.3,9.6,0.8c2.7,0.5,5.4,1.3,8,2.2v-1.2c0-4.3-1.3-7.6-3.9-9.8
			c-2.6-2.2-6.5-3.4-11.6-3.4c-3.9,0-7.4,0.3-10.4,1c-3,0.7-6.2,1.6-9.5,2.9l-5.1-15.6c3.9-1.7,8.1-3.1,12.4-4.2s9.5-1.6,15.6-1.6
			c11.2,0,19.4,2.7,24.5,8.2c5.1,5.5,7.7,13.1,7.7,22.9v41.8H666.9z M667.3,517.5c-1.8-0.8-3.8-1.5-6-2c-2.2-0.5-4.6-0.7-7.1-0.7
			c-4.4,0-7.8,0.9-10.4,2.6c-2.5,1.7-3.8,4.2-3.8,7.4v0.3c0,2.8,1,4.9,3.1,6.5c2.1,1.5,4.8,2.3,8.1,2.3c4.8,0,8.7-1.2,11.6-3.5
			c2.9-2.3,4.4-5.4,4.4-9.1V517.5z"/>
		<path class="st2" d="M749.9,546.5v-40.1c0-4.8-1.1-8.5-3.2-10.9c-2.2-2.5-5.2-3.7-9.1-3.7c-3.9,0-7.1,1.2-9.3,3.7
			c-2.3,2.5-3.4,6.1-3.4,10.9v40.1h-20.4v-98.2h20.4v36.4c1.2-1.5,2.4-3,3.8-4.4c1.4-1.4,2.9-2.6,4.6-3.7c1.7-1.1,3.6-1.9,5.6-2.6
			c2.1-0.6,4.4-0.9,7-0.9c7.8,0,13.8,2.4,18.1,7.1c4.3,4.8,6.4,11.3,6.4,19.6v46.7H749.9z"/>
		<path class="st2" d="M859.6,525.2c-2,4.5-4.7,8.5-8.2,11.9c-3.5,3.4-7.6,6.1-12.4,8.1c-4.8,2-10,3-15.6,3c-5.6,0-10.7-1-15.5-2.9
			c-4.8-1.9-8.9-4.6-12.3-7.9c-3.5-3.4-6.2-7.3-8.1-11.8c-2-4.5-3-9.4-3-14.6v-0.3c0-5.2,1-10.1,3-14.6c2-4.5,4.7-8.5,8.2-11.9
			c3.5-3.4,7.6-6.1,12.4-8.1c4.8-2,10-3,15.6-3c5.6,0,10.7,1,15.5,2.9c4.8,1.9,8.9,4.6,12.3,7.9c3.4,3.4,6.2,7.3,8.1,11.8
			c2,4.5,3,9.4,3,14.6v0.3C862.6,515.8,861.6,520.7,859.6,525.2z M842.4,510.6c0-2.7-0.4-5.2-1.3-7.6c-0.9-2.4-2.2-4.5-3.9-6.3
			c-1.7-1.8-3.7-3.3-6.1-4.4c-2.3-1.1-4.9-1.6-7.7-1.6c-3,0-5.6,0.5-7.9,1.5c-2.3,1-4.2,2.4-5.8,4.2c-1.6,1.8-2.8,3.9-3.7,6.3
			c-0.9,2.4-1.3,4.9-1.3,7.6v0.3c0,2.7,0.4,5.2,1.3,7.6c0.9,2.4,2.2,4.5,3.9,6.3c1.7,1.8,3.7,3.3,6,4.4c2.3,1.1,4.9,1.6,7.7,1.6
			c3,0,5.6-0.5,7.9-1.5c2.3-1,4.2-2.4,5.9-4.2c1.6-1.8,2.8-3.9,3.7-6.3c0.9-2.4,1.3-4.9,1.3-7.6V510.6z"/>
	</g>
	<g class="st7">
		<path class="st2" d="M509.6,582.2l-6.3-8.4h-6.2v8.4h-2.4v-21.7h9.3c1.2,0,2.3,0.2,3.2,0.5c1,0.3,1.8,0.7,2.5,1.3
			c0.7,0.6,1.2,1.3,1.6,2s0.6,1.7,0.6,2.7c0,0.9-0.1,1.7-0.4,2.4s-0.7,1.3-1.2,1.9c-0.5,0.5-1.2,1-1.9,1.3s-1.5,0.6-2.4,0.7l6.7,8.9
			H509.6z M507.9,563.9c-1-0.8-2.3-1.1-4.1-1.1h-6.7v8.8h6.7c0.8,0,1.6-0.1,2.2-0.3s1.3-0.5,1.8-0.9c0.5-0.4,0.9-0.9,1.2-1.4
			c0.3-0.6,0.4-1.2,0.4-1.9C509.4,565.7,508.9,564.6,507.9,563.9z"/>
		<path class="st2" d="M547.4,575.6c-0.5,1.4-1.3,2.5-2.3,3.6c-1,1-2.1,1.9-3.5,2.5c-1.4,0.6-2.9,0.9-4.5,0.9
			c-1.7,0-3.2-0.3-4.5-0.9c-1.4-0.6-2.5-1.4-3.5-2.4c-1-1-1.7-2.2-2.2-3.6c-0.5-1.4-0.8-2.8-0.8-4.3c0-1.5,0.3-2.9,0.8-4.3
			c0.5-1.4,1.3-2.5,2.3-3.6c1-1,2.1-1.9,3.5-2.5s2.9-0.9,4.5-0.9c1.7,0,3.2,0.3,4.5,0.9s2.5,1.4,3.5,2.4c1,1,1.7,2.2,2.2,3.6
			c0.5,1.4,0.8,2.8,0.8,4.3C548.2,572.8,547.9,574.2,547.4,575.6z M545,567.9c-0.4-1.1-1-2-1.8-2.9c-0.8-0.8-1.7-1.4-2.7-1.9
			c-1-0.5-2.2-0.7-3.4-0.7c-1.2,0-2.4,0.2-3.4,0.7c-1,0.5-1.9,1.1-2.7,1.9c-0.7,0.8-1.3,1.8-1.8,2.8c-0.4,1.1-0.6,2.2-0.6,3.5
			c0,1.2,0.2,2.4,0.6,3.5c0.4,1.1,1,2,1.8,2.9c0.8,0.8,1.7,1.4,2.7,1.9c1,0.5,2.2,0.7,3.4,0.7s2.4-0.2,3.4-0.7
			c1-0.5,1.9-1.1,2.7-1.9s1.3-1.8,1.8-2.8c0.4-1.1,0.6-2.2,0.6-3.5C545.7,570.1,545.5,568.9,545,567.9z"/>
		<path class="st2" d="M583.7,575.6c-0.5,1.4-1.3,2.5-2.3,3.6c-1,1-2.1,1.9-3.5,2.5c-1.4,0.6-2.9,0.9-4.5,0.9s-3.2-0.3-4.5-0.9
			c-1.4-0.6-2.5-1.4-3.5-2.4c-1-1-1.7-2.2-2.2-3.6c-0.5-1.4-0.8-2.8-0.8-4.3c0-1.5,0.3-2.9,0.8-4.3c0.5-1.4,1.3-2.5,2.3-3.6
			s2.1-1.9,3.5-2.5c1.4-0.6,2.9-0.9,4.5-0.9c1.7,0,3.2,0.3,4.5,0.9s2.5,1.4,3.5,2.4c1,1,1.7,2.2,2.2,3.6c0.5,1.4,0.8,2.8,0.8,4.3
			C584.5,572.8,584.3,574.2,583.7,575.6z M581.4,567.9c-0.4-1.1-1-2-1.8-2.9s-1.7-1.4-2.7-1.9c-1-0.5-2.2-0.7-3.4-0.7
			s-2.4,0.2-3.4,0.7c-1,0.5-1.9,1.1-2.7,1.9c-0.7,0.8-1.3,1.8-1.8,2.8c-0.4,1.1-0.6,2.2-0.6,3.5c0,1.2,0.2,2.4,0.6,3.5
			c0.4,1.1,1,2,1.8,2.9s1.7,1.4,2.7,1.9c1,0.5,2.2,0.7,3.4,0.7c1.2,0,2.4-0.2,3.4-0.7c1-0.5,1.9-1.1,2.7-1.9
			c0.7-0.8,1.3-1.8,1.8-2.8s0.6-2.2,0.6-3.5C582,570.1,581.8,568.9,581.4,567.9z"/>
		<path class="st2" d="M615.3,562.7h-13.1v7.7h11.7v2.2h-11.7v9.5h-2.4v-21.7h15.6V562.7z"/>
		<path class="st2" d="M632.7,560.5v21.7h-2.4v-21.7H632.7z"/>
		<path class="st2" d="M665,560.5h2.4v21.7h-2l-14-17.8v17.8H649v-21.7h2.3l13.7,17.4V560.5z"/>
		<path class="st2" d="M698.5,581.6c-1.5,0.6-3.1,1-5,1c-1.7,0-3.2-0.3-4.6-0.9s-2.5-1.4-3.5-2.4c-1-1-1.7-2.2-2.2-3.6
			c-0.5-1.4-0.8-2.8-0.8-4.4c0-1.5,0.3-2.9,0.8-4.3c0.5-1.4,1.3-2.6,2.2-3.6s2.1-1.9,3.4-2.5c1.3-0.6,2.8-0.9,4.4-0.9
			c0.9,0,1.7,0.1,2.5,0.2s1.5,0.3,2.1,0.6c0.7,0.2,1.3,0.6,1.8,0.9c0.6,0.4,1.1,0.8,1.7,1.2l-1.6,1.9c-0.4-0.4-0.8-0.7-1.3-1
			s-0.9-0.6-1.5-0.8c-0.5-0.2-1.1-0.4-1.7-0.5c-0.6-0.1-1.3-0.2-2.1-0.2c-1.2,0-2.3,0.2-3.3,0.7c-1,0.5-1.9,1.1-2.6,1.9
			s-1.3,1.8-1.7,2.8c-0.4,1.1-0.6,2.2-0.6,3.5c0,1.3,0.2,2.5,0.6,3.6c0.4,1.1,1,2.1,1.7,2.9c0.7,0.8,1.6,1.4,2.7,1.9
			c1.1,0.5,2.2,0.7,3.6,0.7c1.2,0,2.4-0.2,3.5-0.6c1.1-0.4,2-0.9,2.8-1.5v-5.4h-6.6v-2.2h9v8.6C701.2,580.1,700,580.9,698.5,581.6z"
			/>
		<path class="st2" d="M753.9,580.3c-0.6,0.5-1.3,0.9-2,1.2c-0.7,0.3-1.5,0.6-2.3,0.8c-0.8,0.2-1.7,0.3-2.7,0.3
			c-1.6,0-3-0.3-4.3-0.9s-2.5-1.4-3.4-2.4c-1-1-1.7-2.2-2.3-3.5c-0.5-1.4-0.8-2.8-0.8-4.4c0-1.5,0.3-3,0.8-4.4
			c0.5-1.4,1.3-2.6,2.3-3.6c1-1,2.1-1.8,3.5-2.4c1.3-0.6,2.8-0.9,4.4-0.9c1,0,1.9,0.1,2.7,0.2c0.8,0.2,1.5,0.4,2.2,0.7
			c0.7,0.3,1.3,0.7,1.9,1.1c0.6,0.4,1.1,0.9,1.7,1.4l-1.7,1.8c-0.9-0.9-1.9-1.6-3-2.1c-1.1-0.6-2.3-0.8-3.8-0.8
			c-1.2,0-2.3,0.2-3.3,0.7c-1,0.5-1.9,1.1-2.7,1.9c-0.8,0.8-1.3,1.8-1.8,2.8s-0.6,2.3-0.6,3.5c0,1.3,0.2,2.4,0.6,3.5
			c0.4,1.1,1,2,1.8,2.9c0.8,0.8,1.6,1.4,2.7,1.9s2.1,0.7,3.3,0.7c1.5,0,2.8-0.3,3.8-0.8c1.1-0.5,2.1-1.3,3.2-2.3l1.6,1.6
			C755.1,579.3,754.5,579.8,753.9,580.3z"/>
		<path class="st2" d="M789.6,575.6c-0.5,1.4-1.3,2.5-2.3,3.6c-1,1-2.1,1.9-3.5,2.5c-1.4,0.6-2.9,0.9-4.5,0.9
			c-1.7,0-3.2-0.3-4.5-0.9c-1.4-0.6-2.5-1.4-3.5-2.4s-1.7-2.2-2.2-3.6c-0.5-1.4-0.8-2.8-0.8-4.3c0-1.5,0.3-2.9,0.8-4.3
			s1.3-2.5,2.3-3.6c1-1,2.1-1.9,3.5-2.5s2.9-0.9,4.5-0.9s3.2,0.3,4.5,0.9c1.4,0.6,2.5,1.4,3.5,2.4c1,1,1.7,2.2,2.2,3.6
			c0.5,1.4,0.8,2.8,0.8,4.3C790.4,572.8,790.2,574.2,789.6,575.6z M787.3,567.9c-0.4-1.1-1-2-1.8-2.9c-0.8-0.8-1.7-1.4-2.7-1.9
			c-1-0.5-2.2-0.7-3.4-0.7c-1.2,0-2.4,0.2-3.4,0.7c-1,0.5-1.9,1.1-2.7,1.9c-0.7,0.8-1.3,1.8-1.8,2.8c-0.4,1.1-0.6,2.2-0.6,3.5
			c0,1.2,0.2,2.4,0.6,3.5c0.4,1.1,1,2,1.8,2.9s1.7,1.4,2.7,1.9c1,0.5,2.2,0.7,3.4,0.7s2.4-0.2,3.4-0.7s1.9-1.1,2.7-1.9
			c0.7-0.8,1.3-1.8,1.8-2.8s0.6-2.2,0.6-3.5C787.9,570.1,787.7,568.9,787.3,567.9z"/>
		<path class="st2" d="M807.6,567.3c0.2,0.4,0.5,0.8,0.9,1.1c0.4,0.3,1,0.7,1.8,0.9c0.8,0.3,1.7,0.5,2.9,0.8
			c2.4,0.5,4.2,1.3,5.3,2.2s1.7,2.3,1.7,3.9c0,0.9-0.2,1.8-0.6,2.5c-0.4,0.8-0.9,1.4-1.5,2s-1.4,1-2.3,1.2c-0.9,0.3-1.9,0.4-3,0.4
			c-1.7,0-3.3-0.3-4.8-0.8s-2.8-1.4-4.1-2.6l1.5-1.8c1.1,1,2.3,1.8,3.4,2.3c1.2,0.5,2.5,0.8,4,0.8c1.5,0,2.6-0.3,3.5-1
			c0.9-0.7,1.3-1.6,1.3-2.7c0-0.5-0.1-1-0.2-1.4s-0.5-0.8-0.9-1.1c-0.4-0.3-1-0.6-1.7-0.9c-0.7-0.3-1.7-0.5-2.8-0.8
			c-1.2-0.3-2.3-0.6-3.2-0.9c-0.9-0.4-1.7-0.8-2.3-1.3c-0.6-0.5-1-1.1-1.3-1.7c-0.3-0.7-0.4-1.4-0.4-2.4c0-0.9,0.2-1.7,0.5-2.4
			c0.4-0.7,0.8-1.4,1.5-1.9c0.6-0.5,1.4-0.9,2.3-1.2c0.9-0.3,1.8-0.5,2.9-0.5c1.6,0,3,0.2,4.2,0.7c1.2,0.4,2.3,1.1,3.5,2l-1.4,1.9
			c-1-0.8-2-1.4-3.1-1.8s-2.1-0.6-3.2-0.6c-0.7,0-1.3,0.1-1.9,0.3s-1.1,0.4-1.5,0.7c-0.4,0.3-0.7,0.7-0.9,1.1s-0.3,0.9-0.3,1.4
			C807.3,566.4,807.4,566.9,807.6,567.3z"/>
		<path class="st2" d="M843,582.2h-2.4v-19.4h-7.3v-2.3h17v2.3H843V582.2z"/>
	</g>
	<path id="SVGID_x5F_4_x5F_" class="st8" d="M242.7,374.6c0,0,98-136,264.4-136s263.8,146.4,263.8,146.4"/>
	<text transform="matrix(0.6494 -0.7605 0.7605 0.6494 258.908 365.0691)" class="st9 st10"> </text>
	<g class="st7">
		<path class="st0" d="M242,316.6c1,0.4,2.1,0.4,3.5,0.2c1.4-0.2,3-0.8,5-1.8c1.9-0.9,4.3-2.2,7-3.9c3-1.8,5.9-3.2,8.5-4.4
			c2.6-1.1,5.1-1.7,7.4-1.9c2.3-0.1,4.5,0.2,6.6,1c2.1,0.8,4.1,2.2,6,4.1c2.2,2.2,3.7,4.6,4.6,7.1s1.2,5.1,0.9,7.7
			c-0.3,2.6-1.1,5.3-2.5,7.9c-1.4,2.6-3.3,5.1-5.8,7.6c-3.6,3.5-7.6,6.3-12.1,8.4c-4.5,2-9.3,3.2-14.6,3.4l-0.9-10.7
			c4.2-0.3,7.9-1,11.3-2.3c3.3-1.2,6.4-3.3,9.4-6.2c2.5-2.5,4-5,4.4-7.5c0.4-2.5-0.3-4.7-2-6.5c-0.8-0.8-1.7-1.4-2.7-1.8
			c-0.9-0.4-2.1-0.5-3.4-0.2c-1.3,0.2-2.9,0.8-4.7,1.6c-1.8,0.9-4.1,2.1-6.8,3.7c-3,1.9-5.9,3.4-8.5,4.6c-2.6,1.2-5.1,1.9-7.5,2.2
			c-2.4,0.2-4.6-0.1-6.8-0.9c-2.2-0.8-4.3-2.3-6.5-4.5c-2-2-3.4-4.3-4.3-6.7c-0.9-2.4-1.2-4.9-1-7.5c0.2-2.6,1-5.1,2.3-7.7
			c1.3-2.6,3.1-5,5.4-7.3c3.4-3.4,7-5.9,10.7-7.6c3.7-1.7,7.7-2.8,12-3.2l1.7,10.5c-3.7,0.6-6.9,1.5-9.8,2.7c-2.9,1.2-5.4,2.9-7.5,5
			c-2.4,2.4-3.7,4.7-4,7.1c-0.3,2.4,0.4,4.4,1.9,5.9C240.1,315.6,241.1,316.2,242,316.6z"/>
	</g>
	<g class="st7">
		<path class="st0" d="M348.4,280c-0.7,2.2-1.6,4.3-2.7,6.4c-1.1,2.1-2.6,4-4.3,5.9c-1.8,1.9-3.9,3.7-6.4,5.5
			c-3.9,2.8-8,4.6-12.3,5.5c-4.3,0.9-8.5,1-12.7,0.2c-4.2-0.8-8.1-2.3-11.8-4.7c-3.7-2.4-7-5.5-9.7-9.4c-2.7-3.8-4.5-7.9-5.6-12.2
			c-1-4.3-1.2-8.6-0.5-12.8c0.7-4.2,2.2-8.3,4.5-12.1c2.3-3.8,5.5-7.2,9.6-10c2.4-1.7,4.8-3.1,7.1-4.1c2.3-1,4.5-1.7,6.7-2.2
			c2.2-0.4,4.4-0.7,6.5-0.6c2.1,0,4.3,0.2,6.4,0.5L322,247c-3.5-0.5-6.9-0.5-10.2,0c-3.2,0.5-6.4,1.8-9.4,3.9
			c-2.5,1.8-4.5,3.9-6,6.5c-1.5,2.5-2.4,5.2-2.8,8c-0.4,2.8-0.2,5.7,0.6,8.6c0.7,2.9,2.1,5.7,3.9,8.3c1.9,2.6,4,4.8,6.5,6.5
			c2.5,1.7,5.1,2.9,7.9,3.5c2.8,0.6,5.6,0.7,8.5,0.1c2.9-0.5,5.6-1.7,8.1-3.5c3.3-2.3,5.6-4.9,7.1-7.8c1.5-2.9,2.6-6.2,3.4-10
			l10.3,1.9C349.6,275.5,349,277.8,348.4,280z"/>
	</g>
	<g class="st7">
		<path class="st0" d="M405,258.9l-23.9-14.3l-13.2,5.8l9.2,20.8l-10.4,4.6l-26.5-59.7l26.6-11.8c3.4-1.5,6.7-2.4,9.8-2.8
			c3.1-0.3,6-0.1,8.7,0.7c2.6,0.8,5,2.1,7,4c2.1,1.9,3.7,4.3,5,7.2c1.1,2.5,1.7,4.9,1.9,7.2c0.2,2.3-0.1,4.4-0.6,6.5
			c-0.6,2.1-1.5,4-2.8,5.8c-1.3,1.8-2.8,3.5-4.7,5l26.1,15.5L405,258.9z M380.4,212.7c-2.9-0.7-6.3-0.2-10.3,1.5l-15.3,6.8l8.9,20.1
			l15.4-6.8c3.8-1.7,6.4-3.9,7.8-6.7c1.4-2.8,1.4-5.8,0.1-8.8C385.6,215.5,383.4,213.4,380.4,212.7z"/>
	</g>
	<g class="st7">
		<path class="st0" d="M465.1,186.6l-36.1,7.6l3.5,16.4l32-6.8l2.1,10.1l-32,6.8l3.6,17.1l36.6-7.7l2.1,10.1l-47.7,10.1l-13.5-63.9
			l47.3-10L465.1,186.6z"/>
	</g>
	<g class="st7">
		<path class="st0" d="M539.2,184.2l-36.9-0.1l0,16.8L535,201l0,10.4l-32.7-0.1l0,17.4l37.4,0.1l0,10.4l-48.8-0.1l0.1-65.3l48.3,0.1
			L539.2,184.2z"/>
	</g>
	<g class="st7">
		<path class="st0" d="M613.4,188.2l11,2.7l-15.7,63.4l-9.3-2.3l-23.7-53.8l-11.2,45.1l-11-2.7l15.7-63.4l10.3,2.6l23,52.2
			L613.4,188.2z"/>
	</g>
	<g class="st7">
		<path class="st0" d="M692.1,233.5l-33-16.5l-7.5,15l29.3,14.7l-4.6,9.3l-29.3-14.7l-7.8,15.6l33.5,16.8l-4.6,9.3l-43.6-21.9
			l29.2-58.4l43.2,21.6L692.1,233.5z"/>
	</g>
	<g class="st7">
		<path class="st0" d="M736.7,308.7c-3.8,2.2-7.8,3.5-12,3.9c-4.2,0.5-8.5,0.1-12.9-1.2c-4.4-1.3-8.6-3.4-12.7-6.5l-19.4-14.8
			l39.6-51.9l19.4,14.8c4.1,3.1,7.3,6.6,9.7,10.5c2.4,3.9,3.9,7.9,4.6,12.1c0.7,4.2,0.5,8.4-0.6,12.6c-1.1,4.2-3,8.1-5.8,11.8
			C743.7,303.6,740.4,306.5,736.7,308.7z M741,284.7c0.8-2.8,1-5.6,0.7-8.4c-0.3-2.8-1.3-5.5-2.8-8.1c-1.5-2.6-3.7-4.9-6.4-7
			l-10.3-7.8L695,288.8l10.3,7.8c2.7,2.1,5.5,3.5,8.4,4.4c2.9,0.8,5.7,1.1,8.5,0.7c2.8-0.4,5.4-1.3,7.9-2.8c2.5-1.5,4.8-3.5,6.7-6.1
			C738.8,290.2,740.2,287.5,741,284.7z"/>
	</g>
	<text transform="matrix(0.7099 0.7043 -0.7043 0.7099 730.9608 331.1963)" class="st0 st11 st12"> </text>
	<g class="st7">
		<path class="st0" d="M774.9,371.9l1.9-12.3c-3.8-0.7-7.3-1.9-10.4-3.6c-3.2-1.7-6-4.2-8.4-7.4c-1.8-2.4-3.2-5-4-7.5
			c-0.9-2.6-1.2-5.1-1-7.6c0.2-2.5,0.9-4.9,2.1-7.1c1.2-2.3,2.9-4.2,5.2-5.9c3.4-2.6,7.1-3.8,10.9-3.7c3.8,0.1,7.9,1.4,12.1,3.8
			c0.8-2.9,1.8-5.4,3-7.4c1.2-2,2.8-3.7,4.7-5.2c1.8-1.3,3.7-2.3,5.9-2.8c2.1-0.5,4.3-0.5,6.4-0.1c2.2,0.4,4.3,1.2,6.4,2.5
			c2.1,1.3,4,3.1,5.8,5.5c1.6,2.1,2.7,4.2,3.3,6.4c0.6,2.2,0.8,4.3,0.6,6.4c-0.2,2.1-0.9,4-1.9,5.9c-1,1.8-2.5,3.4-4.2,4.8
			c-3.5,2.6-7.1,3.7-10.8,3.2c-3.7-0.5-7.5-2-11.5-4.5l-2.4,15.8c2.2-0.1,4.6-0.3,7-0.7c2.4-0.3,4.8-0.8,7.3-1.3l1.5,9.7
			c-2.9,0.5-5.8,1-8.7,1.3c-2.9,0.3-5.8,0.5-8.6,0.6l-2.2,14.5L774.9,371.9z M781.4,329.8c-2.9-1.7-5.5-2.5-7.8-2.4
			c-2.3,0-4.4,0.7-6.1,2c-2.2,1.7-3.5,3.9-3.7,6.6c-0.2,2.7,0.6,5.4,2.5,7.9c1.3,1.8,3,3.2,5.1,4.3c2,1,4.3,1.8,6.9,2.2L781.4,329.8
			z M809.6,323.8c0.2-1.9-0.3-3.8-1.6-5.5c-1.4-1.9-3.1-3-5.1-3.2c-2-0.2-4,0.3-5.9,1.8c-1.3,1-2.4,2.2-3.1,3.7s-1.3,3.5-1.8,6.1
			c3,1.9,5.7,3.1,8,3.6c2.3,0.4,4.4-0.1,6.4-1.5C808.4,327.4,809.4,325.7,809.6,323.8z"/>
	</g>
	<text transform="matrix(1 0 0 1 1.9437 5.4132)" class="st9 st10"> </text>
	<path id="SVGID_x5F_5_x5F_" class="st8" d="M226.3,690.7c0,0,91.1,154.5,274.9,154.5s312.3-154.5,312.3-154.5"/>
	<text transform="matrix(0.6464 0.763 -0.763 0.6464 250.1944 723.2189)" class="st9 st10"> </text>
	<g class="st7">
		<path class="st0" d="M303.8,777.4l-9-8.6l6.2-16.4l-22.9-21.8l-16.1,7l-8.7-8.3l67.8-28.5l7.9,7.5L303.8,777.4z M315.1,714.6
			l-26.8,11.5l16.7,15.9L315.1,714.6z"/>
	</g>
	<g class="st7">
		<path class="st0" d="M374.8,781.6c-2.7,1.7-5.6,2.7-8.7,3c-3.1,0.3-6.2,0-9.5-0.9c-3.3-0.9-6.5-2.3-9.6-4.3l-11.3-7.1l-11.5,18.2
			l-9.9-6.2l35.6-56.6l22.3,14.1c3.3,2.1,6,4.4,8.1,7c2.1,2.6,3.6,5.3,4.4,8.1c0.8,2.8,1,5.7,0.5,8.7c-0.5,2.9-1.6,5.9-3.4,8.8
			C379.8,777.5,377.5,779.9,374.8,781.6z M373.1,758.4c-1.1-3.1-3.6-5.8-7.3-8.2l-11.6-7.3l-12.9,20.5l11.6,7.3
			c3.8,2.4,7.4,3.3,10.7,2.8c3.4-0.5,6-2.3,8-5.4C373.8,764.7,374.3,761.5,373.1,758.4z"/>
	</g>
	<g class="st7">
		<path class="st0" d="M428,802.3c-2.3,2.2-5,3.7-7.9,4.7c-2.9,0.9-6.1,1.3-9.5,1c-3.4-0.2-6.8-1-10.3-2.3l-12.4-4.7l-7.6,20.1
			l-10.9-4.1l23.7-62.5l24.7,9.4c3.6,1.4,6.7,3.1,9.3,5.2c2.6,2.1,4.5,4.5,5.9,7.1c1.4,2.6,2.1,5.4,2.2,8.4c0.1,3-0.4,6.1-1.6,9.3
			C432.1,797.3,430.3,800.1,428,802.3z M421.8,779.9c-1.7-2.8-4.7-5-8.8-6.6l-12.8-4.9l-8.6,22.6l12.8,4.9c4.2,1.6,7.9,1.8,11.1,0.7
			c3.2-1.1,5.5-3.4,6.7-6.8C423.6,786,423.5,782.7,421.8,779.9z"/>
	</g>
	<g class="st7">
		<path class="st0" d="M472.1,844.4l-12.9-25.5l-14.6-2.1l-3.4,23.1l-11.5-1.7l9.7-66.2l29.5,4.3c3.8,0.6,7.1,1.5,10,3
			c2.9,1.4,5.3,3.2,7.1,5.3c1.8,2.1,3.1,4.6,3.9,7.3c0.8,2.8,0.9,5.8,0.4,9c-0.4,2.8-1.2,5.2-2.3,7.2c-1.1,2.1-2.5,3.8-4.1,5.3
			c-1.6,1.5-3.5,2.6-5.6,3.5c-2.1,0.9-4.4,1.5-6.8,1.8l14.2,27.7L472.1,844.4z M476,790.9c-2.1-2.2-5.4-3.6-9.7-4.3l-17-2.5
			l-3.3,22.3l17.1,2.5c4.2,0.6,7.6,0.1,10.4-1.6c2.8-1.7,4.4-4.2,4.9-7.6C479,796.1,478.2,793.1,476,790.9z"/>
	</g>
	<g class="st7">
		<path class="st0" d="M560.8,821c-1.3,4.3-3.4,8.2-6.3,11.6c-2.8,3.4-6.3,6.2-10.4,8.4c-4.1,2.2-8.7,3.6-13.8,4
			c-5.1,0.5-9.9,0-14.3-1.5c-4.4-1.4-8.3-3.6-11.6-6.4c-3.3-2.8-6-6.3-8.1-10.3c-2.1-4-3.3-8.4-3.7-13.1c-0.4-4.7,0-9.2,1.4-13.6
			c1.3-4.3,3.4-8.2,6.3-11.6c2.8-3.4,6.3-6.2,10.4-8.4c4.1-2.2,8.7-3.5,13.8-4c5.1-0.5,9.9,0,14.3,1.5c4.4,1.4,8.3,3.6,11.6,6.4
			c3.3,2.8,6,6.3,8.1,10.3c2.1,4,3.3,8.4,3.7,13.1C562.6,812.1,562.1,816.7,560.8,821z M547.4,799.7c-1.4-2.8-3.1-5.2-5.3-7.2
			c-2.2-2-4.7-3.5-7.6-4.5c-2.9-1-6-1.4-9.3-1.1c-3.3,0.3-6.3,1.2-8.9,2.7c-2.7,1.5-4.9,3.4-6.6,5.7c-1.8,2.3-3.1,4.9-4,7.9
			c-0.9,3-1.1,6.1-0.9,9.3c0.3,3.2,1.1,6.3,2.5,9c1.4,2.8,3.1,5.2,5.3,7.2c2.2,2,4.7,3.5,7.6,4.5c2.9,1,6,1.4,9.3,1.1
			c3.3-0.3,6.3-1.2,8.9-2.7c2.7-1.5,4.9-3.4,6.6-5.7c1.8-2.3,3.1-4.9,4-7.9s1.1-6.1,0.9-9.3C549.6,805.5,548.8,802.5,547.4,799.7z"
			/>
	</g>
	<g class="st7">
		<path class="st0" d="M604.4,759l12.1-3.8l-6.4,72.6l-9.8,3.1l-46.7-56L566,771l34.6,43L604.4,759z"/>
	</g>
	<g class="st7">
		<path class="st0" d="M665.6,741.2l-33.8,17.1l7.8,15.3l29.9-15.2l4.8,9.5l-29.9,15.2l8.1,15.9l34.2-17.3l4.8,9.5l-44.6,22.6
			l-30.3-59.7l44.2-22.4L665.6,741.2z"/>
	</g>
	<g class="st7">
		<path class="st0" d="M739.3,734c1,4.4,1,8.7,0.2,12.9c-0.9,4.3-2.6,8.4-5.2,12.3c-2.6,3.9-6,7.4-10.3,10.4l-20.4,14.4l-38.5-54.7
			l20.4-14.4c4.3-3,8.7-5.1,13.2-6.2c4.5-1.1,9-1.4,13.3-0.7c4.3,0.6,8.3,2.1,12.1,4.5c3.8,2.3,7,5.4,9.7,9.3
			C736.5,725.5,738.3,729.6,739.3,734z M717.1,722.4c-2.5-1.6-5.2-2.7-8-3.2c-2.8-0.5-5.7-0.4-8.8,0.3c-3,0.7-6,2.1-8.8,4.1
			l-10.8,7.6l26.3,37.4l10.8-7.6c2.9-2,5.2-4.3,6.9-6.9c1.7-2.6,2.8-5.3,3.3-8.1c0.5-2.8,0.4-5.7-0.3-8.6c-0.7-2.9-2-5.7-3.9-8.5
			C721.9,726.2,719.7,724,717.1,722.4z"/>
	</g>
	<text transform="matrix(0.7729 -0.6345 0.6345 0.7729 756.8978 744.7693)" class="st9 st10"> </text>
	<text transform="matrix(1 0 0 1 1.9437 5.4132)" class="st9 st10"> </text>
</g>
</svg>
