<?xml version="1.0" encoding="utf-8"?>
<!-- Generator: Adobe Illustrator 24.3.0, SVG Export Plug-In . SVG Version: 6.00 Build 0)  -->
<svg version="1.1" id="Layer_1" xmlns="http://www.w3.org/2000/svg" xmlns:xlink="http://www.w3.org/1999/xlink" x="0px" y="0px"
	 viewBox="0 0 1000 1000" style="enable-background:new 0 0 1000 1000;" xml:space="preserve">
<style type="text/css">
	.st0{fill:#5D6F7A;}
	.st1{fill:#FFFFFF;}
	.st2{enable-background:new    ;}
	.st3{font-family:'Gotham-Book';}
	.st4{font-size:73.4376px;}
	.st5{fill:#28373E;}
	.st6{fill:url(#SVGID_1_);}
	.st7{fill:url(#SVGID_2_);}
	.st8{fill:url(#SVGID_3_);}
	.st9{fill:#5A6163;}
</style>
<g>
	<circle class="st0" cx="500" cy="500" r="500"/>
	<path class="st1" d="M500,960.2c-62.1,0-122.4-12.2-179.1-36.2c-54.8-23.2-104-56.4-146.3-98.6c-42.3-42.3-75.4-91.5-98.6-146.3
		c-24-56.7-36.2-117-36.2-179.1c0-62.1,12.2-122.4,36.2-179.1c23.2-54.8,56.4-104,98.6-146.3c42.3-42.3,91.5-75.4,146.3-98.6
		c56.7-24,117-36.2,179.1-36.2c62.1,0,122.4,12.2,179.1,36.2c54.8,23.2,104,56.4,146.3,98.6c42.3,42.3,75.4,91.5,98.6,146.3
		c24,56.7,36.2,117,36.2,179.1c0,62.1-12.2,122.4-36.2,179.1c-23.2,54.8-56.4,104-98.6,146.3s-91.5,75.4-146.3,98.6
		C622.4,948,562.1,960.2,500,960.2z M500,72.9C264.5,72.9,72.9,264.5,72.9,500S264.5,927.1,500,927.1S927.1,735.5,927.1,500
		S735.5,72.9,500,72.9z"/>
	<g class="st2">
		<path class="st1" d="M212,415c0.4,1,1.1,1.9,2.1,2.7c1,0.8,2.4,1.5,4.3,2.2c1.8,0.7,4.1,1.3,7,1.9c5.7,1.3,10,3,12.7,5.3
			s4.1,5.4,4.1,9.3c0,2.2-0.4,4.2-1.3,6c-0.9,1.8-2.1,3.4-3.6,4.6c-1.5,1.3-3.4,2.3-5.5,2.9c-2.2,0.7-4.5,1-7,1
			c-4.1,0-7.9-0.7-11.3-2c-3.4-1.3-6.6-3.4-9.7-6.2l3.6-4.3c2.7,2.4,5.4,4.3,8.2,5.5c2.7,1.2,5.9,1.8,9.5,1.8c3.5,0,6.3-0.8,8.3-2.4
			c2.1-1.6,3.1-3.8,3.1-6.4c0-1.2-0.2-2.3-0.6-3.3c-0.4-1-1.1-1.8-2.1-2.6c-1-0.8-2.3-1.5-4.1-2.1c-1.7-0.6-4-1.2-6.7-1.8
			c-2.9-0.6-5.5-1.4-7.7-2.2c-2.2-0.8-4-1.8-5.4-3c-1.4-1.2-2.5-2.5-3.2-4.1c-0.7-1.6-1-3.4-1-5.6c0-2.1,0.4-3.9,1.2-5.7
			c0.8-1.7,2-3.2,3.5-4.5c1.5-1.2,3.3-2.2,5.4-2.9c2.1-0.7,4.3-1.1,6.8-1.1c3.8,0,7.1,0.5,9.9,1.6c2.8,1,5.5,2.6,8.2,4.7l-3.4,4.5
			c-2.4-2-4.8-3.4-7.2-4.3c-2.4-0.9-5-1.3-7.6-1.3c-1.7,0-3.2,0.2-4.5,0.7c-1.3,0.4-2.5,1-3.5,1.8s-1.7,1.6-2.2,2.6
			c-0.5,1-0.8,2.1-0.8,3.3C211.4,412.9,211.6,414,212,415z"/>
		<path class="st1" d="M295.9,428.3c0,3.8-0.5,7.1-1.5,9.9c-1,2.8-2.5,5.2-4.4,7.1c-1.9,1.9-4.1,3.3-6.8,4.3c-2.6,1-5.5,1.4-8.8,1.4
			c-3.2,0-6.1-0.5-8.7-1.4c-2.6-1-4.9-2.4-6.8-4.3c-1.9-1.9-3.3-4.2-4.4-7c-1-2.8-1.5-6-1.5-9.6v-29.9h5.8v29.5
			c0,5.6,1.4,9.9,4.1,12.9c2.8,3,6.6,4.5,11.6,4.5c4.7,0,8.5-1.4,11.3-4.3c2.8-2.8,4.2-7.1,4.2-12.7v-29.9h5.8V428.3z"/>
		<path class="st1" d="M346.5,422.6c-1.1,2.1-2.5,3.9-4.4,5.3c-1.8,1.4-4,2.5-6.4,3.2c-2.4,0.7-5,1.1-7.8,1.1h-12.5v18.1h-5.8v-51.4
			h19.2c2.9,0,5.5,0.4,7.9,1.1c2.4,0.8,4.4,1.8,6.1,3.2c1.7,1.4,3,3.1,3.9,5.1c0.9,2,1.4,4.3,1.4,6.9
			C348.1,418.1,347.6,420.5,346.5,422.6z M338.5,407.1c-2.5-1.9-5.9-2.8-10.1-2.8h-13v22.6h12.7c2.1,0,4-0.3,5.8-0.8
			c1.7-0.5,3.2-1.3,4.5-2.3c1.3-1,2.2-2.2,2.9-3.6c0.7-1.4,1-2.9,1-4.7C342.3,411.8,341.1,409,338.5,407.1z"/>
		<path class="st1" d="M395.9,404.2h-31.4v17.6h28.1v5.3h-28.1v18h31.7v5.3h-37.5v-51.4h37.2V404.2z"/>
		<path class="st1" d="M443.3,450.3l-14.9-20h-14.7v20h-5.8v-51.4H430c2.8,0,5.4,0.4,7.7,1.1c2.3,0.7,4.2,1.8,5.8,3.1
			c1.6,1.3,2.9,3,3.7,4.8c0.9,1.9,1.3,4,1.3,6.3c0,2.2-0.3,4.1-1,5.8c-0.7,1.7-1.7,3.2-2.9,4.4s-2.7,2.3-4.4,3.1
			c-1.7,0.8-3.6,1.4-5.6,1.8l15.8,21H443.3z M439.3,406.9c-2.3-1.8-5.5-2.7-9.7-2.7h-15.9v20.9h15.8c1.9,0,3.7-0.2,5.3-0.7
			s3-1.2,4.2-2.1c1.2-0.9,2.1-2,2.8-3.4c0.7-1.3,1-2.8,1-4.5C442.8,411.2,441.6,408.7,439.3,406.9z"/>
		<path class="st1" d="M488.1,415c0.4,1,1.1,1.9,2.1,2.7c1,0.8,2.4,1.5,4.3,2.2c1.8,0.7,4.1,1.3,7,1.9c5.7,1.3,10,3,12.7,5.3
			c2.7,2.3,4.1,5.4,4.1,9.3c0,2.2-0.4,4.2-1.3,6c-0.9,1.8-2.1,3.4-3.6,4.6c-1.5,1.3-3.4,2.3-5.5,2.9c-2.2,0.7-4.5,1-7,1
			c-4.1,0-7.9-0.7-11.3-2c-3.4-1.3-6.6-3.4-9.7-6.2l3.6-4.3c2.7,2.4,5.4,4.3,8.2,5.5c2.7,1.2,5.9,1.8,9.5,1.8c3.5,0,6.3-0.8,8.3-2.4
			c2.1-1.6,3.1-3.8,3.1-6.4c0-1.2-0.2-2.3-0.6-3.3c-0.4-1-1.1-1.8-2.1-2.6c-1-0.8-2.3-1.5-4.1-2.1c-1.7-0.6-4-1.2-6.7-1.8
			c-2.9-0.6-5.5-1.4-7.7-2.2c-2.2-0.8-4-1.8-5.4-3c-1.4-1.2-2.5-2.5-3.2-4.1c-0.7-1.6-1-3.4-1-5.6c0-2.1,0.4-3.9,1.2-5.7
			c0.8-1.7,2-3.2,3.5-4.5c1.5-1.2,3.3-2.2,5.4-2.9c2.1-0.7,4.3-1.1,6.8-1.1c3.8,0,7.1,0.5,9.9,1.6c2.8,1,5.5,2.6,8.2,4.7l-3.4,4.5
			c-2.4-2-4.8-3.4-7.2-4.3c-2.4-0.9-5-1.3-7.6-1.3c-1.7,0-3.2,0.2-4.5,0.7c-1.3,0.4-2.5,1-3.5,1.8s-1.7,1.6-2.2,2.6
			c-0.5,1-0.8,2.1-0.8,3.3C487.5,412.9,487.7,414,488.1,415z"/>
		<path class="st1" d="M567.2,404.2h-31.4v17.6h28.1v5.3h-28.1v18h31.7v5.3H530v-51.4h37.2V404.2z"/>
		<path class="st1" d="M614.6,450.3l-14.9-20H585v20h-5.8v-51.4h22.1c2.8,0,5.4,0.4,7.7,1.1s4.2,1.8,5.8,3.1c1.6,1.3,2.9,3,3.7,4.8
			c0.9,1.9,1.3,4,1.3,6.3c0,2.2-0.3,4.1-1,5.8c-0.7,1.7-1.7,3.2-2.9,4.4c-1.2,1.2-2.7,2.3-4.4,3.1c-1.7,0.8-3.6,1.4-5.6,1.8l15.8,21
			H614.6z M610.7,406.9c-2.3-1.8-5.5-2.7-9.7-2.7H585v20.9h15.8c1.9,0,3.7-0.2,5.3-0.7s3-1.2,4.2-2.1c1.2-0.9,2.1-2,2.8-3.4
			c0.7-1.3,1-2.8,1-4.5C614.1,411.2,613,408.7,610.7,406.9z"/>
		<path class="st1" d="M669.6,398.9h6.2l-22.1,51.8h-5.1l-22.1-51.8h6.5l18.3,44.3L669.6,398.9z"/>
		<path class="st1" d="M692.3,398.9v51.4h-5.8v-51.4H692.3z"/>
		<path class="st1" d="M747.2,445.8c-1.4,1.1-3,2-4.7,2.8c-1.7,0.8-3.5,1.4-5.4,1.8c-1.9,0.4-4,0.7-6.4,0.7c-3.7,0-7.1-0.7-10.3-2.1
			c-3.1-1.4-5.9-3.2-8.2-5.6c-2.3-2.4-4.1-5.2-5.4-8.4c-1.3-3.2-1.9-6.7-1.9-10.4c0-3.7,0.6-7.1,1.9-10.4c1.3-3.2,3.1-6.1,5.4-8.5
			c2.3-2.4,5-4.3,8.2-5.7c3.2-1.4,6.7-2.1,10.4-2.1c2.4,0,4.5,0.2,6.4,0.6c1.9,0.4,3.6,0.9,5.3,1.7c1.6,0.7,3.1,1.6,4.5,2.6
			c1.4,1,2.7,2.1,4,3.3l-4,4.3c-2.2-2.1-4.6-3.7-7.1-5.1c-2.5-1.3-5.5-2-9.1-2c-2.8,0-5.5,0.5-7.9,1.6s-4.5,2.6-6.3,4.5
			c-1.8,1.9-3.2,4.1-4.2,6.7c-1,2.6-1.5,5.3-1.5,8.3s0.5,5.8,1.5,8.4c1,2.6,2.4,4.8,4.2,6.8c1.8,1.9,3.9,3.4,6.3,4.5
			s5.1,1.7,7.9,1.7c3.5,0,6.6-0.6,9.1-1.9c2.5-1.3,5-3.1,7.5-5.5l3.8,3.7C750.1,443.5,748.7,444.7,747.2,445.8z"/>
		<path class="st1" d="M798.7,404.2h-31.4v17.6h28.1v5.3h-28.1v18H799v5.3h-37.5v-51.4h37.2V404.2z"/>
	</g>
	<text transform="matrix(1 0 0 1 199.6489 280.5059)" class="st3 st4">SUPER SERVICE</text>
	<g class="st2">
		<path class="st1" d="M288,588.2l-9.1-22.4h-42.2l-9.1,22.4h-22.4L248,487.7h20.2L311,588.2H288z M257.8,514.1l-13.2,32.3h26.5
			L257.8,514.1z"/>
		<path class="st1" d="M435.9,588.9h-19.1l-22.5-65.3l-22.5,65.3h-19.1l-34.1-100.4h23.5l20.7,67.5l22.4-67.8H404l22.4,67.8
			l20.7-67.5H470L435.9,588.9z"/>
		<path class="st1" d="M560.5,588.2l-9.1-22.4h-42.2l-9.1,22.4h-22.4l42.7-100.4h20.2l42.7,100.4H560.5z M530.3,514.1L517,546.4
			h26.5L530.3,514.1z"/>
		<path class="st1" d="M659.3,588.2L638,556.3h-17.2v31.9h-21.9v-99.7h45.6c11.9,0,21.1,2.9,27.7,8.7c6.6,5.8,9.9,13.9,9.9,24.2v0.3
			c0,8.1-2,14.7-5.9,19.7c-3.9,5.1-9.1,8.8-15.5,11.2l24.4,35.6H659.3z M659.8,522.5c0-4.7-1.5-8.3-4.6-10.7
			c-3-2.4-7.3-3.6-12.7-3.6h-21.8v28.6H643c5.4,0,9.6-1.3,12.5-3.8c2.9-2.6,4.3-6,4.3-10.3V522.5z"/>
		<path class="st1" d="M789.8,558c-2.6,6.1-6.2,11.4-10.9,15.8c-4.7,4.5-10.3,8-16.8,10.5c-6.5,2.6-13.7,3.8-21.4,3.8h-38.9v-99.7
			h38.9c7.8,0,14.9,1.3,21.4,3.8c6.5,2.5,12.1,6,16.8,10.5c4.7,4.5,8.3,9.7,10.9,15.7c2.6,6,3.8,12.6,3.8,19.6v0.3
			C793.7,545.4,792.4,551.9,789.8,558z M770.8,538.3c0-4.4-0.7-8.4-2.2-12.1c-1.5-3.7-3.5-6.9-6.1-9.5c-2.6-2.7-5.8-4.7-9.5-6.2
			c-3.7-1.5-7.8-2.2-12.3-2.2h-17v60.1h17c4.5,0,8.5-0.7,12.3-2.1c3.7-1.4,6.9-3.5,9.5-6.1c2.6-2.7,4.7-5.8,6.1-9.4
			c1.5-3.6,2.2-7.6,2.2-12.1V538.3z"/>
	</g>
	<g>
		<path class="st1" d="M500,892.2c166.2,0,308.1-103.4,365.3-249.3H134.7C191.9,788.9,333.8,892.2,500,892.2z"/>
		<path class="st1" d="M500,107.8c-158.3,0-294.6,93.8-356.6,228.9h713.2C794.6,201.6,658.3,107.8,500,107.8z"/>
	</g>
	<g class="st2">
		<path class="st5" d="M356.7,216.4v-15.2h18.1v15.2H356.7z M357.2,283.6v-60.5h17.2v60.5H357.2z"/>
		<path class="st5" d="M434.1,283.6V275c-2.1,2.8-4.6,5.2-7.6,7c-3,1.8-6.7,2.7-11.2,2.7c-3.5,0-7-0.7-10.3-2
			c-3.3-1.4-6.2-3.4-8.8-6c-2.6-2.7-4.6-5.9-6.2-9.8c-1.5-3.9-2.3-8.3-2.3-13.4v-0.2c0-5,0.8-9.5,2.3-13.4c1.5-3.9,3.6-7.1,6.1-9.8
			c2.5-2.7,5.4-4.7,8.7-6c3.3-1.4,6.8-2,10.4-2c4.6,0,8.4,0.9,11.3,2.7c3,1.8,5.5,3.9,7.5,6.3v-29.7h17.2v82.4H434.1z M434.4,253.2
			c0-2.5-0.4-4.8-1.2-6.9c-0.8-2.1-1.8-3.9-3.2-5.3c-1.3-1.5-2.9-2.6-4.6-3.4c-1.8-0.8-3.7-1.2-5.7-1.2c-2,0-3.9,0.4-5.7,1.2
			c-1.8,0.8-3.3,1.9-4.7,3.4c-1.4,1.5-2.4,3.2-3.2,5.3c-0.8,2-1.2,4.4-1.2,6.9v0.2c0,2.5,0.4,4.8,1.2,6.9c0.8,2.1,1.9,3.9,3.2,5.3
			c1.4,1.5,2.9,2.6,4.7,3.4c1.8,0.8,3.7,1.2,5.7,1.2c2,0,3.9-0.4,5.7-1.2c1.8-0.8,3.3-1.9,4.6-3.4c1.3-1.5,2.4-3.3,3.2-5.3
			c0.8-2.1,1.2-4.4,1.2-6.9V253.2z"/>
		<path class="st5" d="M502.1,283.6V277c-2.1,2.3-4.6,4.2-7.6,5.6c-2.9,1.4-6.5,2.1-10.7,2.1c-2.9,0-5.5-0.4-8.1-1.2
			c-2.5-0.8-4.7-2-6.6-3.6c-1.9-1.6-3.4-3.5-4.5-5.8c-1.1-2.3-1.6-4.9-1.6-8V266c0-3.3,0.6-6.2,1.8-8.6c1.2-2.4,2.9-4.4,5-6
			s4.7-2.8,7.7-3.6c3-0.8,6.3-1.2,9.9-1.2c3.1,0,5.8,0.2,8.1,0.7c2.3,0.5,4.5,1.1,6.7,1.8v-1c0-3.6-1.1-6.4-3.3-8.2
			c-2.2-1.9-5.4-2.8-9.7-2.8c-3.3,0-6.2,0.3-8.7,0.8c-2.5,0.6-5.2,1.4-8,2.4l-4.3-13.1c3.3-1.4,6.8-2.6,10.4-3.5
			c3.6-0.9,8-1.4,13.1-1.4c9.4,0,16.3,2.3,20.5,6.9c4.3,4.6,6.4,11,6.4,19.2v35.1H502.1z M502.4,259.2c-1.5-0.7-3.2-1.2-5-1.6
			c-1.8-0.4-3.8-0.6-5.9-0.6c-3.7,0-6.6,0.7-8.7,2.1c-2.1,1.4-3.2,3.5-3.2,6.2v0.2c0,2.3,0.9,4.1,2.6,5.4c1.7,1.3,4,1.9,6.8,1.9
			c4.1,0,7.3-1,9.8-2.9c2.4-2,3.7-4.5,3.7-7.7V259.2z"/>
		<path class="st5" d="M571.7,283.6v-33.7c0-4.1-0.9-7.1-2.7-9.2c-1.8-2.1-4.4-3.1-7.7-3.1c-3.3,0-5.9,1-7.8,3.1
			c-1.9,2.1-2.9,5.1-2.9,9.2v33.7h-17.2v-82.4h17.2v30.5c1-1.3,2-2.5,3.2-3.7c1.2-1.2,2.5-2.2,3.9-3.1c1.4-0.9,3-1.6,4.7-2.2
			c1.7-0.5,3.7-0.8,5.9-0.8c6.5,0,11.6,2,15.2,6c3.6,4,5.4,9.5,5.4,16.5v39.2H571.7z"/>
		<path class="st5" d="M663.8,265.7c-1.7,3.8-4,7.1-6.9,10c-2.9,2.9-6.4,5.1-10.4,6.8s-8.4,2.5-13.1,2.5c-4.7,0-9-0.8-13-2.4
			c-4-1.6-7.4-3.8-10.3-6.7c-2.9-2.8-5.2-6.1-6.8-9.9c-1.7-3.8-2.5-7.9-2.5-12.2v-0.2c0-4.4,0.8-8.4,2.5-12.2c1.7-3.8,4-7.1,6.9-10
			c2.9-2.9,6.4-5.1,10.4-6.8c4-1.7,8.4-2.5,13.1-2.5c4.7,0,9,0.8,13,2.4c4,1.6,7.4,3.8,10.3,6.7c2.9,2.8,5.2,6.1,6.8,9.9
			c1.7,3.8,2.5,7.9,2.5,12.2v0.2C666.3,257.8,665.5,261.9,663.8,265.7z M649.4,253.4c0-2.3-0.4-4.4-1.1-6.4c-0.8-2-1.8-3.8-3.3-5.3
			c-1.4-1.5-3.1-2.8-5.1-3.7c-2-0.9-4.1-1.4-6.4-1.4c-2.5,0-4.7,0.4-6.6,1.3c-1.9,0.9-3.6,2.1-4.9,3.6c-1.4,1.5-2.4,3.3-3.1,5.2
			c-0.7,2-1.1,4.1-1.1,6.4v0.2c0,2.3,0.4,4.4,1.1,6.4c0.8,2,1.8,3.8,3.3,5.3c1.4,1.5,3.1,2.8,5,3.7c1.9,0.9,4.1,1.4,6.5,1.4
			c2.5,0,4.7-0.4,6.6-1.3c1.9-0.9,3.6-2,4.9-3.6c1.4-1.5,2.4-3.3,3.1-5.2c0.7-2,1.1-4.1,1.1-6.4V253.4z"/>
	</g>
	<g class="st2">
		<path class="st5" d="M370,313.5l-5.3-7.1h-5.2v7.1h-2.1v-18.2h7.8c1,0,1.9,0.1,2.7,0.4c0.8,0.3,1.5,0.6,2.1,1.1
			c0.6,0.5,1,1,1.3,1.7c0.3,0.7,0.5,1.4,0.5,2.2c0,0.8-0.1,1.4-0.4,2s-0.6,1.1-1,1.6s-1,0.8-1.6,1.1c-0.6,0.3-1.3,0.5-2,0.6l5.6,7.4
			H370z M368.6,298.1c-0.8-0.6-2-1-3.4-1h-5.6v7.4h5.6c0.7,0,1.3-0.1,1.9-0.3s1.1-0.4,1.5-0.7c0.4-0.3,0.7-0.7,1-1.2
			c0.2-0.5,0.4-1,0.4-1.6C369.9,299.6,369.4,298.8,368.6,298.1z"/>
		<path class="st5" d="M402.4,308c-0.5,1.1-1.1,2.1-1.9,3c-0.8,0.9-1.8,1.6-2.9,2.1c-1.1,0.5-2.4,0.8-3.8,0.8s-2.6-0.3-3.8-0.8
			c-1.1-0.5-2.1-1.2-2.9-2c-0.8-0.9-1.4-1.9-1.9-3c-0.4-1.1-0.7-2.3-0.7-3.6s0.2-2.5,0.7-3.6c0.5-1.1,1.1-2.1,1.9-3
			c0.8-0.9,1.8-1.6,2.9-2.1s2.4-0.8,3.8-0.8c1.4,0,2.6,0.3,3.8,0.8s2.1,1.2,2.9,2c0.8,0.9,1.4,1.9,1.9,3c0.4,1.1,0.7,2.3,0.7,3.6
			C403,305.6,402.8,306.8,402.4,308z M400.4,301.5c-0.4-0.9-0.9-1.7-1.5-2.4c-0.6-0.7-1.4-1.2-2.3-1.6c-0.9-0.4-1.8-0.6-2.9-0.6
			s-2,0.2-2.9,0.6c-0.9,0.4-1.6,0.9-2.3,1.6c-0.6,0.7-1.1,1.5-1.5,2.4c-0.4,0.9-0.5,1.9-0.5,2.9c0,1,0.2,2,0.5,2.9
			c0.4,0.9,0.9,1.7,1.5,2.4c0.6,0.7,1.4,1.2,2.3,1.6c0.9,0.4,1.8,0.6,2.9,0.6s2-0.2,2.9-0.6c0.9-0.4,1.6-0.9,2.2-1.6
			c0.6-0.7,1.1-1.5,1.5-2.4c0.4-0.9,0.5-1.9,0.5-2.9C400.9,303.4,400.7,302.4,400.4,301.5z"/>
		<path class="st5" d="M433.5,308c-0.5,1.1-1.1,2.1-1.9,3c-0.8,0.9-1.8,1.6-2.9,2.1c-1.1,0.5-2.4,0.8-3.8,0.8s-2.6-0.3-3.8-0.8
			c-1.1-0.5-2.1-1.2-2.9-2c-0.8-0.9-1.4-1.9-1.9-3c-0.4-1.1-0.7-2.3-0.7-3.6s0.2-2.5,0.7-3.6c0.5-1.1,1.1-2.1,1.9-3
			c0.8-0.9,1.8-1.6,2.9-2.1s2.4-0.8,3.8-0.8c1.4,0,2.6,0.3,3.8,0.8s2.1,1.2,2.9,2c0.8,0.9,1.4,1.9,1.9,3c0.4,1.1,0.7,2.3,0.7,3.6
			C434.1,305.6,433.9,306.8,433.5,308z M431.5,301.5c-0.4-0.9-0.9-1.7-1.5-2.4c-0.6-0.7-1.4-1.2-2.3-1.6c-0.9-0.4-1.8-0.6-2.9-0.6
			s-2,0.2-2.9,0.6c-0.9,0.4-1.6,0.9-2.3,1.6c-0.6,0.7-1.1,1.5-1.5,2.4c-0.4,0.9-0.5,1.9-0.5,2.9c0,1,0.2,2,0.5,2.9
			c0.4,0.9,0.9,1.7,1.5,2.4c0.6,0.7,1.4,1.2,2.3,1.6c0.9,0.4,1.8,0.6,2.9,0.6s2-0.2,2.9-0.6c0.9-0.4,1.6-0.9,2.2-1.6
			c0.6-0.7,1.1-1.5,1.5-2.4c0.4-0.9,0.5-1.9,0.5-2.9C432,303.4,431.8,302.4,431.5,301.5z"/>
		<path class="st5" d="M460.5,297.2h-11v6.5h9.9v1.9h-9.9v7.9h-2.1v-18.2h13.1V297.2z"/>
		<path class="st5" d="M475.7,295.3v18.2h-2.1v-18.2H475.7z"/>
		<path class="st5" d="M503.4,295.3h2v18.2h-1.6L492,298.5v14.9h-2v-18.2h1.9l11.5,14.6V295.3z"/>
		<path class="st5" d="M532.2,313c-1.2,0.5-2.6,0.8-4.2,0.8c-1.4,0-2.7-0.2-3.9-0.7c-1.1-0.5-2.1-1.2-2.9-2c-0.8-0.8-1.4-1.8-1.8-3
			c-0.4-1.1-0.6-2.4-0.6-3.7c0-1.2,0.2-2.4,0.7-3.6c0.4-1.1,1.1-2.2,1.9-3s1.8-1.6,2.9-2.1c1.1-0.5,2.4-0.8,3.7-0.8
			c0.8,0,1.5,0.1,2.1,0.2c0.6,0.1,1.2,0.3,1.8,0.5c0.5,0.2,1.1,0.5,1.5,0.8c0.5,0.3,0.9,0.6,1.4,1l-1.3,1.6
			c-0.3-0.3-0.7-0.6-1.1-0.8c-0.4-0.3-0.8-0.5-1.2-0.7c-0.4-0.2-0.9-0.3-1.5-0.4c-0.5-0.1-1.1-0.2-1.8-0.2c-1,0-1.9,0.2-2.8,0.6
			c-0.9,0.4-1.6,0.9-2.2,1.6c-0.6,0.7-1.1,1.5-1.4,2.4c-0.3,0.9-0.5,1.9-0.5,2.9c0,1.1,0.2,2.1,0.5,3c0.3,0.9,0.8,1.7,1.4,2.4
			c0.6,0.7,1.4,1.2,2.3,1.6c0.9,0.4,1.9,0.6,3,0.6c1,0,2-0.2,2.9-0.5c0.9-0.4,1.7-0.8,2.3-1.3v-4.5h-5.5v-1.8h7.5v7.2
			C534.5,311.8,533.4,312.4,532.2,313z"/>
		<path class="st5" d="M579.8,311.9c-0.5,0.4-1.1,0.7-1.7,1c-0.6,0.3-1.2,0.5-1.9,0.7c-0.7,0.2-1.4,0.2-2.3,0.2
			c-1.3,0-2.5-0.2-3.6-0.7c-1.1-0.5-2.1-1.1-2.9-2c-0.8-0.8-1.5-1.8-1.9-3s-0.7-2.4-0.7-3.7c0-1.3,0.2-2.5,0.7-3.7s1.1-2.1,1.9-3
			s1.8-1.5,2.9-2c1.1-0.5,2.4-0.7,3.7-0.7c0.8,0,1.6,0.1,2.2,0.2c0.7,0.1,1.3,0.3,1.9,0.6c0.6,0.3,1.1,0.6,1.6,0.9
			c0.5,0.4,1,0.8,1.4,1.2l-1.4,1.5c-0.8-0.7-1.6-1.3-2.5-1.8c-0.9-0.5-2-0.7-3.2-0.7c-1,0-1.9,0.2-2.8,0.6s-1.6,0.9-2.2,1.6
			c-0.6,0.7-1.1,1.5-1.5,2.4s-0.5,1.9-0.5,3c0,1.1,0.2,2,0.5,3s0.8,1.7,1.5,2.4c0.6,0.7,1.4,1.2,2.2,1.6c0.9,0.4,1.8,0.6,2.8,0.6
			c1.2,0,2.3-0.2,3.2-0.7c0.9-0.5,1.8-1.1,2.7-1.9l1.4,1.3C580.8,311.1,580.4,311.5,579.8,311.9z"/>
		<path class="st5" d="M610.4,308c-0.5,1.1-1.1,2.1-1.9,3s-1.8,1.6-2.9,2.1c-1.1,0.5-2.4,0.8-3.8,0.8c-1.4,0-2.6-0.3-3.8-0.8
			c-1.1-0.5-2.1-1.2-2.9-2c-0.8-0.9-1.4-1.9-1.9-3c-0.4-1.1-0.7-2.3-0.7-3.6s0.2-2.5,0.7-3.6c0.5-1.1,1.1-2.1,1.9-3
			c0.8-0.9,1.8-1.6,2.9-2.1s2.4-0.8,3.8-0.8s2.6,0.3,3.8,0.8c1.1,0.5,2.1,1.2,2.9,2c0.8,0.9,1.4,1.9,1.9,3c0.4,1.1,0.7,2.3,0.7,3.6
			C611.1,305.6,610.9,306.8,610.4,308z M608.5,301.5c-0.4-0.9-0.9-1.7-1.5-2.4c-0.6-0.7-1.4-1.2-2.3-1.6c-0.9-0.4-1.8-0.6-2.9-0.6
			c-1,0-2,0.2-2.9,0.6c-0.9,0.4-1.6,0.9-2.2,1.6c-0.6,0.7-1.1,1.5-1.5,2.4c-0.4,0.9-0.5,1.9-0.5,2.9c0,1,0.2,2,0.5,2.9
			c0.4,0.9,0.9,1.7,1.5,2.4s1.4,1.2,2.3,1.6c0.9,0.4,1.8,0.6,2.9,0.6s2-0.2,2.9-0.6c0.9-0.4,1.6-0.9,2.2-1.6
			c0.6-0.7,1.1-1.5,1.5-2.4c0.4-0.9,0.5-1.9,0.5-2.9C609,303.4,608.8,302.4,608.5,301.5z"/>
		<path class="st5" d="M626.1,301c0.1,0.3,0.4,0.7,0.8,1c0.4,0.3,0.9,0.5,1.5,0.8c0.6,0.2,1.5,0.5,2.5,0.7c2,0.5,3.5,1.1,4.5,1.9
			c1,0.8,1.4,1.9,1.4,3.3c0,0.8-0.2,1.5-0.5,2.1c-0.3,0.6-0.7,1.2-1.3,1.6c-0.5,0.5-1.2,0.8-2,1c-0.8,0.2-1.6,0.4-2.5,0.4
			c-1.5,0-2.8-0.2-4-0.7s-2.4-1.2-3.4-2.2l1.3-1.5c1,0.9,1.9,1.5,2.9,1.9c1,0.4,2.1,0.6,3.4,0.6c1.2,0,2.2-0.3,3-0.9
			c0.7-0.6,1.1-1.3,1.1-2.3c0-0.4-0.1-0.8-0.2-1.2c-0.1-0.3-0.4-0.6-0.7-0.9c-0.3-0.3-0.8-0.5-1.4-0.8c-0.6-0.2-1.4-0.4-2.4-0.7
			c-1-0.2-2-0.5-2.7-0.8c-0.8-0.3-1.4-0.7-1.9-1.1c-0.5-0.4-0.9-0.9-1.1-1.5c-0.2-0.6-0.4-1.2-0.4-2c0-0.7,0.1-1.4,0.4-2
			c0.3-0.6,0.7-1.1,1.2-1.6c0.5-0.4,1.2-0.8,1.9-1s1.5-0.4,2.4-0.4c1.3,0,2.5,0.2,3.5,0.6c1,0.4,2,0.9,2.9,1.7l-1.2,1.6
			c-0.8-0.7-1.7-1.2-2.6-1.5c-0.9-0.3-1.8-0.5-2.7-0.5c-0.6,0-1.1,0.1-1.6,0.2c-0.5,0.2-0.9,0.4-1.2,0.6c-0.3,0.3-0.6,0.6-0.8,0.9
			c-0.2,0.4-0.3,0.8-0.3,1.2C625.9,300.2,626,300.6,626.1,301z"/>
		<path class="st5" d="M656.4,313.5h-2.1v-16.3h-6.1v-1.9h14.3v1.9h-6.1V313.5z"/>
	</g>
	<g>
		<polygon class="st5" points="523.5,162.4 520,159.2 542.8,134.7 568.2,155.9 565.2,159.5 543.2,141.1 		"/>
		
			<linearGradient id="SVGID_1_" gradientUnits="userSpaceOnUse" x1="504.44" y1="855.745" x2="542.98" y2="855.745" gradientTransform="matrix(1 0 0 -1 0 1002)">
			<stop  offset="0" style="stop-color:#4E73D1"/>
			<stop  offset="1" style="stop-color:#269BD6"/>
		</linearGradient>
		<polygon class="st6" points="543,134.8 504.4,142.6 521.8,157.7 		"/>
		
			<linearGradient id="SVGID_2_" gradientUnits="userSpaceOnUse" x1="594.55" y1="832.815" x2="521.11" y2="832.815" gradientTransform="matrix(1 0 0 -1 0 1002)">
			<stop  offset="0" style="stop-color:#4E73D1"/>
			<stop  offset="1" style="stop-color:#269BD6"/>
		</linearGradient>
		<polygon class="st7" points="521.1,161.4 594.5,150.4 554.3,187.9 		"/>
		
			<linearGradient id="SVGID_3_" gradientUnits="userSpaceOnUse" x1="436.2" y1="841.67" x2="554.44" y2="841.67" gradientTransform="matrix(1 0 0 -1 0 1002)">
			<stop  offset="0" style="stop-color:#4E73D1"/>
			<stop  offset="0.3209" style="stop-color:#467BD2"/>
			<stop  offset="0.8232" style="stop-color:#3091D5"/>
			<stop  offset="1" style="stop-color:#269BD6"/>
		</linearGradient>
		<polygon class="st8" points="436.2,132.7 506,143.1 554.4,187.9 495.3,187.9 		"/>
		<polygon class="st5" points="664.2,193.4 632.1,193.4 594.5,156.8 555.3,192.4 494.4,192.4 436.2,139.1 379.1,193.4 355.8,193.4 
			355.8,188.7 377.2,188.7 436.2,132.6 496.2,187.7 553.5,187.7 594.6,150.3 634,188.7 664.2,188.7 		"/>
		<g>
			<path class="st5" d="M435.4,169v-8.7c-4.4,0.2-7.9,3.8-7.9,8.2v0.5L435.4,169L435.4,169z"/>
			<path class="st5" d="M436.1,169h7.9v-0.5c0-4.4-3.5-8-7.9-8.2V169z"/>
			<rect x="427.5" y="169.7" class="st5" width="7.9" height="7"/>
			<rect x="436.1" y="169.7" class="st5" width="7.9" height="7"/>
		</g>
		<g>
			<path class="st5" d="M594.3,173.9v-6.4c-3.2,0.1-5.8,2.8-5.8,6v0.4H594.3z"/>
			<path class="st5" d="M594.8,173.9h5.8v-0.4c0-3.2-2.6-5.9-5.8-6V173.9z"/>
			<rect x="588.5" y="174.5" class="st5" width="5.8" height="5.1"/>
			<rect x="594.8" y="174.5" class="st5" width="5.8" height="5.1"/>
		</g>
		<g>
			<path class="st5" d="M543.3,149v-3.4c-1.7,0.1-3,1.5-3,3.2v0.2H543.3z"/>
			<path class="st5" d="M543.6,149h3v-0.2c0-1.7-1.3-3.1-3-3.2V149z"/>
			<rect x="540.3" y="149.3" class="st5" width="3" height="2.7"/>
			<rect x="543.6" y="149.3" class="st5" width="3" height="2.7"/>
		</g>
		<polygon class="st9" points="381.3,193.4 435.4,140.8 384.8,193.4 		"/>
		<polygon class="st9" points="492.3,192.5 436.9,141.5 488.7,192.6 		"/>
		<polygon class="st9" points="557.8,192.4 594.3,157.7 560.1,192.4 		"/>
		<polygon class="st9" points="629.6,193.3 594.4,157.6 627.4,193.2 		"/>
	</g>
	<g class="st2">
		<path class="st0" d="M334.4,702.8c-3.7,2.7-7.8,6.8-12.4,12.5L303,700c3-4.1,6.1-7.8,9.2-10.9c3.1-3.2,6.4-5.9,10-8
			c3.6-2.2,7.5-3.8,11.8-4.9c4.3-1.1,9.2-1.7,14.7-1.7c6.5,0,12.4,0.9,17.6,2.7c5.2,1.8,9.6,4.4,13.3,7.7s6.5,7.3,8.4,12
			c1.9,4.7,2.9,9.9,2.9,15.6c0,5.1-0.7,9.7-2,13.8c-1.3,4-3.3,7.9-6,11.5c-2.6,3.6-6,7.2-10.1,10.8c-4.1,3.6-8.8,7.5-14.2,11.7
			l-20,15.4h53.5v23.3h-90.9v-21.4l40.9-33.5c3.9-3.2,7.1-6,9.8-8.5c2.7-2.5,4.9-4.9,6.6-7.2c1.7-2.3,2.9-4.5,3.7-6.7
			c0.8-2.2,1.1-4.5,1.1-7.1c0-5.3-1.5-9.2-4.6-11.9c-3-2.7-7-4-11.9-4C342.3,698.8,338.1,700.1,334.4,702.8z"/>
		<path class="st0" d="M516.8,762.4c-2.6,7.7-6.3,14.4-11.1,20.2c-4.8,5.7-10.6,10.2-17.3,13.5c-6.7,3.3-14.2,4.9-22.4,4.9
			c-8.2,0-15.6-1.6-22.4-4.8c-6.7-3.2-12.5-7.7-17.2-13.4c-4.7-5.7-8.4-12.4-11-20.1c-2.6-7.7-3.9-16-3.9-25c0-8.9,1.3-17.2,3.9-25
			c2.6-7.8,6.3-14.5,11.1-20.3c4.8-5.7,10.6-10.2,17.3-13.5c6.7-3.3,14.2-4.9,22.4-4.9c8.2,0,15.6,1.6,22.4,4.8
			c6.7,3.2,12.5,7.7,17.2,13.4c4.7,5.7,8.4,12.5,11,20.2c2.6,7.7,3.9,16,3.9,24.9C520.8,746.4,519.5,754.7,516.8,762.4z
			 M491.1,722.1c-1.3-4.8-3.1-8.9-5.4-12.5c-2.3-3.5-5.2-6.3-8.5-8.2c-3.3-2-7-3-11.1-3c-4.1,0-7.8,1-11.1,2.9
			c-3.3,1.9-6.1,4.6-8.4,8.1c-2.3,3.5-4.1,7.6-5.4,12.4c-1.2,4.8-1.8,10-1.8,15.6c0,5.6,0.6,10.8,1.9,15.6c1.3,4.8,3.1,8.9,5.4,12.5
			c2.3,3.5,5.2,6.3,8.5,8.2c3.3,2,7,3,11.1,3c4.1,0,7.8-1,11.1-2.9c3.3-1.9,6.1-4.6,8.4-8.2c2.3-3.5,4.1-7.6,5.4-12.4
			c1.2-4.7,1.8-9.9,1.8-15.5S492.4,726.9,491.1,722.1z"/>
		<path class="st0" d="M571.8,702.8c-3.7,2.7-7.8,6.8-12.4,12.5L540.4,700c3-4.1,6.1-7.8,9.2-10.9c3.1-3.2,6.4-5.9,10-8
			c3.6-2.2,7.5-3.8,11.8-4.9c4.3-1.1,9.2-1.7,14.7-1.7c6.5,0,12.4,0.9,17.6,2.7c5.2,1.8,9.7,4.4,13.3,7.7s6.5,7.3,8.4,12
			c1.9,4.7,2.9,9.9,2.9,15.6c0,5.1-0.7,9.7-2,13.8c-1.3,4-3.3,7.9-6,11.5c-2.6,3.6-6,7.2-10.1,10.8c-4.1,3.6-8.8,7.5-14.2,11.7
			l-20,15.4h53.5v23.3h-90.9v-21.4l40.9-33.5c3.9-3.2,7.1-6,9.8-8.5c2.7-2.5,4.9-4.9,6.6-7.2c1.7-2.3,2.9-4.5,3.7-6.7
			c0.8-2.2,1.1-4.5,1.1-7.1c0-5.3-1.5-9.2-4.6-11.9c-3-2.7-7-4-11.9-4C579.7,698.8,575.4,700.1,571.8,702.8z"/>
		<path class="st0" d="M679,675.2h18.4v123.7h-26.7v-96.3l-21.4,5.3l-5.6-22.1L679,675.2z"/>
	</g>
</g>
</svg>
