<?xml version="1.0" encoding="utf-8"?>
<!-- Generator: Adobe Illustrator 24.3.0, SVG Export Plug-In . SVG Version: 6.00 Build 0)  -->
<svg version="1.1" id="Layer_1" xmlns="http://www.w3.org/2000/svg" xmlns:xlink="http://www.w3.org/1999/xlink" x="0px" y="0px"
	 viewBox="0 0 1000 1000" style="enable-background:new 0 0 1000 1000;" xml:space="preserve">
<style type="text/css">
	.st0{fill:#5D6F7A;}
	.st1{fill:#F7901E;}
	.st2{fill:#FFFFFF;}
	.st3{enable-background:new    ;}
	.st4{fill:#28373E;}
	.st5{fill:url(#SVGID_1_);}
	.st6{fill:url(#SVGID_2_);}
	.st7{fill:url(#SVGID_3_);}
	.st8{fill:#5A6163;}
</style>
<g>
	<g>
		<path class="st0" d="M503.5,998c-9.4,0-18.8-1.7-27.7-5.2L101.6,846.7c-24.3-9.5-40-32.4-40-58.5V109.4C61.6,50.2,109.8,2,169,2
			H831c59.2,0,107.4,48.2,107.4,107.4v679c0,25.9-15.5,48.8-39.6,58.4l0,0L531.6,992.6C522.5,996.2,513,998,503.5,998z M169,28.7
			c-44.5,0-80.7,36.2-80.7,80.7v678.8c0,15,9,28.1,22.9,33.6l374.2,146.1c11.7,4.6,24.5,4.5,36.2-0.1l367.2-145.9l0,0
			c13.8-5.5,22.7-18.6,22.7-33.5v-679c0-44.5-36.2-80.7-80.7-80.7H169z"/>
	</g>
	<path class="st0" d="M75,623h850v165.4c0,20.2-12.3,38.5-31.2,45.9L526.6,980.2c-14.8,5.9-31.2,5.9-46,0.1L106.4,834.2
		c-19-7.4-31.4-25.7-31.4-46V623z"/>
	<g>
		<path class="st1" d="M847.2,732.2c-2.4,0-4.9-0.6-7.1-1.8l-42.5-22.4L755,730.5c-2.2,1.2-4.6,1.8-7.1,1.8c-4.5,0-8.7-2-11.7-5.4
			c-2.9-3.4-4.1-7.9-3.3-12.4l8.1-47.4l-34.4-33.5c-4.2-4.1-5.7-10-3.8-15.6c1.8-5.5,6.5-9.5,12.3-10.4l47.6-6.9l21.3-43.1
			c2.6-5.2,7.8-8.5,13.7-8.5s11.1,3.2,13.7,8.5l21.3,43.1l47.6,6.9c5.8,0.8,10.5,4.8,12.3,10.4c1.8,5.5,0.3,11.5-3.8,15.6L854.1,667
			l8.1,47.4c0.8,4.4-0.5,8.9-3.3,12.4C855.9,730.2,851.7,732.2,847.2,732.2z"/>
		<path class="st2" d="M797.6,559.1c1.8,0,3.7,1,4.6,2.9l23.6,47.8l52.8,7.7c4.2,0.6,5.9,5.8,2.9,8.8l-38.2,37.2l9,52.6
			c0.6,3.3-2.1,6.1-5.1,6.1c-0.8,0-1.6-0.2-2.4-0.6l-47.2-24.8l-47.2,24.8c-0.8,0.4-1.6,0.6-2.4,0.6c-3,0-5.7-2.7-5.1-6.1l9-52.6
			l-38.2-37.2c-3.1-3-1.4-8.2,2.9-8.8l52.8-7.7L793,562C793.9,560.1,795.7,559.1,797.6,559.1 M797.6,539c-9.7,0-18.4,5.4-22.7,14.1
			L756,591.4l-42.3,6.2c-9.6,1.4-17.4,8-20.4,17.2s-0.5,19.1,6.4,25.9l30.6,29.9l-7.2,42.2c-1.3,7.4,0.8,14.8,5.6,20.5
			c4.8,5.7,11.9,9,19.3,9c4.1,0,8.1-1,11.8-2.9l37.9-19.9l37.9,19.9c3.6,1.9,7.7,2.9,11.8,2.9c7.5,0,14.5-3.3,19.3-9
			c4.8-5.7,6.8-13.2,5.6-20.5l-7.2-42.2l30.6-29.9c6.9-6.8,9.4-16.7,6.4-25.9c-3-9.2-10.8-15.8-20.4-17.2l-42.3-6.2l-18.9-38.4
			C815.9,544.4,807.3,539,797.6,539L797.6,539z"/>
	</g>
	<g>
		<path class="st1" d="M259.2,732.2c-2.4,0-4.9-0.6-7.1-1.8l-42.5-22.4l-42.5,22.4c-2.2,1.2-4.6,1.8-7.1,1.8c-4.5,0-8.7-2-11.7-5.4
			c-2.9-3.4-4.1-7.9-3.4-12.4l8.1-47.4l-34.4-33.5c-4.2-4.1-5.7-10-3.8-15.6s6.5-9.5,12.3-10.4l47.6-6.9l21.3-43.1
			c2.6-5.2,7.8-8.5,13.6-8.5s11.1,3.2,13.6,8.5l21.3,43.1l47.6,6.9c5.8,0.8,10.5,4.8,12.3,10.4c1.8,5.5,0.3,11.5-3.9,15.6L266.1,667
			l8.1,47.4c0.8,4.4-0.5,8.9-3.4,12.4C268,730.2,263.7,732.2,259.2,732.2z"/>
		<path class="st2" d="M209.6,559.1c1.9,0,3.7,1,4.6,2.9l23.6,47.8l52.8,7.7c4.2,0.6,5.9,5.8,2.9,8.8l-38.2,37.2l9,52.6
			c0.6,3.3-2.1,6.1-5.1,6.1c-0.8,0-1.6-0.2-2.4-0.6l-47.2-24.8l-47.2,24.8c-0.8,0.4-1.6,0.6-2.4,0.6c-3,0-5.7-2.7-5.1-6.1l9-52.6
			l-38.2-37.2c-3.1-3-1.4-8.2,2.9-8.8l52.8-7.7L205,562C205.9,560.1,207.7,559.1,209.6,559.1 M209.6,539c-9.7,0-18.4,5.4-22.6,14.1
			L168,591.5l-42.3,6.2c-9.6,1.4-17.4,8-20.4,17.2s-0.5,19.1,6.4,25.9l30.6,29.9l-7.2,42.2c-1.3,7.4,0.8,14.8,5.6,20.5
			c4.8,5.7,11.9,9,19.3,9c4.1,0,8.1-1,11.8-2.9l37.9-19.9l37.9,19.9c3.6,1.9,7.7,2.9,11.8,2.9c7.5,0,14.5-3.3,19.3-9
			c4.8-5.7,6.8-13.2,5.6-20.5l-7.2-42.2l30.6-29.9c6.9-6.8,9.4-16.7,6.4-25.9c-3-9.2-10.8-15.8-20.4-17.2l-42.3-6.2l-18.9-38.4
			C228,544.4,219.3,539,209.6,539L209.6,539z"/>
	</g>
	<g>
		<path class="st1" d="M732.2,765.7c-2.7,0-5.5-0.7-7.9-2l-58.2-30.6l-58.2,30.6c-2.4,1.3-5.2,2-7.9,2c-5,0-9.7-2.2-13-6.1
			c-3.2-3.8-4.6-8.8-3.7-13.8l11.1-64.9l-47.1-45.9c-4.7-4.5-6.3-11.2-4.3-17.4s7.2-10.6,13.7-11.5l65.1-9.5l29.1-59
			c2.9-5.8,8.7-9.5,15.2-9.5s12.3,3.6,15.2,9.5l29.1,59l65.1,9.5c6.4,0.9,11.7,5.3,13.7,11.5c2,6.2,0.4,12.8-4.3,17.4L737.8,681
			l11.1,64.9c0.8,4.9-0.5,10-3.7,13.8C742,763.5,737.2,765.7,732.2,765.7z"/>
		<path class="st2" d="M666.1,538.3c2.5,0,4.9,1.3,6.2,3.8l31.5,63.8l70.3,10.2c5.7,0.8,7.9,7.8,3.8,11.8L727,677.5l12,70.1
			c0.8,4.5-2.8,8.1-6.8,8.1c-1.1,0-2.2-0.2-3.2-0.8l-62.9-33.1l-62.9,33.1c-1.1,0.6-2.2,0.8-3.2,0.8c-4,0-7.6-3.6-6.8-8.1l12-70.1
			l-50.9-49.6c-4.1-4-1.8-11,3.8-11.8l70.3-10.2l31.5-63.8C661.2,539.6,663.6,538.3,666.1,538.3 M666.1,518.2
			c-10.3,0-19.6,5.8-24.2,15l-26.8,54.3l-59.9,8.7c-10.2,1.5-18.6,8.5-21.8,18.4c-3.2,9.8-0.6,20.4,6.8,27.7l43.3,42.2l-10.2,59.7
			c-1.3,7.9,0.8,15.9,5.9,21.9c5.2,6.1,12.7,9.6,20.7,9.6c4.3,0,8.7-1.1,12.6-3.1l53.6-28.2l53.6,28.2c3.9,2,8.2,3.1,12.6,3.1
			c8,0,15.5-3.5,20.7-9.6c5.1-6.1,7.3-14.1,5.9-21.9l-10.2-59.7l43.3-42.2c7.4-7.2,10-17.8,6.8-27.7c-3.2-9.8-11.5-16.9-21.8-18.4
			l-59.9-8.7l-26.8-54.3C685.7,524,676.5,518.2,666.1,518.2L666.1,518.2z"/>
	</g>
	<g>
		<path class="st1" d="M407.5,765.7c-2.7,0-5.5-0.7-7.9-2l-58.2-30.6l-58.2,30.6c-2.4,1.3-5.2,2-7.9,2c-5,0-9.7-2.2-13-6.1
			c-3.2-3.8-4.6-8.8-3.7-13.8l11.1-64.9l-47.1-45.9c-4.6-4.5-6.3-11.2-4.3-17.4c2-6.2,7.2-10.6,13.7-11.5l65.1-9.5l29.1-59
			c2.9-5.8,8.7-9.5,15.2-9.5s12.3,3.6,15.2,9.5l29.1,59l65.1,9.5c6.4,0.9,11.7,5.3,13.7,11.5c2,6.2,0.4,12.8-4.3,17.4L413,681
			l11.1,64.9c0.9,4.9-0.5,10-3.7,13.8C417.2,763.5,412.5,765.7,407.5,765.7z"/>
		<path class="st2" d="M341.3,538.3c2.5,0,4.9,1.3,6.2,3.8l31.5,63.7l70.4,10.2c5.7,0.8,7.9,7.8,3.8,11.8l-50.9,49.6l12,70.1
			c0.8,4.5-2.8,8.1-6.8,8.1c-1.1,0-2.2-0.2-3.2-0.8l-62.9-33.1l-62.9,33.1c-1.1,0.6-2.1,0.8-3.2,0.8c-4,0-7.6-3.6-6.8-8.1l12-70.1
			l-50.9-49.6c-4.1-4-1.8-11,3.8-11.8l70.3-10.2l31.5-63.8C336.4,539.6,338.9,538.3,341.3,538.3 M341.3,518.2
			c-10.4,0-19.6,5.8-24.2,15l-26.8,54.3l-59.9,8.7c-10.2,1.5-18.6,8.5-21.8,18.4c-3.2,9.8-0.6,20.4,6.8,27.7l43.3,42.2l-10.2,59.7
			c-1.4,7.9,0.8,15.9,5.9,21.9c5.2,6.1,12.7,9.6,20.7,9.6c4.3,0,8.7-1.1,12.6-3.1l53.6-28.2l53.6,28.2c3.9,2,8.2,3.1,12.6,3.1
			c8,0,15.5-3.5,20.7-9.6c5.1-6.1,7.3-14.1,5.9-21.9l-10.2-59.7l43.3-42.2c7.4-7.2,10-17.8,6.8-27.7c-3.2-9.8-11.5-16.9-21.8-18.4
			l-59.9-8.7l-26.8-54.3C361,524,351.7,518.2,341.3,518.2L341.3,518.2z"/>
	</g>
	<g>
		<path class="st1" d="M585.4,785.8c-3,0-6.1-0.8-8.8-2.2l-76.3-40.1L424,783.6c-2.7,1.4-5.8,2.2-8.8,2.2c-5.6,0-10.9-2.5-14.5-6.8
			c-3.6-4.2-5.1-9.8-4.1-15.4l14.6-85l-61.7-60.2c-5.2-5.1-7-12.5-4.8-19.4s8.1-11.8,15.3-12.9l85.3-12.4l38.1-77.3
			c3.2-6.5,9.7-10.5,17-10.5s13.8,4,17,10.5l38.2,77.3l85.3,12.4c7.2,1,13,6,15.3,12.9c2.2,6.9,0.4,14.3-4.8,19.4l-61.7,60.2
			l14.6,85c1,5.5-0.6,11.1-4.2,15.4C596.3,783.3,591,785.8,585.4,785.8z"/>
		<path class="st2" d="M500.3,496c3.2,0,6.3,1.6,8,5l40.5,82l90.5,13.2c7.3,1.1,10.2,10,4.9,15.2l-65.5,63.9l15.5,90.2
			c1,5.7-3.6,10.4-8.8,10.4c-1.4,0-2.8-0.3-4.1-1l-81-42.6l-81,42.6c-1.4,0.7-2.8,1-4.1,1c-5.2,0-9.7-4.7-8.8-10.4l15.5-90.2
			l-65.5-63.9c-5.3-5.1-2.4-14.1,4.9-15.2l90.5-13.2l40.5-82C494,497.6,497.1,496,500.3,496 M500.3,475.9c-11.1,0-21.1,6.2-26,16.1
			l-35.8,72.6l-80.1,11.6c-11,1.6-20,9.2-23.4,19.7c-3.4,10.6-0.6,21.9,7.3,29.7l58,56.5l-13.7,79.8c-1.5,8.4,0.9,17,6.4,23.5
			c5.5,6.6,13.6,10.3,22.2,10.3c4.6,0,9.3-1.2,13.5-3.3l71.6-37.7l71.6,37.7c4.2,2.2,8.8,3.3,13.5,3.3c8.5,0,16.6-3.8,22.2-10.3
			c5.5-6.5,7.8-15.1,6.4-23.5l-13.7-79.8l58-56.5c8-7.8,10.8-19.1,7.3-29.7c-3.4-10.6-12.4-18.1-23.4-19.7l-80.1-11.6l-35.8-72.6
			C521.4,482.1,511.4,475.9,500.3,475.9L500.3,475.9z"/>
	</g>
	<g class="st3">
		<path class="st4" d="M321.9,150.3v-17.5h20.8v17.5H321.9z M322.4,227.6V158h19.7v69.6H322.4z"/>
		<path class="st4" d="M411,227.6v-9.9c-2.4,3.3-5.3,5.9-8.8,8.1c-3.4,2.1-7.7,3.2-12.9,3.2c-4.1,0-8-0.8-11.8-2.3
			c-3.8-1.6-7.2-3.9-10.1-6.9c-2.9-3.1-5.3-6.8-7.1-11.3c-1.8-4.5-2.7-9.6-2.7-15.4v-0.3c0-5.8,0.9-10.9,2.7-15.4
			c1.8-4.5,4.1-8.2,7-11.3c2.9-3.1,6.3-5.4,10.1-6.9c3.8-1.6,7.8-2.3,11.9-2.3c5.3,0,9.6,1,13.1,3.1c3.4,2.1,6.3,4.5,8.6,7.2v-34.2
			h19.7v94.8H411z M411.2,192.7c0-2.9-0.5-5.5-1.4-7.9s-2.1-4.4-3.6-6.1c-1.5-1.7-3.3-3-5.3-3.9c-2-0.9-4.2-1.4-6.6-1.4
			c-2.3,0-4.5,0.5-6.6,1.4c-2,0.9-3.8,2.2-5.4,3.9c-1.6,1.7-2.8,3.7-3.7,6.1c-0.9,2.4-1.4,5-1.4,8v0.3c0,2.9,0.5,5.5,1.4,7.9
			c0.9,2.4,2.1,4.4,3.7,6.1c1.6,1.7,3.4,3,5.4,3.9c2,0.9,4.2,1.4,6.6,1.4c2.3,0,4.5-0.5,6.6-1.4c2-0.9,3.8-2.2,5.3-3.9
			c1.5-1.7,2.7-3.7,3.6-6.1s1.4-5,1.4-7.9V192.7z"/>
		<path class="st4" d="M489.1,227.6v-7.5c-2.4,2.7-5.3,4.8-8.7,6.4c-3.4,1.6-7.5,2.4-12.3,2.4c-3.3,0-6.4-0.5-9.3-1.4
			c-2.9-0.9-5.4-2.3-7.6-4.1c-2.2-1.8-3.9-4-5.1-6.7c-1.3-2.6-1.9-5.7-1.9-9.2v-0.3c0-3.8,0.7-7.1,2.1-9.9c1.4-2.8,3.3-5.1,5.8-6.9
			c2.5-1.8,5.4-3.2,8.8-4.1c3.4-0.9,7.2-1.4,11.4-1.4c3.5,0,6.6,0.3,9.3,0.8c2.6,0.5,5.2,1.2,7.7,2.1v-1.2c0-4.2-1.3-7.3-3.8-9.5
			c-2.5-2.2-6.2-3.2-11.2-3.2c-3.8,0-7.2,0.3-10.1,1c-2.9,0.6-6,1.6-9.2,2.8l-4.9-15.1c3.8-1.6,7.8-3,11.9-4s9.2-1.6,15.1-1.6
			c10.8,0,18.7,2.6,23.6,7.9c4.9,5.3,7.4,12.6,7.4,22.1v40.4H489.1z M489.5,199.6c-1.7-0.8-3.7-1.4-5.8-1.9
			c-2.1-0.5-4.4-0.7-6.8-0.7c-4.2,0-7.6,0.8-10,2.5c-2.4,1.6-3.6,4-3.6,7.1v0.3c0,2.7,1,4.8,3,6.2c2,1.5,4.6,2.2,7.8,2.2
			c4.7,0,8.4-1.1,11.2-3.4c2.8-2.2,4.2-5.2,4.2-8.8V199.6z"/>
		<path class="st4" d="M569.3,227.6v-38.7c0-4.7-1-8.2-3.1-10.6c-2.1-2.4-5-3.6-8.8-3.6c-3.8,0-6.8,1.2-9,3.6s-3.3,5.9-3.3,10.6
			v38.7h-19.7v-94.8H545V168c1.1-1.5,2.4-2.9,3.7-4.3c1.3-1.4,2.8-2.5,4.5-3.6c1.6-1,3.5-1.9,5.5-2.5c2-0.6,4.2-0.9,6.8-0.9
			c7.5,0,13.4,2.3,17.5,6.9c4.1,4.6,6.2,10.9,6.2,19v45.1H569.3z"/>
		<path class="st4" d="M675.2,207c-1.9,4.4-4.5,8.2-7.9,11.5c-3.4,3.3-7.4,5.9-11.9,7.8c-4.6,1.9-9.6,2.9-15.1,2.9
			c-5.4,0-10.3-0.9-14.9-2.8c-4.6-1.9-8.6-4.4-11.9-7.7c-3.3-3.2-6-7.1-7.9-11.4c-1.9-4.4-2.9-9.1-2.9-14.1v-0.3c0-5,1-9.7,2.9-14.1
			c1.9-4.4,4.5-8.2,7.9-11.5c3.4-3.3,7.4-5.9,11.9-7.8c4.6-1.9,9.6-2.9,15.1-2.9c5.4,0,10.3,0.9,14.9,2.8c4.6,1.9,8.5,4.4,11.9,7.7
			c3.3,3.2,6,7.1,7.9,11.4c1.9,4.4,2.9,9.1,2.9,14.1v0.3C678.1,198,677.1,202.7,675.2,207z M658.6,192.9c0-2.6-0.4-5-1.3-7.3
			c-0.9-2.3-2.1-4.3-3.8-6.1c-1.6-1.8-3.6-3.2-5.8-4.2c-2.3-1-4.7-1.6-7.4-1.6c-2.9,0-5.4,0.5-7.6,1.5c-2.2,1-4.1,2.4-5.7,4.1
			c-1.6,1.7-2.7,3.7-3.6,6c-0.8,2.3-1.2,4.7-1.2,7.3v0.3c0,2.6,0.4,5,1.3,7.3c0.9,2.3,2.1,4.3,3.8,6.1c1.6,1.8,3.6,3.2,5.8,4.2
			c2.2,1,4.7,1.6,7.5,1.6c2.9,0,5.4-0.5,7.6-1.5c2.2-1,4.1-2.4,5.6-4.1c1.6-1.7,2.7-3.7,3.6-6c0.8-2.3,1.2-4.7,1.2-7.3V192.9z"/>
	</g>
	<g class="st3">
		<path class="st4" d="M337.2,262l-6.1-8.1h-6v8.1h-2.4v-21h9c1.2,0,2.2,0.2,3.1,0.4c0.9,0.3,1.7,0.7,2.4,1.3c0.7,0.5,1.2,1.2,1.5,2
			c0.4,0.8,0.5,1.6,0.5,2.6c0,0.9-0.1,1.7-0.4,2.4c-0.3,0.7-0.7,1.3-1.2,1.8c-0.5,0.5-1.1,0.9-1.8,1.3c-0.7,0.3-1.5,0.6-2.3,0.7
			l6.4,8.6H337.2z M335.6,244.4c-0.9-0.7-2.3-1.1-4-1.1h-6.5v8.5h6.5c0.8,0,1.5-0.1,2.2-0.3c0.7-0.2,1.2-0.5,1.7-0.9
			c0.5-0.4,0.9-0.8,1.1-1.4c0.3-0.5,0.4-1.2,0.4-1.8C337,246.1,336.5,245.1,335.6,244.4z"/>
		<path class="st4" d="M374.1,255.7c-0.5,1.3-1.2,2.5-2.2,3.5c-0.9,1-2.1,1.8-3.4,2.4c-1.3,0.6-2.8,0.9-4.4,0.9
			c-1.6,0-3-0.3-4.4-0.9c-1.3-0.6-2.4-1.4-3.4-2.3c-0.9-1-1.7-2.1-2.2-3.4c-0.5-1.3-0.8-2.7-0.8-4.1c0-1.5,0.3-2.8,0.8-4.1
			c0.5-1.3,1.2-2.5,2.2-3.5c0.9-1,2.1-1.8,3.4-2.4c1.3-0.6,2.8-0.9,4.4-0.9c1.6,0,3,0.3,4.4,0.9c1.3,0.6,2.4,1.4,3.4,2.3
			c0.9,1,1.7,2.1,2.2,3.4s0.8,2.7,0.8,4.1C374.8,253,374.6,254.4,374.1,255.7z M371.8,248.2c-0.4-1.1-1-2-1.7-2.8
			c-0.7-0.8-1.6-1.4-2.6-1.9c-1-0.5-2.1-0.7-3.3-0.7s-2.3,0.2-3.3,0.7c-1,0.4-1.9,1.1-2.6,1.8s-1.3,1.7-1.7,2.7
			c-0.4,1-0.6,2.2-0.6,3.4s0.2,2.3,0.6,3.4c0.4,1.1,1,2,1.7,2.8s1.6,1.4,2.6,1.9c1,0.5,2.1,0.7,3.3,0.7s2.3-0.2,3.3-0.7
			c1-0.4,1.9-1.1,2.6-1.8s1.3-1.7,1.7-2.7c0.4-1,0.6-2.2,0.6-3.4S372.2,249.3,371.8,248.2z"/>
		<path class="st4" d="M409.5,255.7c-0.5,1.3-1.2,2.5-2.2,3.5c-0.9,1-2.1,1.8-3.4,2.4c-1.3,0.6-2.8,0.9-4.4,0.9
			c-1.6,0-3-0.3-4.4-0.9c-1.3-0.6-2.4-1.4-3.4-2.3c-0.9-1-1.7-2.1-2.2-3.4c-0.5-1.3-0.8-2.7-0.8-4.1c0-1.5,0.3-2.8,0.8-4.1
			c0.5-1.3,1.2-2.5,2.2-3.5c0.9-1,2.1-1.8,3.4-2.4c1.3-0.6,2.8-0.9,4.4-0.9c1.6,0,3,0.3,4.4,0.9c1.3,0.6,2.4,1.4,3.4,2.3
			c0.9,1,1.7,2.1,2.2,3.4s0.8,2.7,0.8,4.1C410.3,253,410,254.4,409.5,255.7z M407.2,248.2c-0.4-1.1-1-2-1.7-2.8
			c-0.7-0.8-1.6-1.4-2.6-1.9c-1-0.5-2.1-0.7-3.3-0.7s-2.3,0.2-3.3,0.7c-1,0.4-1.9,1.1-2.6,1.8s-1.3,1.7-1.7,2.7
			c-0.4,1-0.6,2.2-0.6,3.4s0.2,2.3,0.6,3.4c0.4,1.1,1,2,1.7,2.8s1.6,1.4,2.6,1.9c1,0.5,2.1,0.7,3.3,0.7s2.3-0.2,3.3-0.7
			c1-0.4,1.9-1.1,2.6-1.8s1.3-1.7,1.7-2.7c0.4-1,0.6-2.2,0.6-3.4S407.6,249.3,407.2,248.2z"/>
		<path class="st4" d="M440.3,243.3h-12.7v7.5H439v2.2h-11.3v9.1h-2.4v-21h15.1V243.3z"/>
		<path class="st4" d="M457.5,241.1v21h-2.4v-21H457.5z"/>
		<path class="st4" d="M489,241.1h2.3v21h-1.9l-13.5-17.2V262h-2.3v-21h2.2l13.2,16.8V241.1z"/>
		<path class="st4" d="M521.8,261.5c-1.4,0.6-3,0.9-4.8,0.9c-1.7,0-3.1-0.3-4.4-0.8c-1.3-0.6-2.4-1.3-3.4-2.3s-1.6-2.1-2.1-3.4
			c-0.5-1.3-0.7-2.7-0.7-4.2c0-1.4,0.3-2.8,0.8-4.1c0.5-1.3,1.2-2.5,2.1-3.5c0.9-1,2-1.8,3.3-2.4c1.3-0.6,2.7-0.9,4.3-0.9
			c0.9,0,1.7,0.1,2.4,0.2c0.7,0.1,1.4,0.3,2,0.5c0.6,0.2,1.2,0.5,1.8,0.9c0.5,0.3,1.1,0.7,1.6,1.2l-1.5,1.8c-0.4-0.4-0.8-0.7-1.3-1
			s-0.9-0.5-1.4-0.7c-0.5-0.2-1.1-0.4-1.7-0.5c-0.6-0.1-1.3-0.2-2-0.2c-1.2,0-2.2,0.2-3.2,0.7c-1,0.5-1.8,1.1-2.5,1.9
			c-0.7,0.8-1.2,1.7-1.6,2.7s-0.6,2.2-0.6,3.3c0,1.3,0.2,2.4,0.6,3.5c0.4,1.1,0.9,2,1.7,2.8s1.6,1.4,2.6,1.8c1,0.4,2.2,0.7,3.4,0.7
			c1.2,0,2.3-0.2,3.4-0.6c1.1-0.4,1.9-0.9,2.7-1.5V253h-6.4v-2.1h8.7v8.3C524.4,260.1,523.2,260.8,521.8,261.5z"/>
		<path class="st4" d="M576,260.2c-0.6,0.4-1.2,0.8-1.9,1.2c-0.7,0.3-1.4,0.6-2.2,0.7s-1.6,0.3-2.6,0.3c-1.5,0-2.9-0.3-4.2-0.8
			c-1.3-0.6-2.4-1.3-3.3-2.3c-0.9-1-1.7-2.1-2.2-3.4c-0.5-1.3-0.8-2.7-0.8-4.2c0-1.5,0.3-2.9,0.8-4.2c0.5-1.3,1.3-2.5,2.2-3.5
			c0.9-1,2.1-1.8,3.4-2.3c1.3-0.6,2.7-0.9,4.3-0.9c1,0,1.8,0.1,2.6,0.2c0.8,0.2,1.5,0.4,2.1,0.7c0.7,0.3,1.3,0.6,1.8,1
			s1.1,0.9,1.6,1.4l-1.6,1.7c-0.9-0.8-1.9-1.5-2.9-2.1c-1-0.5-2.3-0.8-3.7-0.8c-1.2,0-2.2,0.2-3.2,0.7c-1,0.4-1.8,1-2.6,1.8
			s-1.3,1.7-1.7,2.7s-0.6,2.2-0.6,3.4s0.2,2.4,0.6,3.4s1,2,1.7,2.8s1.6,1.4,2.6,1.8c1,0.4,2.1,0.7,3.2,0.7c1.4,0,2.7-0.3,3.7-0.8
			c1-0.5,2.1-1.3,3.1-2.2l1.6,1.5C577.1,259.3,576.6,259.8,576,260.2z"/>
		<path class="st4" d="M610.9,255.7c-0.5,1.3-1.2,2.5-2.2,3.5c-0.9,1-2.1,1.8-3.4,2.4c-1.3,0.6-2.8,0.9-4.4,0.9s-3-0.3-4.4-0.9
			c-1.3-0.6-2.4-1.4-3.4-2.3c-0.9-1-1.7-2.1-2.2-3.4c-0.5-1.3-0.8-2.7-0.8-4.1c0-1.5,0.3-2.8,0.8-4.1c0.5-1.3,1.2-2.5,2.2-3.5
			c0.9-1,2.1-1.8,3.4-2.4c1.3-0.6,2.8-0.9,4.4-0.9c1.6,0,3,0.3,4.4,0.9c1.3,0.6,2.4,1.4,3.4,2.3c0.9,1,1.7,2.1,2.2,3.4
			s0.8,2.7,0.8,4.1C611.6,253,611.4,254.4,610.9,255.7z M608.6,248.2c-0.4-1.1-1-2-1.7-2.8s-1.6-1.4-2.6-1.9s-2.1-0.7-3.3-0.7
			s-2.3,0.2-3.3,0.7c-1,0.4-1.9,1.1-2.6,1.8c-0.7,0.8-1.3,1.7-1.7,2.7c-0.4,1-0.6,2.2-0.6,3.4s0.2,2.3,0.6,3.4c0.4,1.1,1,2,1.7,2.8
			s1.6,1.4,2.6,1.9c1,0.5,2.1,0.7,3.3,0.7s2.3-0.2,3.3-0.7c1-0.4,1.9-1.1,2.6-1.8c0.7-0.8,1.3-1.7,1.7-2.7c0.4-1,0.6-2.2,0.6-3.4
			S609,249.3,608.6,248.2z"/>
		<path class="st4" d="M628.5,247.6c0.2,0.4,0.4,0.8,0.9,1.1c0.4,0.3,1,0.6,1.7,0.9c0.7,0.3,1.7,0.5,2.8,0.8
			c2.3,0.5,4.1,1.2,5.2,2.2c1.1,0.9,1.7,2.2,1.7,3.8c0,0.9-0.2,1.7-0.5,2.5s-0.8,1.4-1.5,1.9s-1.4,0.9-2.3,1.2
			c-0.9,0.3-1.8,0.4-2.9,0.4c-1.7,0-3.2-0.3-4.6-0.8c-1.4-0.5-2.7-1.4-4-2.5l1.5-1.7c1.1,1,2.2,1.7,3.3,2.2c1.1,0.5,2.4,0.7,3.9,0.7
			c1.4,0,2.5-0.3,3.4-1c0.8-0.7,1.3-1.5,1.3-2.6c0-0.5-0.1-0.9-0.2-1.3c-0.2-0.4-0.4-0.7-0.8-1.1c-0.4-0.3-1-0.6-1.7-0.9
			c-0.7-0.3-1.6-0.5-2.7-0.8c-1.2-0.3-2.2-0.6-3.1-0.9s-1.6-0.7-2.2-1.2c-0.6-0.5-1-1-1.3-1.7c-0.3-0.6-0.4-1.4-0.4-2.3
			c0-0.8,0.2-1.6,0.5-2.3c0.3-0.7,0.8-1.3,1.4-1.8s1.3-0.9,2.2-1.2c0.8-0.3,1.8-0.4,2.8-0.4c1.5,0,2.9,0.2,4,0.6s2.3,1.1,3.3,1.9
			l-1.4,1.8c-1-0.8-2-1.4-2.9-1.7c-1-0.4-2-0.5-3.1-0.5c-0.7,0-1.3,0.1-1.8,0.3c-0.5,0.2-1,0.4-1.4,0.7c-0.4,0.3-0.7,0.7-0.9,1.1
			c-0.2,0.4-0.3,0.9-0.3,1.3C628.3,246.8,628.4,247.2,628.5,247.6z"/>
		<path class="st4" d="M663.1,262h-2.4v-18.8h-7v-2.2h16.4v2.2h-7V262z"/>
	</g>
	<g>
		<polygon class="st4" points="513.7,88.2 509.8,84.6 536,56.3 565.2,80.7 561.8,84.9 536.4,63.8 		"/>
		
			<linearGradient id="SVGID_1_" gradientUnits="userSpaceOnUse" x1="491.8351" y1="932.3743" x2="536.1851" y2="932.3743" gradientTransform="matrix(1 0 0 -1 0 1002)">
			<stop  offset="0" style="stop-color:#4E73D1"/>
			<stop  offset="1" style="stop-color:#269BD6"/>
		</linearGradient>
		<polygon class="st5" points="536.2,56.5 491.8,65.4 511.8,82.8 		"/>
		
			<linearGradient id="SVGID_2_" gradientUnits="userSpaceOnUse" x1="595.5251" y1="905.9943" x2="511.0151" y2="905.9943" gradientTransform="matrix(1 0 0 -1 0 1002)">
			<stop  offset="0" style="stop-color:#4E73D1"/>
			<stop  offset="1" style="stop-color:#269BD6"/>
		</linearGradient>
		<polygon class="st6" points="511,87 595.5,74.4 549.2,117.6 		"/>
		
			<linearGradient id="SVGID_3_" gradientUnits="userSpaceOnUse" x1="413.3151" y1="916.1843" x2="549.3751" y2="916.1843" gradientTransform="matrix(1 0 0 -1 0 1002)">
			<stop  offset="0" style="stop-color:#4E73D1"/>
			<stop  offset="0.3209" style="stop-color:#467BD2"/>
			<stop  offset="0.8232" style="stop-color:#3091D5"/>
			<stop  offset="1" style="stop-color:#269BD6"/>
		</linearGradient>
		<polygon class="st7" points="413.3,54.1 493.6,66 549.4,117.6 481.3,117.6 		"/>
		<polygon class="st4" points="675.7,123.9 638.8,123.9 595.5,81.7 550.4,122.7 480.3,122.7 413.4,61.3 347.6,123.9 320.8,123.9 
			320.8,118.5 345.4,118.5 413.3,54 482.4,117.3 548.3,117.3 595.6,74.3 641,118.5 675.7,118.5 		"/>
		<g>
			<path class="st4" d="M412.4,95.8v-10c-5,0.2-9,4.4-9,9.5v0.6H412.4z"/>
			<path class="st4" d="M413.3,95.8h9v-0.6c0-5.1-4-9.2-9-9.5V95.8z"/>
			<rect x="403.4" y="96.6" class="st4" width="9" height="8.1"/>
			<rect x="413.3" y="96.6" class="st4" width="9" height="8.1"/>
		</g>
		<g>
			<path class="st4" d="M595.2,101.5v-7.3c-3.7,0.2-6.6,3.2-6.6,6.9v0.4H595.2z"/>
			<path class="st4" d="M595.8,101.5h6.6v-0.4c0-3.7-2.9-6.8-6.6-6.9V101.5z"/>
			<rect x="588.6" y="102.1" class="st4" width="6.6" height="5.9"/>
			<rect x="595.8" y="102.1" class="st4" width="6.6" height="5.9"/>
		</g>
		<g>
			<path class="st4" d="M536.6,72.8V69c-1.9,0.1-3.5,1.7-3.5,3.6v0.2H536.6z"/>
			<path class="st4" d="M536.9,72.8h3.5v-0.2c0-2-1.5-3.6-3.5-3.6V72.8z"/>
			<rect x="533.1" y="73.1" class="st4" width="3.5" height="3.1"/>
			<rect x="536.9" y="73.1" class="st4" width="3.5" height="3.1"/>
		</g>
		<polygon class="st8" points="350.1,123.9 412.4,63.4 354.2,123.9 		"/>
		<polygon class="st8" points="477.8,122.8 414.2,64.1 473.8,122.9 		"/>
		<polygon class="st8" points="553.3,122.8 595.2,82.8 555.8,122.8 		"/>
		<polygon class="st8" points="635.9,123.7 595.3,82.7 633.3,123.6 		"/>
	</g>
	<g class="st3">
		<path class="st1" d="M180.4,366.2v67.6h-18.7v-67.6H136V349h70.2v17.2H180.4z"/>
		<path class="st1" d="M303.5,408.4c-2.3,5.3-5.4,9.9-9.4,13.9c-4,4-8.8,7.1-14.3,9.4c-5.5,2.3-11.6,3.5-18.1,3.5s-12.6-1.2-18-3.5
			c-5.5-2.3-10.2-5.4-14.2-9.3c-4-3.9-7.1-8.5-9.3-13.8c-2.2-5.3-3.3-11-3.3-17v-0.2c0-6.1,1.1-11.7,3.4-17
			c2.3-5.3,5.4-9.9,9.4-13.9c4-4,8.8-7.1,14.3-9.4c5.5-2.3,11.6-3.5,18.1-3.5c6.5,0,12.6,1.2,18,3.5c5.5,2.3,10.2,5.4,14.2,9.3
			c4,3.9,7.1,8.5,9.3,13.8c2.2,5.3,3.3,11,3.3,17v0.2C306.9,397.4,305.8,403.1,303.5,408.4z M287.4,391.3c0-3.6-0.6-7.1-1.9-10.3
			c-1.3-3.2-3-6.1-5.3-8.5c-2.3-2.4-5-4.3-8.2-5.8c-3.1-1.4-6.6-2.1-10.3-2.1c-3.8,0-7.2,0.7-10.4,2.1c-3.1,1.4-5.8,3.3-8,5.7
			c-2.2,2.4-4,5.2-5.2,8.4c-1.3,3.2-1.9,6.6-1.9,10.2v0.2c0,3.6,0.6,7.1,1.9,10.3c1.3,3.2,3,6.1,5.3,8.5c2.3,2.4,5,4.3,8.1,5.8
			c3.1,1.4,6.6,2.1,10.4,2.1c3.7,0,7.1-0.7,10.3-2.1c3.1-1.4,5.8-3.3,8.1-5.7c2.2-2.4,4-5.2,5.2-8.4c1.3-3.2,1.9-6.6,1.9-10.2V391.3
			z"/>
		<path class="st1" d="M387.9,391.5c-1.8,3.7-4.2,6.8-7.3,9.3c-3.1,2.5-6.7,4.4-10.9,5.6c-4.2,1.3-8.6,1.9-13.4,1.9h-14.2v25.4
			h-18.7V349h34.6c5.1,0,9.6,0.7,13.6,2.1c4,1.4,7.4,3.4,10.2,6c2.8,2.6,4.9,5.7,6.4,9.3c1.5,3.6,2.2,7.6,2.2,11.9v0.2
			C390.6,383.4,389.7,387.8,387.9,391.5z M371.7,378.6c0-4.2-1.4-7.4-4.1-9.6c-2.7-2.2-6.4-3.3-11.1-3.3h-14.4v25.9h14.8
			c4.7,0,8.3-1.2,10.9-3.7c2.6-2.5,3.9-5.5,3.9-9.1V378.6z"/>
		<path class="st1" d="M492.2,433.7L474,406.6h-14.7v27.1h-18.7V349h38.8c10.1,0,17.9,2.5,23.6,7.4c5.6,4.9,8.4,11.8,8.4,20.6v0.2
			c0,6.9-1.7,12.5-5,16.8c-3.4,4.3-7.7,7.5-13.1,9.5l20.7,30.3H492.2z M492.6,377.9c0-4-1.3-7.1-3.9-9.1c-2.6-2-6.2-3-10.8-3h-18.5
			v24.3h18.9c4.6,0,8.1-1.1,10.6-3.3c2.5-2.2,3.7-5.1,3.7-8.7V377.9z"/>
		<path class="st1" d="M591.4,433.7l-7.8-19h-35.9l-7.8,19h-19l36.3-85.4h17.2l36.3,85.4H591.4z M565.7,370.8l-11.3,27.5H577
			L565.7,370.8z"/>
		<path class="st1" d="M662.4,366.2v67.6h-18.7v-67.6h-25.8V349h70.2v17.2H662.4z"/>
		<path class="st1" d="M702.4,433.7V349h63.8v16.6h-45.4v17.2h40v16.6h-40v17.8h46v16.6H702.4z"/>
		<path class="st1" d="M858.4,408.1c-2.2,5.2-5.3,9.6-9.3,13.4c-4,3.8-8.8,6.8-14.3,9c-5.5,2.2-11.6,3.3-18.2,3.3h-33.1V349h33.1
			c6.6,0,12.7,1.1,18.2,3.2c5.5,2.1,10.3,5.1,14.3,8.9c4,3.8,7.1,8.3,9.3,13.4c2.2,5.1,3.3,10.7,3.3,16.7v0.2
			C861.7,397.3,860.6,402.9,858.4,408.1z M842.2,391.3c0-3.7-0.6-7.1-1.9-10.3c-1.3-3.1-3-5.9-5.2-8.1c-2.2-2.3-4.9-4-8.1-5.3
			c-3.1-1.3-6.6-1.9-10.4-1.9h-14.4v51.1h14.4c3.8,0,7.3-0.6,10.4-1.8c3.1-1.2,5.8-2.9,8.1-5.2c2.2-2.3,4-4.9,5.2-8
			c1.3-3.1,1.9-6.5,1.9-10.3V391.3z"/>
	</g>
</g>
</svg>
